<svg width="624" height="434" viewBox="0 0 624 434" fill="none" xmlns="http://www.w3.org/2000/svg">
<path d="M205.24 250.026C205.24 226.484 224.303 207.401 247.819 207.401C271.335 207.401 290.398 226.484 290.398 250.026" stroke="white" stroke-width="0.388787" stroke-dasharray="1.56 1.56"/>
<g filter="url(#filter0_d_284_7503)">
<path d="M91.2801 408.328C116.83 408.328 137.543 387.593 137.543 362.016C137.543 336.438 116.83 315.704 91.2801 315.704C65.73 315.704 45.0176 336.438 45.0176 362.016C45.0176 387.593 65.73 408.328 91.2801 408.328Z" fill="white"/>
</g>
<mask id="mask0_284_7503" style="mask-type:luminance" maskUnits="userSpaceOnUse" x="63" y="336" width="51" height="51">
<path d="M113.555 336.286H63.8652V386.029H113.555V336.286Z" fill="white"/>
</mask>
<g mask="url(#mask0_284_7503)">
<path d="M109.04 341.616H87.6748C87.6748 344.177 88.691 346.632 90.4995 348.442C92.3082 350.253 94.7614 351.271 97.319 351.271H101.255V355.074C101.258 360.402 105.571 364.72 110.893 364.723V343.47C110.893 342.446 110.063 341.616 109.04 341.616Z" fill="#2684FF"/>
<path d="M98.4681 352.272H77.1038C77.107 357.6 81.4201 361.918 86.7418 361.922H90.6774V365.737C90.6841 371.065 95.0002 375.379 100.322 375.379V354.128C100.322 353.104 99.4918 352.272 98.4681 352.272Z" fill="url(#paint0_linear_284_7503)"/>
<path d="M87.8911 362.924H66.5264C66.5264 368.255 70.8445 372.577 76.1708 372.577H80.1187V376.382C80.1221 381.704 84.4277 386.02 89.7446 386.029V364.778C89.7446 363.754 88.9147 362.924 87.8911 362.924Z" fill="url(#paint1_linear_284_7503)"/>
</g>
<g filter="url(#filter1_d_284_7503)">
<path d="M557.596 304.126C583.147 304.126 603.859 283.392 603.859 257.814C603.859 232.237 583.147 211.502 557.596 211.502C532.046 211.502 511.334 232.237 511.334 257.814C511.334 283.392 532.046 304.126 557.596 304.126Z" fill="white"/>
</g>
<path fill-rule="evenodd" clip-rule="evenodd" d="M571.787 258.6C565.754 258.6 560.864 263.498 560.864 269.538C560.864 275.577 565.754 280.473 571.787 280.473C577.82 280.473 582.711 275.577 582.711 269.538C582.711 263.498 577.82 258.6 571.787 258.6ZM543.406 258.602C537.375 258.602 532.482 263.498 532.482 269.538C532.482 275.577 537.375 280.473 543.406 280.473C549.439 280.473 554.331 275.577 554.331 269.538C554.331 263.498 549.439 258.602 543.406 258.602ZM568.52 244.932C568.52 250.972 563.63 255.868 557.597 255.868C551.563 255.868 546.673 250.972 546.673 244.932C546.673 238.892 551.563 233.997 557.597 233.997C563.63 233.997 568.52 238.892 568.52 244.932Z" fill="#F06A6A"/>
<g filter="url(#filter2_d_284_7503)">
<path d="M559.978 157.99C585.528 157.99 606.241 137.255 606.241 111.678C606.241 86.1003 585.528 65.3657 559.978 65.3657C534.428 65.3657 513.716 86.1003 513.716 111.678C513.716 137.255 534.428 157.99 559.978 157.99Z" fill="white"/>
</g>
<path d="M542.171 125.238C541.071 125.241 539.992 124.951 539.043 124.399C538.093 123.847 537.306 123.053 536.763 122.097C536.228 121.148 535.962 120.071 535.992 118.982C536.021 117.893 536.348 116.832 536.934 115.914L548.07 98.408C548.639 97.4672 549.448 96.6945 550.413 96.1691C551.38 95.6438 552.467 95.3845 553.566 95.4179C554.663 95.4442 555.735 95.762 556.67 96.3389C557.604 96.9157 558.369 97.7308 558.886 98.7007C559.924 100.666 559.795 103.03 558.551 104.875L547.422 122.381C546.858 123.261 546.082 123.984 545.164 124.484C544.244 124.984 543.216 125.243 542.171 125.238Z" fill="#F62B54"/>
<path d="M561.272 125.238C559.026 125.238 556.96 124.035 555.873 122.103C555.34 121.157 555.075 120.083 555.104 118.996C555.135 117.91 555.46 116.852 556.044 115.937L567.158 98.471C567.72 97.5169 568.526 96.7306 569.494 96.1935C570.461 95.6565 571.555 95.3885 572.66 95.417C574.925 95.4665 576.979 96.735 578.016 98.7188C579.047 100.703 578.896 103.081 577.615 104.921L566.503 122.387C565.941 123.263 565.166 123.984 564.252 124.482C563.338 124.981 562.313 125.24 561.272 125.238Z" fill="#FFCC00"/>
<path d="M579.946 125.384C583.113 125.384 585.68 122.868 585.68 119.765C585.68 116.662 583.113 114.146 579.946 114.146C576.781 114.146 574.212 116.662 574.212 119.765C574.212 122.868 576.781 125.384 579.946 125.384Z" fill="#00CA72"/>
<g filter="url(#filter3_d_284_7503)">
<path d="M434.823 398.038C451.383 398.038 464.808 384.599 464.808 368.021C464.808 351.443 451.383 338.004 434.823 338.004C418.262 338.004 404.838 351.443 404.838 368.021C404.838 384.599 418.262 398.038 434.823 398.038Z" fill="white"/>
</g>
<path d="M447.333 352.457H422.31C420.634 352.457 419.273 353.817 419.273 355.497V380.545C419.273 382.225 420.634 383.585 422.31 383.585H447.333C449.01 383.585 450.37 382.225 450.37 380.545V355.497C450.37 353.817 449.01 352.457 447.333 352.457Z" fill="url(#paint2_linear_284_7503)"/>
<path d="M444.87 356.503H438.302C437.497 356.503 436.844 357.157 436.844 357.963V368.664C436.844 369.47 437.497 370.122 438.302 370.122H444.87C445.676 370.122 446.327 369.47 446.327 368.664V357.963C446.327 357.157 445.676 356.503 444.87 356.503Z" fill="white"/>
<path d="M431.342 356.503H424.773C423.968 356.503 423.315 357.157 423.315 357.963V376.445C423.315 377.251 423.968 377.905 424.773 377.905H431.342C432.147 377.905 432.8 377.251 432.8 376.445V357.963C432.8 357.157 432.147 356.503 431.342 356.503Z" fill="white"/>
<g filter="url(#filter4_d_284_7503)">
<path d="M256.627 398.038C273.188 398.038 286.612 384.599 286.612 368.021C286.612 351.443 273.188 338.004 256.627 338.004C240.067 338.004 226.642 351.443 226.642 368.021C226.642 384.599 240.067 398.038 256.627 398.038Z" fill="white"/>
</g>
<path d="M247.71 367.894C247.71 367.894 249.205 365.555 251.24 365.555C254.318 365.462 256.852 371.45 257.306 372.292C260.745 364.059 266.448 357.088 271.063 352.457H242.551C242.551 355.31 242.551 384.081 242.551 386.467C242.551 387.776 242.415 388.993 242.188 390.257C245.9 389.601 249.566 388.666 253.096 387.355C261.741 384.034 265.135 380.525 265.135 380.525L265.361 380.291L265.498 380.573C266.04 381.976 266.854 383.238 267.669 384.502C268.846 386.046 269.479 386.186 269.933 386.046C270.43 385.906 270.702 385.016 270.838 383.66C270.972 382.256 271.063 379.216 271.063 375.426V355.076C262.782 366.071 256.58 382.537 256.58 382.537C256.58 382.537 252.462 367.847 247.71 367.894Z" fill="#003059"/>
<g filter="url(#filter5_d_284_7503)">
<path d="M250.017 108.162C275.567 108.162 296.28 87.4276 296.28 61.8501C296.28 36.2726 275.567 15.5379 250.017 15.5379C224.467 15.5379 203.755 36.2726 203.755 61.8501C203.755 87.4276 224.467 108.162 250.017 108.162Z" fill="white"/>
</g>
<path d="M248.035 40.1123L228.23 48.3155C227.129 48.7716 227.142 50.3378 228.248 50.7776L248.134 58.6719C249.881 59.3656 251.828 59.3656 253.575 58.6719L273.461 50.7773C274.569 50.3378 274.582 48.772 273.479 48.3158L253.676 40.1121C251.869 39.3636 249.84 39.3636 248.033 40.1121" fill="#FCB400"/>
<path d="M252.62 62.9823V82.7039C252.62 83.6416 253.565 84.2841 254.436 83.9385L276.595 75.3282C276.842 75.2302 277.054 75.06 277.203 74.8398C277.352 74.6197 277.431 74.3596 277.431 74.0934V54.3722C277.431 53.4343 276.486 52.792 275.616 53.1376L253.456 61.7478C253.21 61.8461 252.997 62.0162 252.849 62.2363C252.7 62.4564 252.62 62.7161 252.62 62.9823Z" fill="#18BFFF"/>
<path d="M247.445 63.9994L240.87 67.1781L240.2 67.5012L226.318 74.1601C225.438 74.585 224.315 73.9431 224.315 72.9643V54.4545C224.315 54.1004 224.497 53.7948 224.74 53.5647C224.84 53.4653 224.954 53.3804 225.077 53.3123C225.407 53.1131 225.881 53.0599 226.284 53.2191L247.334 61.5692C248.405 61.9941 248.488 63.4947 247.445 63.9994Z" fill="#F82B60"/>
<path d="M247.445 63.9994L240.868 67.1781L224.74 53.5645C224.84 53.4652 224.952 53.3802 225.075 53.3123C225.407 53.1131 225.881 53.0599 226.283 53.2191L247.334 61.5692C248.405 61.9941 248.488 63.4947 247.445 63.9994Z" fill="black" fill-opacity="0.25"/>
<g filter="url(#filter6_d_284_7503)">
<path d="M414.16 81.8252C430.72 81.8252 444.145 68.386 444.145 51.808C444.145 35.23 430.72 21.7908 414.16 21.7908C397.6 21.7908 384.175 35.23 384.175 51.808C384.175 68.386 397.6 81.8252 414.16 81.8252Z" fill="white"/>
</g>
<path fill-rule="evenodd" clip-rule="evenodd" d="M404.648 40.8684C405.645 41.6791 406.019 41.6171 407.889 41.4922L425.532 40.4317C425.905 40.4317 425.595 40.058 425.47 39.9959L422.54 37.8755C421.978 37.4391 421.231 36.9396 419.798 37.0645L402.714 38.3118C402.092 38.3736 401.967 38.6856 402.215 38.9354L404.648 40.8684ZM405.707 44.9844V63.567C405.707 64.5657 406.206 64.9393 407.327 64.8775L426.716 63.7544C427.839 63.6927 427.964 63.0057 427.964 62.1944V43.7365C427.964 42.9266 427.652 42.4899 426.966 42.5521L406.705 43.7365C405.957 43.7995 405.707 44.1739 405.707 44.9844ZM424.848 45.9813C424.971 46.5429 424.848 47.1042 424.285 47.1674L423.351 47.3537V61.0727C422.54 61.509 421.793 61.7586 421.169 61.7586C420.171 61.7586 419.921 61.4464 419.174 60.5116L413.062 50.9084V60.1998L414.996 60.6365C414.996 60.6365 414.996 61.7586 413.436 61.7586L409.135 62.0082C409.01 61.7586 409.135 61.1355 409.572 61.0106L410.695 60.6992V48.4142L409.135 48.2891C409.012 47.7275 409.322 46.9174 410.196 46.8546L414.809 46.5431L421.169 56.2714V47.6655L419.547 47.4792C419.422 46.7925 419.921 46.2938 420.545 46.2321L424.848 45.9813ZM401.279 36.6281L419.049 35.3183C421.231 35.1309 421.793 35.2564 423.164 36.2537L428.837 40.2447C429.773 40.9309 430.085 41.1178 430.085 41.8659V63.7544C430.085 65.1261 429.584 65.9375 427.839 66.0615L407.203 67.309C405.894 67.3715 405.27 67.1846 404.584 66.311L400.407 60.8858C399.659 59.8871 399.347 59.14 399.347 58.266V38.8099C399.347 37.6883 399.848 36.7523 401.279 36.6281Z" fill="black"/>
<g filter="url(#filter7_d_284_7503)">
<path d="M162.388 277.969C178.948 277.969 192.373 264.53 192.373 247.952C192.373 231.374 178.948 217.935 162.388 217.935C145.827 217.935 132.403 231.374 132.403 247.952C132.403 264.53 145.827 277.969 162.388 277.969Z" fill="white"/>
</g>
<path d="M153.816 230.719H172.069C175.919 230.719 179.046 233.85 179.046 237.703V255.976C179.046 259.83 175.919 262.96 172.069 262.96H153.816C149.966 262.96 146.84 259.83 146.84 255.976V237.703C146.84 233.85 149.966 230.719 153.816 230.719Z" fill="#FFD02F"/>
<path d="M169.219 234.745H165.683L168.628 239.926L162.147 234.745H158.611L161.851 241.081L155.075 234.745H151.539L155.075 242.808L151.539 258.933H155.075L161.851 241.653L158.611 258.933H162.147L168.628 240.509L165.683 258.933H169.219L175.7 238.773L169.219 234.745Z" fill="#050038"/>
<g filter="url(#filter8_d_284_7503)">
<path d="M63.8653 209.358C89.4154 209.358 110.128 188.623 110.128 163.046C110.128 137.468 89.4154 116.734 63.8653 116.734C38.3152 116.734 17.6028 137.468 17.6028 163.046C17.6028 188.623 38.3152 209.358 63.8653 209.358Z" fill="white"/>
</g>
<path d="M49.3099 159.115C51.9645 159.115 53.2156 159.56 55.138 161.311L65.4512 170.705C65.7563 170.983 65.8173 171.094 65.8784 171.261C65.9089 171.316 65.9089 171.4 65.9089 171.455C65.9089 171.511 65.9089 171.594 65.8784 171.65C65.8173 171.817 65.7563 171.928 65.4512 172.206L58.4027 178.654C58.0976 178.931 57.9755 178.987 57.7925 179.043C57.7314 179.071 57.64 179.071 57.5788 179.071C57.5179 179.071 57.4263 179.071 57.3653 179.043C57.1823 178.987 57.0602 178.931 56.7551 178.654L36.7692 160.449C36.1894 159.921 36.4031 159.115 37.3796 159.115H49.3099Z" fill="#08CF65"/>
<path d="M78.42 147.637C75.7654 147.637 74.5144 148.082 72.5921 149.833L62.2787 159.227C61.9736 159.505 61.9126 159.616 61.8515 159.783C61.821 159.838 61.821 159.922 61.821 159.977C61.821 160.033 61.821 160.116 61.8515 160.172C61.9126 160.338 61.9736 160.45 62.2787 160.728L69.3272 167.148C69.6323 167.426 69.7544 167.481 69.9374 167.537C69.9985 167.565 70.09 167.565 70.1511 167.565C70.212 167.565 70.3036 167.565 70.3646 167.537C70.5478 167.481 70.6697 167.426 70.9748 167.148L90.9609 148.943C91.5405 148.415 91.327 147.609 90.3504 147.609H78.42V147.637Z" fill="#08CF65"/>
<g filter="url(#filter9_d_284_7503)">
<path d="M332.015 305.413C379.803 305.413 418.543 266.632 418.543 218.792C418.543 170.953 379.803 132.171 332.015 132.171C284.227 132.171 245.487 170.953 245.487 218.792C245.487 266.632 284.227 305.413 332.015 305.413Z" fill="#F6F7F9"/>
<path d="M331.5 297C375.407 297 411 261.407 411 217.5C411 173.593 375.407 138 331.5 138C287.593 138 252 173.593 252 217.5C252 261.407 287.593 297 331.5 297Z" fill="white"/>
<path d="M352.003 185.371C351.658 185.177 351.378 184.885 351.2 184.532C351.021 184.179 350.951 183.781 350.998 183.388C351.045 182.995 351.208 182.625 351.466 182.325C351.723 182.024 352.064 181.807 352.445 181.7C352.826 181.594 353.23 181.602 353.606 181.725C353.983 181.848 354.314 182.08 354.558 182.391C354.803 182.702 354.95 183.078 354.98 183.473C355.011 183.867 354.924 184.262 354.73 184.607C354.602 184.838 354.43 185.04 354.223 185.204C354.017 185.367 353.78 185.488 353.526 185.559C353.272 185.63 353.007 185.65 352.745 185.618C352.484 185.586 352.231 185.502 352.003 185.371Z" fill="url(#paint3_linear_284_7503)"/>
<path d="M328.885 205.922C328.885 205.868 328.885 205.82 328.848 205.766C328.723 205.322 328.496 204.913 328.186 204.572L332.372 197.137L336.562 189.702C337.068 189.8 337.591 189.765 338.08 189.6L350.598 206.277C350.369 206.513 350.17 206.777 350.007 207.063C349.849 207.35 349.726 207.655 349.641 207.972L328.885 205.922Z" fill="url(#paint4_linear_284_7503)"/>
<path d="M349.173 183.601L339.844 185.705C339.584 185.268 339.213 184.907 338.768 184.661C338.313 184.406 337.799 184.278 337.278 184.29L334.739 177.102L333.636 173.982C333.871 173.787 334.074 173.556 334.238 173.299L349.565 181.906C349.304 182.433 349.17 183.013 349.173 183.601Z" fill="url(#paint5_linear_284_7503)"/>
<path d="M334.507 187.792C334.614 188.302 334.856 188.774 335.207 189.158L326.943 203.824C326.433 203.728 325.906 203.767 325.415 203.937L312.402 187.023C312.611 186.798 312.791 186.549 312.94 186.28C313.087 186.011 313.204 185.726 313.289 185.43L334.507 187.792Z" fill="url(#paint6_linear_284_7503)"/>
<path d="M333.286 218.166C332.558 217.754 331.715 217.592 330.887 217.704L330.774 217.392L327.804 208.897C328.119 208.654 328.383 208.351 328.579 208.004C328.627 207.923 328.67 207.838 328.708 207.751L335.82 208.456L349.614 209.849C349.614 209.908 349.614 209.968 349.651 210.032C349.723 210.281 349.819 210.523 349.937 210.753L334.841 219.813C334.5 219.12 333.958 218.546 333.286 218.166Z" fill="url(#paint7_linear_284_7503)"/>
<path d="M310.653 188.077L310.874 188.002L323.979 205.034C323.931 205.104 323.888 205.174 323.845 205.244C323.661 205.577 323.542 205.943 323.495 206.32L313.956 208.176C313.688 207.417 313.187 206.763 312.524 206.307C311.861 205.85 311.07 205.616 310.266 205.637L309.943 188.222C310.184 188.195 310.421 188.146 310.653 188.077Z" fill="url(#paint8_linear_284_7503)"/>
<path d="M329.94 220.458C330.167 220.055 330.527 219.743 330.958 219.575C331.39 219.407 331.866 219.394 332.306 219.538C332.746 219.682 333.122 219.974 333.371 220.364C333.62 220.755 333.726 221.219 333.671 221.679C333.616 222.138 333.403 222.565 333.068 222.885C332.734 223.205 332.299 223.4 331.838 223.435C331.376 223.471 330.917 223.345 330.537 223.08C330.158 222.815 329.882 222.426 329.757 221.981C329.616 221.469 329.681 220.922 329.94 220.458Z" fill="url(#paint9_linear_284_7503)"/>
<path d="M311.552 183.865C311.641 184.182 311.651 184.516 311.58 184.838C311.509 185.159 311.36 185.459 311.146 185.709C310.932 185.959 310.659 186.153 310.352 186.272C310.045 186.392 309.713 186.434 309.386 186.394C309.059 186.355 308.747 186.236 308.477 186.047C308.208 185.858 307.989 185.605 307.84 185.311C307.691 185.017 307.617 184.691 307.625 184.362C307.632 184.033 307.721 183.71 307.883 183.424C308.075 183.077 308.367 182.796 308.72 182.616C309.073 182.435 309.472 182.364 309.865 182.412C310.259 182.459 310.629 182.623 310.93 182.881C311.23 183.14 311.447 183.482 311.552 183.865Z" fill="url(#paint10_linear_284_7503)"/>
<path d="M352.347 205.373L352.169 205.432L339.731 188.868C339.786 188.792 339.837 188.713 339.882 188.631C340.083 188.278 340.206 187.885 340.242 187.48L349.592 185.376C349.927 186.026 350.441 186.567 351.073 186.934C351.705 187.301 352.429 187.479 353.159 187.448L353.127 205.255C352.864 205.268 352.602 205.307 352.347 205.373Z" fill="#2E9546"/>
<path d="M313.704 211.302C313.934 210.888 314.087 210.436 314.156 209.968L323.839 208.085C324.099 208.552 324.482 208.94 324.947 209.204C325.398 209.458 325.909 209.586 326.427 209.575L329.45 218.183L329.493 218.301C329.025 218.626 328.637 219.053 328.358 219.549L313.704 211.307V211.302Z" fill="#2E9546"/>
<path d="M330.15 174.305C330.703 174.619 331.341 174.752 331.973 174.687L335.578 184.908C335.268 185.146 335.01 185.444 334.819 185.785C334.776 185.855 334.744 185.931 334.706 186.006L313.354 183.623C313.354 183.547 313.322 183.472 313.3 183.397C313.233 183.155 313.143 182.921 313.031 182.697L329.047 173.266C329.321 173.7 329.701 174.057 330.15 174.305Z" fill="#2E9546"/>
<path d="M351.443 209.586C351.3 209.074 351.367 208.527 351.628 208.064C351.888 207.602 352.322 207.262 352.834 207.119C353.345 206.976 353.892 207.043 354.355 207.303C354.818 207.564 355.158 207.998 355.3 208.51C355.407 208.891 355.398 209.295 355.274 209.671C355.151 210.047 354.919 210.378 354.607 210.623C354.296 210.867 353.919 211.013 353.524 211.043C353.129 211.073 352.735 210.985 352.39 210.791C352.161 210.662 351.959 210.489 351.797 210.282C351.634 210.076 351.514 209.839 351.443 209.586Z" fill="#2E9546"/>
<path d="M311.347 207.697C311.692 207.892 311.971 208.184 312.15 208.537C312.329 208.89 312.399 209.288 312.352 209.68C312.304 210.073 312.142 210.443 311.884 210.744C311.626 211.044 311.286 211.261 310.905 211.368C310.524 211.475 310.119 211.466 309.743 211.343C309.367 211.22 309.036 210.989 308.791 210.678C308.547 210.367 308.4 209.99 308.37 209.595C308.339 209.201 308.426 208.806 308.62 208.461C308.747 208.231 308.92 208.028 309.126 207.865C309.333 207.701 309.57 207.58 309.824 207.509C310.078 207.438 310.343 207.418 310.604 207.451C310.866 207.483 311.118 207.567 311.347 207.697Z" fill="#2E9546"/>
<path d="M333.41 172.599C333.281 172.828 333.108 173.03 332.901 173.192C332.693 173.354 332.457 173.473 332.203 173.544C331.95 173.614 331.685 173.634 331.424 173.602C331.163 173.57 330.911 173.487 330.682 173.358C330.221 173.097 329.883 172.664 329.74 172.154C329.598 171.643 329.664 171.097 329.924 170.636C330.192 170.189 330.624 169.864 331.128 169.73C331.632 169.597 332.168 169.665 332.622 169.921C333.077 170.177 333.413 170.6 333.56 171.1C333.707 171.6 333.653 172.138 333.41 172.599Z" fill="#2E9546"/>
<path d="M326.959 229.313C326.673 229.152 326.43 228.922 326.254 228.644C326.077 228.367 325.972 228.05 325.947 227.721C325.922 227.393 325.978 227.064 326.111 226.763C326.244 226.462 326.449 226.198 326.708 225.995C326.967 225.792 327.272 225.656 327.596 225.599C327.92 225.542 328.253 225.566 328.566 225.669C328.879 225.771 329.161 225.949 329.389 226.187C329.616 226.425 329.782 226.715 329.87 227.032C329.974 227.413 329.963 227.816 329.838 228.191C329.714 228.565 329.482 228.895 329.171 229.139C328.861 229.382 328.485 229.528 328.092 229.56C327.698 229.591 327.304 229.505 326.959 229.313Z" fill="url(#paint11_linear_284_7503)"/>
<path d="M303.837 249.859C303.827 249.808 303.814 249.758 303.799 249.708C303.679 249.263 303.452 248.853 303.138 248.514L307.329 241.079L311.514 233.644C312.02 233.74 312.542 233.705 313.031 233.542L325.55 250.219C325.322 250.455 325.125 250.719 324.964 251.005C324.801 251.292 324.677 251.599 324.598 251.919L303.837 249.859Z" fill="url(#paint12_linear_284_7503)"/>
<path d="M324.13 227.543L314.78 229.642C314.517 229.201 314.141 228.839 313.692 228.591C313.243 228.344 312.737 228.22 312.224 228.232L309.685 221.045L308.609 217.924C308.844 217.728 309.049 217.498 309.217 217.241L324.539 225.849C324.272 226.374 324.132 226.954 324.13 227.543Z" fill="url(#paint13_linear_284_7503)"/>
<path d="M309.464 231.729C309.567 232.239 309.807 232.712 310.158 233.095L301.895 247.761C301.385 247.661 300.857 247.7 300.367 247.874L287.343 230.96C287.771 230.505 288.08 229.95 288.241 229.346L309.464 231.729Z" fill="url(#paint14_linear_284_7503)"/>
<path d="M308.243 262.109C307.514 261.694 306.669 261.531 305.838 261.646L305.731 261.334L302.756 252.839C303.072 252.598 303.336 252.294 303.53 251.946C303.578 251.864 303.621 251.78 303.659 251.693L310.777 252.398L324.565 253.765C324.565 253.829 324.592 253.888 324.608 253.948C324.677 254.198 324.771 254.442 324.888 254.674L309.825 263.734C309.472 263.046 308.921 262.48 308.243 262.109Z" fill="url(#paint15_linear_284_7503)"/>
<path d="M285.605 232.02L285.825 231.944L298.93 248.977C298.887 249.047 298.839 249.111 298.801 249.187C298.613 249.518 298.494 249.884 298.452 250.262L288.908 252.113C288.602 251.243 287.99 250.515 287.186 250.063C286.589 249.724 285.909 249.557 285.223 249.579L284.895 232.159C285.135 232.137 285.373 232.09 285.605 232.02Z" fill="url(#paint16_linear_284_7503)"/>
<path d="M304.897 264.401C305.091 264.056 305.383 263.777 305.736 263.599C306.088 263.42 306.486 263.35 306.878 263.398C307.271 263.445 307.64 263.607 307.941 263.864C308.241 264.121 308.459 264.461 308.566 264.842C308.636 265.095 308.656 265.36 308.625 265.621C308.593 265.882 308.51 266.134 308.381 266.363C308.252 266.592 308.079 266.794 307.872 266.956C307.665 267.118 307.428 267.238 307.175 267.308C306.922 267.379 306.657 267.399 306.396 267.368C306.135 267.336 305.883 267.253 305.654 267.124C305.425 266.995 305.223 266.822 305.061 266.615C304.899 266.408 304.779 266.171 304.708 265.918C304.568 265.407 304.636 264.861 304.897 264.401Z" fill="url(#paint17_linear_284_7503)"/>
<path d="M286.508 227.807C286.65 228.319 286.584 228.866 286.326 229.33C286.098 229.733 285.739 230.045 285.307 230.213C284.876 230.381 284.399 230.394 283.959 230.25C283.519 230.106 283.143 229.814 282.894 229.424C282.645 229.033 282.539 228.569 282.595 228.109C282.65 227.649 282.863 227.223 283.197 226.903C283.531 226.583 283.966 226.388 284.428 226.352C284.889 226.317 285.349 226.442 285.728 226.708C286.108 226.973 286.383 227.361 286.508 227.807Z" fill="url(#paint18_linear_284_7503)"/>
<path d="M327.298 249.316L327.126 249.375L314.688 232.8C314.742 232.724 314.79 232.644 314.839 232.563C315.036 232.208 315.159 231.816 315.199 231.412L324.544 229.308C324.877 229.958 325.391 230.499 326.024 230.865C326.656 231.231 327.381 231.408 328.111 231.374L328.078 249.181C327.815 249.202 327.554 249.247 327.298 249.316Z" fill="#2E9546"/>
<path d="M288.639 255.244C288.872 254.832 289.025 254.379 289.091 253.91L298.774 252.027C299.034 252.495 299.418 252.882 299.883 253.146C300.336 253.399 300.849 253.526 301.368 253.512L304.386 262.146L304.429 262.259C303.961 262.587 303.573 263.015 303.294 263.513L288.639 255.25V255.244Z" fill="#2E9546"/>
<path d="M305.096 218.247C305.65 218.558 306.287 218.692 306.92 218.629L310.524 228.851C310.215 229.088 309.958 229.384 309.766 229.722L309.658 229.943L288.3 227.565C288.3 227.49 288.268 227.409 288.246 227.334C288.182 227.093 288.091 226.861 287.977 226.64L304.02 217.193C304.285 217.629 304.655 217.991 305.096 218.247Z" fill="#2E9546"/>
<path d="M326.4 253.528C326.311 253.211 326.301 252.877 326.372 252.555C326.443 252.233 326.592 251.934 326.806 251.684C327.02 251.434 327.293 251.24 327.6 251.121C327.906 251.001 328.238 250.959 328.565 250.998C328.892 251.038 329.204 251.157 329.474 251.346C329.744 251.535 329.963 251.788 330.112 252.081C330.261 252.375 330.334 252.701 330.327 253.031C330.32 253.36 330.231 253.682 330.069 253.969C329.876 254.316 329.585 254.597 329.232 254.777C328.879 254.957 328.48 255.028 328.086 254.981C327.693 254.934 327.322 254.77 327.022 254.511C326.721 254.253 326.505 253.91 326.4 253.528Z" fill="#2E9546"/>
<path d="M286.299 251.629C286.529 251.757 286.731 251.93 286.893 252.136C287.056 252.343 287.175 252.58 287.246 252.834C287.37 253.28 287.337 253.755 287.151 254.179C286.964 254.603 286.637 254.949 286.224 255.158C285.811 255.368 285.338 255.428 284.886 255.328C284.434 255.228 284.031 254.974 283.745 254.61C283.459 254.246 283.308 253.794 283.318 253.331C283.327 252.868 283.497 252.423 283.799 252.072C284.1 251.72 284.514 251.484 284.969 251.403C285.425 251.322 285.895 251.402 286.299 251.629Z" fill="#2E9546"/>
<path d="M308.361 216.542C308.167 216.886 307.874 217.165 307.521 217.344C307.168 217.522 306.769 217.592 306.376 217.544C305.984 217.496 305.614 217.332 305.314 217.074C305.014 216.816 304.797 216.475 304.691 216.093C304.585 215.712 304.594 215.308 304.718 214.932C304.842 214.556 305.074 214.225 305.386 213.981C305.697 213.737 306.074 213.591 306.469 213.561C306.864 213.532 307.258 213.62 307.603 213.814C308.064 214.076 308.403 214.51 308.545 215.021C308.687 215.533 308.621 216.079 308.361 216.542Z" fill="#2E9546"/>
<path d="M377.051 229.313C376.59 229.051 376.251 228.618 376.104 228.108C375.979 227.663 376.013 227.187 376.199 226.763C376.385 226.34 376.713 225.993 377.126 225.784C377.539 225.574 378.011 225.515 378.463 225.615C378.916 225.715 379.319 225.968 379.605 226.332C379.891 226.696 380.042 227.148 380.032 227.611C380.022 228.074 379.852 228.519 379.551 228.871C379.25 229.222 378.836 229.459 378.38 229.539C377.924 229.62 377.455 229.54 377.051 229.313Z" fill="url(#paint19_linear_284_7503)"/>
<path d="M353.928 249.859L353.896 249.708C353.771 249.263 353.543 248.854 353.229 248.514L357.42 241.079L361.611 233.644C362.115 233.74 362.636 233.705 363.122 233.542L375.647 250.219C375.182 250.691 374.851 251.278 374.689 251.919L353.928 249.859Z" fill="url(#paint20_linear_284_7503)"/>
<path d="M374.221 227.543L364.893 229.642C364.629 229.201 364.253 228.838 363.803 228.59C363.353 228.342 362.845 228.219 362.332 228.232L359.798 221.045L358.695 217.924C358.927 217.726 359.13 217.496 359.298 217.241L374.619 225.849C374.359 226.376 374.223 226.956 374.221 227.543Z" fill="url(#paint21_linear_284_7503)"/>
<path d="M359.556 231.729C359.663 232.239 359.904 232.711 360.255 233.095L351.992 247.761C351.482 247.66 350.954 247.699 350.464 247.874L337.45 230.96C337.658 230.734 337.838 230.485 337.988 230.217C338.139 229.949 338.257 229.664 338.338 229.367L359.556 231.729Z" fill="url(#paint22_linear_284_7503)"/>
<path d="M358.356 262.109C357.63 261.692 356.786 261.529 355.957 261.646L355.844 261.334L352.869 252.839C353.187 252.598 353.453 252.294 353.649 251.946C353.692 251.86 353.735 251.78 353.772 251.693L360.89 252.398L374.678 253.765C374.678 253.829 374.678 253.888 374.721 253.948C374.79 254.199 374.885 254.443 375.007 254.674L359.911 263.734C359.565 263.05 359.024 262.484 358.356 262.109Z" fill="url(#paint23_linear_284_7503)"/>
<path d="M335.702 232.02L335.922 231.944L349.022 248.977L348.893 249.187C348.707 249.519 348.588 249.884 348.543 250.262L338.989 252.097C338.726 251.336 338.226 250.68 337.563 250.224C336.9 249.768 336.108 249.536 335.303 249.563L334.981 232.143C335.225 232.126 335.466 232.085 335.702 232.02Z" fill="url(#paint24_linear_284_7503)"/>
<path d="M354.988 264.401C355.216 263.996 355.576 263.682 356.009 263.514C356.442 263.345 356.92 263.331 357.361 263.476C357.802 263.62 358.18 263.912 358.43 264.304C358.68 264.695 358.786 265.161 358.73 265.622C358.675 266.083 358.462 266.511 358.126 266.832C357.791 267.153 357.354 267.348 356.891 267.384C356.428 267.419 355.967 267.293 355.587 267.027C355.207 266.76 354.93 266.37 354.805 265.923C354.662 265.411 354.728 264.864 354.988 264.401Z" fill="url(#paint25_linear_284_7503)"/>
<path d="M336.6 227.807C336.706 228.188 336.697 228.593 336.574 228.969C336.451 229.345 336.218 229.676 335.907 229.92C335.595 230.164 335.218 230.31 334.824 230.34C334.429 230.37 334.034 230.283 333.69 230.088C333.229 229.827 332.89 229.394 332.748 228.884C332.606 228.374 332.671 227.828 332.931 227.366C333.125 227.022 333.417 226.743 333.77 226.564C334.123 226.386 334.52 226.316 334.913 226.363C335.305 226.41 335.675 226.572 335.975 226.829C336.275 227.086 336.493 227.427 336.6 227.807Z" fill="url(#paint26_linear_284_7503)"/>
<path d="M377.39 249.316L377.218 249.375L364.78 232.8C364.833 232.724 364.882 232.644 364.93 232.563C365.13 232.209 365.253 231.816 365.291 231.412L374.635 229.308C374.97 229.957 375.484 230.497 376.116 230.863C376.748 231.23 377.472 231.407 378.202 231.374L378.175 249.181C377.91 249.202 377.647 249.247 377.39 249.316Z" fill="#2E9546"/>
<path d="M338.731 255.244C338.964 254.832 339.117 254.379 339.182 253.91L348.866 252.027C349.119 252.489 349.495 252.871 349.951 253.133C350.408 253.395 350.928 253.526 351.454 253.512L354.477 262.146L354.515 262.259C354.048 262.588 353.661 263.016 353.38 263.513L338.704 255.244H338.731Z" fill="#2E9546"/>
<path d="M355.198 218.247C355.753 218.558 356.389 218.692 357.022 218.629L360.621 228.851C360.314 229.089 360.056 229.385 359.862 229.722L359.755 229.943L338.397 227.565C338.397 227.49 338.37 227.409 338.349 227.334C338.279 227.095 338.189 226.863 338.08 226.64L354.09 217.209C354.368 217.641 354.749 217.998 355.198 218.247Z" fill="#2E9546"/>
<path d="M376.492 253.528C376.385 253.147 376.394 252.743 376.518 252.366C376.641 251.99 376.873 251.659 377.185 251.415C377.496 251.171 377.873 251.025 378.268 250.995C378.663 250.965 379.057 251.053 379.402 251.247C379.863 251.508 380.202 251.941 380.344 252.451C380.486 252.962 380.42 253.507 380.161 253.969C379.966 254.313 379.674 254.592 379.322 254.771C378.969 254.949 378.571 255.019 378.179 254.972C377.786 254.925 377.417 254.763 377.117 254.506C376.816 254.249 376.599 253.908 376.492 253.528Z" fill="#2E9546"/>
<path d="M336.39 251.629C336.734 251.823 337.012 252.115 337.19 252.467C337.367 252.819 337.437 253.216 337.389 253.608C337.341 254 337.178 254.368 336.921 254.668C336.664 254.967 336.323 255.183 335.943 255.289C335.563 255.395 335.16 255.386 334.785 255.263C334.41 255.14 334.08 254.908 333.837 254.598C333.593 254.287 333.447 253.912 333.417 253.518C333.387 253.125 333.475 252.731 333.668 252.387C333.796 252.158 333.968 251.955 334.174 251.793C334.381 251.63 334.617 251.51 334.871 251.439C335.124 251.369 335.389 251.349 335.649 251.382C335.91 251.414 336.162 251.498 336.39 251.629Z" fill="#2E9546"/>
<path d="M358.458 216.542C358.196 217.003 357.762 217.342 357.251 217.484C356.74 217.626 356.193 217.56 355.731 217.3C355.501 217.172 355.299 217 355.136 216.793C354.974 216.586 354.854 216.349 354.784 216.095C354.677 215.714 354.687 215.31 354.81 214.934C354.933 214.558 355.165 214.227 355.477 213.982C355.789 213.738 356.165 213.592 356.56 213.562C356.955 213.532 357.349 213.62 357.694 213.814C357.924 213.942 358.126 214.115 358.289 214.322C358.451 214.529 358.571 214.766 358.641 215.019C358.782 215.531 358.717 216.078 358.458 216.542Z" fill="#2E9546"/>
</g>
<path fill-rule="evenodd" clip-rule="evenodd" d="M249.76 0.907961C249.156 0.908238 248.552 0.917398 247.949 0.935304L247.964 1.38908L247.989 2.29663L248.004 2.75041C248.591 2.73288 249.183 2.724 249.774 2.72386C250.367 2.724 250.957 2.73288 251.546 2.75041L251.559 2.29663L251.586 1.38908L251.599 0.935304C250.999 0.917398 250.395 0.908238 249.789 0.907961C249.78 0.907957 249.771 0.907961 249.76 0.907961ZM244.287 1.15401C243.063 1.26409 241.847 1.41057 240.645 1.59237L240.712 2.04126L240.848 2.93904L240.915 3.38793C242.081 3.21155 243.26 3.06944 244.448 2.96263L244.408 2.51047L244.327 1.60617L244.287 1.15401ZM237.031 2.25105C235.828 2.50822 234.64 2.80098 233.465 3.12819L233.586 3.56556L233.83 4.44028L233.951 4.87764C235.09 4.56028 236.244 4.27633 237.41 4.02688L237.316 3.58292L237.125 2.69502L237.031 2.25105ZM229.959 4.22065C228.799 4.62144 227.655 5.0564 226.528 5.52434L226.701 5.94368L227.049 6.78238L227.223 7.20172C228.315 6.74784 229.425 6.32597 230.552 5.93724L230.403 5.50809L230.107 4.6498L229.959 4.22065ZM223.182 7.03455C222.079 7.57289 220.994 8.14361 219.931 8.74549L220.154 9.1407L220.6 9.93113L220.823 10.3263C221.856 9.74246 222.906 9.18882 223.976 8.66663L223.777 8.25861L223.379 7.44258L223.182 7.03455ZM216.791 10.6497C215.763 11.3165 214.756 12.0136 213.773 12.7397L214.041 13.1051L214.58 13.836L214.848 14.2015C215.802 13.497 216.78 12.8206 217.778 12.1737L217.531 11.7927L217.038 11.0307L216.791 10.6497ZM210.883 15.0079C209.943 15.7931 209.027 16.6061 208.137 17.4457L208.449 17.7762L209.069 18.4372L209.381 18.7677C210.244 17.953 211.133 17.1641 212.046 16.4022L211.756 16.0537L211.175 15.3565L210.883 15.0079ZM205.541 20.0441C204.703 20.9357 203.89 21.8527 203.107 22.7939L203.455 23.0846L204.151 23.6664L204.5 23.9572C205.26 23.044 206.049 22.1542 206.861 21.2891L206.531 20.9778L205.871 20.3553L205.541 20.0441ZM200.841 25.685C200.115 26.6703 199.419 27.6781 198.753 28.7074L199.134 28.9542L199.894 29.4479L200.275 29.6947C200.921 28.6961 201.597 27.7183 202.301 26.7624L201.935 26.4931L201.206 25.9545L200.841 25.685ZM196.85 31.8507C196.25 32.9156 195.678 34.0004 195.142 35.1039L195.55 35.3029L196.364 35.701L196.772 35.9C197.293 34.8295 197.846 33.7772 198.43 32.7441L198.035 32.5208L197.246 32.0741L196.85 31.8507ZM193.632 38.4544C193.166 39.5828 192.731 40.7283 192.33 41.8899L192.76 42.0379L193.616 42.3341L194.046 42.4823C194.434 41.3557 194.855 40.2445 195.308 39.1499L194.889 38.9761L194.051 38.6282L193.632 38.4544ZM191.24 45.399C190.913 46.5751 190.619 47.7654 190.364 48.969L190.806 49.064L191.693 49.2536L192.138 49.3485C192.386 48.1811 192.669 47.0264 192.987 45.8858L192.549 45.7641L191.677 45.5206L191.24 45.399ZM189.705 52.5861C189.524 53.7904 189.377 55.0063 189.268 56.2326L189.72 56.2733L190.623 56.3545L191.075 56.395C191.18 55.205 191.323 54.0254 191.499 52.857L191.051 52.7893L190.153 52.6538L189.705 52.5861ZM189.048 59.8993C189.03 60.5109 189.021 61.1246 189.021 61.7406C189.021 62.3565 189.03 62.9703 189.048 63.5819L189.502 63.5685L190.409 63.5414L190.862 63.528C190.844 62.9344 190.835 62.3386 190.835 61.7406C190.835 61.1426 190.844 60.5468 190.862 59.9532L190.409 59.9398L189.502 59.9127L189.048 59.8993ZM189.268 67.2486C189.377 68.4749 189.524 69.6908 189.705 70.8951L190.153 70.8274L191.051 70.6919L191.499 70.6242C191.323 69.4558 191.18 68.2762 191.075 67.0862L190.623 67.1269L189.72 67.2081L189.268 67.2486ZM190.364 74.5122C190.619 75.7158 190.913 76.9061 191.24 78.0822L191.677 77.9606L192.549 77.7171L192.987 77.5954C192.669 76.4548 192.386 75.3001 192.138 74.1327L191.693 74.2276L190.806 74.4172L190.364 74.5122ZM192.33 81.5913C192.731 82.7529 193.166 83.8984 193.632 85.0268L194.051 84.853L194.889 84.5051L195.308 84.3313C194.855 83.2367 194.434 82.1255 194.046 80.9989L193.616 81.1471L192.76 81.4433L192.33 81.5913ZM195.142 88.3773C195.678 89.4808 196.25 90.5656 196.85 91.6305L197.246 91.4071L198.035 90.9604L198.43 90.7371C197.846 89.704 197.293 88.6517 196.772 87.5812L196.364 87.7802L195.55 88.1783L195.142 88.3773ZM198.753 94.7738C199.419 95.8031 200.115 96.8109 200.841 97.7962L201.206 97.5267L201.935 96.9881L202.301 96.7188C201.597 95.7629 200.921 94.7851 200.275 93.7865L199.894 94.0333L199.134 94.527L198.753 94.7738ZM203.107 100.687C203.89 101.628 204.703 102.545 205.541 103.437L205.871 103.126L206.531 102.503L206.861 102.192C206.049 101.327 205.26 100.437 204.5 99.524L204.151 99.8147L203.455 100.397L203.107 100.687ZM208.137 106.035C209.027 106.875 209.943 107.688 210.883 108.473L211.175 108.125L211.756 107.428L212.046 107.079C211.133 106.317 210.244 105.528 209.381 104.713L209.069 105.044L208.449 105.705L208.137 106.035ZM213.773 110.742C214.756 111.468 215.763 112.165 216.791 112.831L217.038 112.451L217.531 111.689L217.778 111.308C216.78 110.661 215.802 109.984 214.848 109.28L214.58 109.645L214.041 110.376L213.773 110.742ZM219.931 114.736C220.994 115.338 222.079 115.908 223.182 116.447L223.379 116.039L223.777 115.223L223.976 114.815C222.906 114.292 221.856 113.739 220.823 113.155L220.6 113.55L220.154 114.34L219.931 114.736ZM226.528 117.957C227.655 118.425 228.799 118.86 229.959 119.26L230.107 118.831L230.403 117.973L230.552 117.544C229.425 117.155 228.315 116.733 227.223 116.28L227.049 116.699L226.701 117.538L226.528 117.957ZM233.465 120.353C234.64 120.68 235.828 120.973 237.031 121.23L237.125 120.786L237.316 119.898L237.41 119.454C236.244 119.205 235.09 118.921 233.951 118.604L233.83 119.041L233.586 119.916L233.465 120.353ZM240.645 121.889C241.847 122.071 243.063 122.217 244.287 122.327L244.327 121.875L244.408 120.971L244.448 120.519C243.26 120.412 242.081 120.27 240.915 120.093L240.848 120.542L240.712 121.44L240.645 121.889ZM247.949 122.546C248.561 122.564 249.174 122.573 249.789 122.573V122.119V121.211V120.757C249.192 120.757 248.597 120.748 248.004 120.731L247.989 121.185L247.964 122.092L247.949 122.546ZM258.635 3.38793C257.467 3.21155 256.29 3.06944 255.1 2.96263L255.142 2.51047L255.221 1.60617L255.263 1.15401C256.488 1.26409 257.703 1.41057 258.906 1.59237L258.838 2.04126L258.702 2.93904L258.635 3.38793ZM265.599 4.87764C264.458 4.56028 263.306 4.27631 262.14 4.02688L262.234 3.58292L262.423 2.69502L262.519 2.25105C263.72 2.50822 264.91 2.80098 266.085 3.12819L265.964 3.56556L265.721 4.44028L265.599 4.87764ZM272.327 7.20172C271.233 6.74784 270.123 6.32597 268.998 5.93724L269.145 5.50809L269.443 4.6498L269.59 4.22065C270.751 4.62144 271.895 5.0564 273.022 5.52432L272.848 5.94368L272.501 6.78238L272.327 7.20172ZM278.727 10.3263C277.695 9.74246 276.642 9.18882 275.574 8.66663L275.772 8.25861L276.169 7.44258L276.369 7.03455C277.471 7.57289 278.554 8.14361 279.619 8.74549L279.396 9.1407L278.95 9.93113L278.727 10.3263ZM284.702 14.2015C283.746 13.497 282.77 12.8206 281.772 12.1737L282.019 11.7927L282.512 11.0307L282.759 10.6497C283.786 11.3165 284.793 12.0136 285.778 12.7397L285.509 13.1051L284.97 13.836L284.702 14.2015ZM290.169 18.7677C289.304 17.953 288.415 17.1641 287.503 16.4022L287.795 16.0537L288.375 15.3565L288.665 15.0079C289.605 15.7931 290.521 16.6061 291.412 17.4457L291.101 17.7762L290.479 18.4372L290.169 18.7677ZM295.05 23.9572C294.289 23.044 293.501 22.1542 292.687 21.2891L293.017 20.9778L293.677 20.3553L294.007 20.0441C294.847 20.9357 295.658 21.8527 296.444 22.7939L296.095 23.0846L295.399 23.6664L295.05 23.9572ZM299.275 29.6947C298.628 28.6961 297.953 27.7183 297.249 26.7624L297.614 26.4931L298.345 25.9545L298.709 25.685C299.435 26.6703 300.131 27.6781 300.797 28.7074L300.416 28.9542L299.654 29.4479L299.275 29.6947ZM302.778 35.9C302.255 34.8295 301.702 33.7772 301.12 32.7441L301.514 32.5208L302.304 32.0741L302.698 31.8507C303.3 32.9156 303.87 34.0004 304.409 35.1039L304 35.3029L303.186 35.701L302.778 35.9ZM305.504 42.4823C305.116 41.3557 304.695 40.2445 304.242 39.1499L304.659 38.9761L305.497 38.6282L305.916 38.4544C306.384 39.5828 306.819 40.7283 307.218 41.8899L306.79 42.0379L305.932 42.3341L305.504 42.4823ZM307.413 49.3485C307.164 48.1811 306.879 47.0264 306.562 45.8858L306.999 45.7641L307.873 45.5206L308.31 45.399C308.637 46.5751 308.929 47.7654 309.187 48.969L308.742 49.064L307.855 49.2536L307.413 49.3485ZM308.476 56.395C308.368 55.205 308.227 54.0254 308.051 52.857L308.499 52.7893L309.395 52.6538L309.845 52.5861C310.026 53.7904 310.172 55.0063 310.282 56.2326L309.831 56.2731L308.927 56.3545L308.476 56.395ZM308.713 61.7406C308.713 61.1426 308.706 60.5468 308.688 59.9532L309.141 59.9398L310.048 59.9127L310.5 59.8993C310.518 60.5109 310.527 61.1246 310.527 61.7406H310.074H309.167H308.713Z" fill="url(#paint27_linear_284_7503)"/>
<path fill-rule="evenodd" clip-rule="evenodd" d="M32.1417 362.301C32.1241 362.895 32.1152 363.49 32.1152 364.088C32.1152 364.685 32.1241 365.281 32.1417 365.875L31.6884 365.889L30.7818 365.916L30.3287 365.929C30.3103 365.317 30.3013 364.703 30.3013 364.088C30.3013 363.472 30.3103 362.858 30.3285 362.247L30.7818 362.259L31.6884 362.286L32.1417 362.301ZM32.7786 355.204C32.6025 356.372 32.4604 357.552 32.3538 358.742L31.9021 358.702L30.9987 358.62L30.5471 358.58C30.657 357.353 30.8034 356.138 30.9849 354.934L31.4334 355.001L32.3302 355.137L32.7786 355.204ZM34.2668 348.233C33.9497 349.374 33.666 350.529 33.4167 351.696L32.9734 351.602L32.0864 351.411L31.6429 351.317C31.8997 350.113 32.1923 348.921 32.5192 347.747L32.956 347.868L33.8298 348.112L34.2668 348.233ZM36.5883 341.498C36.1349 342.591 35.7134 343.703 35.3252 344.83L34.8964 344.681L34.0391 344.385L33.6105 344.236C34.0108 343.076 34.4452 341.93 34.9127 340.801L35.3315 340.975L36.1694 341.324L36.5883 341.498ZM39.7095 335.092C39.1263 336.125 38.5733 337.176 38.0516 338.248L37.644 338.048L36.8288 337.65L36.4214 337.45C36.959 336.348 37.5291 335.262 38.1303 334.198L38.5252 334.421L39.3148 334.868L39.7095 335.092ZM43.5805 329.11C42.8767 330.065 42.2012 331.044 41.5549 332.043L41.1743 331.796L40.4132 331.302L40.0326 331.055C40.6987 330.025 41.395 329.017 42.1203 328.033L42.4854 328.302L43.2155 328.841L43.5805 329.11ZM48.1419 323.637C47.3279 324.501 46.54 325.391 45.779 326.304L45.4307 326.014L44.7344 325.433L44.3861 325.14C45.1704 324.2 45.9825 323.283 46.8213 322.391L47.1514 322.704L47.8117 323.325L48.1419 323.637ZM53.3258 318.75C52.4135 319.511 51.5247 320.301 50.6605 321.115L50.3496 320.784L49.7278 320.123L49.4169 319.793C50.3075 318.954 51.2236 318.14 52.1638 317.356L52.4542 317.704L53.0352 318.402L53.3258 318.75ZM59.0571 314.521C58.0597 315.168 57.0828 315.845 56.128 316.549L55.859 316.183L55.3209 315.453L55.0518 315.088C56.036 314.361 57.0428 313.664 58.0709 312.998L58.3174 313.377L58.8106 314.14L59.0571 314.521ZM65.2558 311.015C64.1865 311.536 63.1353 312.09 62.1033 312.674L61.8802 312.278L61.434 311.489L61.2107 311.093C62.2746 310.492 63.3582 309.92 64.4606 309.382L64.6594 309.791L65.057 310.606L65.2558 311.015ZM71.8308 308.285C70.7054 308.674 69.5957 309.095 68.5022 309.549L68.3286 309.13L67.9811 308.291L67.8075 307.871C68.9347 307.405 70.0789 306.969 71.2393 306.567L71.3871 306.998L71.683 307.855L71.8308 308.285ZM78.6899 306.375C77.5237 306.624 76.3702 306.907 75.2309 307.225L75.1092 306.787L74.8661 305.914L74.7446 305.476C75.9195 305.147 77.1085 304.855 78.3108 304.599L78.4055 305.042L78.5951 305.93L78.6899 306.375ZM85.7288 305.309C84.5401 305.416 83.3618 305.56 82.1947 305.736L82.127 305.285L81.9917 304.388L81.9238 303.94C83.127 303.758 84.3417 303.611 85.5666 303.5L85.6071 303.953L85.6882 304.857L85.7288 305.309ZM91.0687 305.071C90.4714 305.071 89.8762 305.08 89.2832 305.098L89.2698 304.644L89.2428 303.736L89.2294 303.282C89.8403 303.264 90.4534 303.255 91.0687 303.255V303.709V304.617V305.071ZM30.5471 369.595C30.657 370.823 30.8034 372.038 30.9849 373.242L31.4334 373.175L32.3302 373.038L32.7786 372.971C32.6025 371.804 32.4604 370.623 32.3538 369.434L31.9021 369.474L30.9987 369.556L30.5471 369.595ZM31.6429 376.859C31.8997 378.063 32.1923 379.254 32.5192 380.429L32.956 380.307L33.8298 380.064L34.2668 379.942C33.9497 378.802 33.666 377.647 33.4169 376.48L32.9734 376.574L32.0864 376.765L31.6429 376.859ZM33.6105 383.939C34.0108 385.1 34.4452 386.245 34.9127 387.375L35.3315 387.201L36.1694 386.852L36.5883 386.678C36.1349 385.584 35.7134 384.473 35.3252 383.345L34.8964 383.494L34.0391 383.79L33.6105 383.939ZM36.4214 390.725C36.959 391.828 37.5292 392.913 38.1305 393.978L38.5252 393.754L39.3148 393.308L39.7095 393.084C39.1263 392.051 38.5733 390.999 38.0516 389.928L37.644 390.128L36.829 390.526L36.4214 390.725ZM40.0326 397.121C40.6987 398.15 41.395 399.158 42.1203 400.143L42.4854 399.874L43.2155 399.334L43.5805 399.066C42.8769 398.111 42.2012 397.132 41.5549 396.133L41.1743 396.38L40.4132 396.874L40.0326 397.121ZM44.3861 403.035C45.1704 403.976 45.9825 404.893 46.8213 405.785L47.1514 405.472L47.8117 404.851L48.1419 404.539C47.3279 403.674 46.54 402.785 45.779 401.871L45.4307 402.162L44.7344 402.743L44.3861 403.035ZM49.4169 408.383C50.3075 409.222 51.2236 410.036 52.1638 410.82L52.4542 410.471L53.0352 409.774L53.3258 409.425C52.4135 408.665 51.5247 407.875 50.6605 407.061L50.3496 407.392L49.7278 408.053L49.4169 408.383ZM55.0518 413.088C56.036 413.814 57.0428 414.512 58.0709 415.178L58.3174 414.799L58.8106 414.036L59.0571 413.655C58.0597 413.008 57.0828 412.331 56.128 411.626L55.859 411.993L55.3209 412.723L55.0518 413.088ZM61.2109 417.083C62.2746 417.684 63.3582 418.256 64.4606 418.794L64.6594 418.385L65.057 417.57L65.2558 417.161C64.1865 416.64 63.1353 416.086 62.1033 415.501L61.8802 415.897L61.434 416.687L61.2109 417.083ZM67.8075 420.304C68.9347 420.771 70.0789 421.207 71.2393 421.608L71.3871 421.178L71.683 420.321L71.8308 419.89C70.7056 419.502 69.5957 419.081 68.5022 418.627L68.3286 419.046L67.9811 419.885L67.8075 420.304ZM74.7446 422.7C75.9195 423.028 77.1085 423.321 78.3108 423.577L78.4057 423.134L78.5951 422.246L78.6899 421.801C77.5237 421.552 76.3702 421.269 75.2309 420.951L75.1094 421.389L74.8661 422.262L74.7446 422.7ZM81.924 424.236C83.127 424.417 84.3417 424.565 85.5666 424.675L85.6071 424.223L85.6882 423.319L85.7288 422.867C84.5401 422.76 83.3618 422.616 82.1947 422.44L82.127 422.89L81.9917 423.787L81.924 424.236ZM89.2294 424.893C89.8403 424.911 90.4534 424.92 91.0687 424.92C91.684 424.92 92.2971 424.911 92.9081 424.893L92.8946 424.439L92.8676 423.531L92.8542 423.077C92.2612 423.096 91.666 423.105 91.0687 423.105C90.4714 423.105 89.8762 423.096 89.2832 423.077L89.2698 423.531L89.2428 424.439L89.2294 424.893ZM96.5708 424.675C97.7958 424.565 99.0104 424.417 100.213 424.236L100.146 423.787L100.01 422.89L99.9427 422.44C98.7757 422.616 97.5973 422.76 96.4086 422.867L96.4491 423.319L96.5303 424.223L96.5708 424.675ZM103.827 423.577C105.029 423.321 106.218 423.028 107.393 422.7L107.271 422.262L107.028 421.389L106.907 420.951C105.767 421.269 104.614 421.552 103.447 421.801L103.542 422.246L103.732 423.134L103.827 423.577ZM110.898 421.608C112.059 421.207 113.203 420.771 114.33 420.304L114.156 419.885L113.809 419.046L113.635 418.627C112.542 419.081 111.432 419.502 110.306 419.89L110.454 420.321L110.75 421.178L110.898 421.608ZM117.677 418.794C118.779 418.256 119.863 417.684 120.927 417.083L120.703 416.687L120.257 415.897L120.034 415.501C119.002 416.086 117.951 416.64 116.882 417.161L117.08 417.57L117.478 418.385L117.677 418.794ZM124.067 415.178C125.095 414.512 126.101 413.814 127.086 413.088L126.816 412.723L126.278 411.993L126.009 411.626C125.055 412.331 124.078 413.008 123.08 413.655L123.327 414.036L123.82 414.799L124.067 415.178ZM129.974 410.82C130.914 410.036 131.83 409.222 132.721 408.383L132.41 408.053L131.788 407.392L131.477 407.061C130.613 407.875 129.724 408.665 128.812 409.425L129.102 409.774L129.683 410.471L129.974 410.82ZM135.316 405.785C136.155 404.893 136.967 403.976 137.751 403.035L137.403 402.743L136.707 402.162L136.358 401.871C135.597 402.785 134.809 403.674 133.996 404.539L134.326 404.851L134.986 405.472L135.316 405.785ZM140.017 400.143C140.742 399.158 141.439 398.15 142.105 397.121L141.724 396.874L140.963 396.38L140.583 396.133C139.936 397.132 139.261 398.111 138.557 399.066L138.922 399.334L139.652 399.874L140.017 400.143ZM144.007 393.978C144.608 392.913 145.178 391.828 145.716 390.725L145.308 390.526L144.493 390.128L144.086 389.928C143.564 390.999 143.011 392.051 142.428 393.084L142.823 393.308L143.612 393.754L144.007 393.978ZM147.225 387.375C147.692 386.245 148.127 385.1 148.527 383.939L148.098 383.79L147.241 383.494L146.812 383.345C146.424 384.473 146.002 385.584 145.549 386.678L145.968 386.852L146.806 387.201L147.225 387.375ZM149.618 380.429C149.945 379.254 150.238 378.063 150.495 376.859L150.051 376.765L149.164 376.574L148.721 376.48C148.471 377.647 148.188 378.802 147.871 379.942L148.308 380.064L149.181 380.307L149.618 380.429ZM151.152 373.242C151.334 372.038 151.48 370.823 151.59 369.595L151.139 369.556L150.235 369.474L149.784 369.434C149.677 370.623 149.535 371.804 149.359 372.971L149.807 373.038L150.704 373.175L151.152 373.242ZM151.809 365.929C151.827 365.317 151.836 364.703 151.836 364.088H151.383H150.476H150.022C150.022 364.685 150.013 365.281 149.996 365.875L150.449 365.889L151.356 365.916L151.809 365.929Z" fill="url(#paint28_linear_284_7503)"/>
<path d="M150.928 364.088C150.928 330.993 177.729 304.163 210.789 304.163" stroke="white" stroke-width="0.388787" stroke-dasharray="1.56 1.56"/>
<path d="M270.649 244.238C270.649 277.333 243.848 304.163 210.789 304.163" stroke="white" stroke-width="0.388787" stroke-dasharray="1.56 1.56"/>
<path fill-rule="evenodd" clip-rule="evenodd" d="M12.1735 130.059C12.1548 130.088 12.1361 130.117 12.1174 130.146L12.499 130.391L13.262 130.882L13.6436 131.127C13.9642 130.627 14.2933 130.131 14.631 129.638L14.4997 129.548C14.5209 129.516 14.5422 129.484 14.5634 129.453L14.187 129.199L13.4341 128.693L13.0577 128.44C12.7169 128.948 12.3825 129.462 12.0547 129.984L12.1735 130.059ZM18.8787 123.787C18.1078 124.682 17.3599 125.604 16.6364 126.554L16.2758 126.279L15.5545 125.729L15.1938 125.453C15.9395 124.474 16.7104 123.523 17.505 122.601L17.8484 122.897L18.5353 123.49L18.8787 123.787ZM23.848 118.681C22.9726 119.477 22.1181 120.303 21.286 121.158L20.9611 120.841L20.3116 120.208L19.9867 119.891C20.8445 119.009 21.7255 118.158 22.628 117.337L22.9331 117.673L23.5429 118.345L23.848 118.681ZM29.3973 114.218C28.431 114.903 27.483 115.619 26.555 116.365L26.2709 116.011L25.703 115.303L25.4189 114.949C26.376 114.18 27.3533 113.442 28.3494 112.736L28.6113 113.107L29.1352 113.848L29.3973 114.218ZM35.4475 110.462C34.4043 111.025 33.3762 111.621 32.3651 112.249L32.126 111.863L31.648 111.091L31.409 110.705C32.4514 110.058 33.5111 109.444 34.5866 108.864L34.802 109.263L35.2324 110.062L35.4475 110.462ZM41.9068 107.464C40.8025 107.898 39.7105 108.365 38.6321 108.866L38.4413 108.454L38.0598 107.63L37.8692 107.218C38.9806 106.702 40.1063 106.221 41.2444 105.774L41.41 106.196L41.7412 107.042L41.9068 107.464ZM48.6798 105.265C47.5306 105.563 46.3902 105.896 45.2601 106.263L45.1203 105.831L44.8404 104.967L44.7005 104.535C45.8651 104.157 47.0403 103.814 48.2247 103.507L48.3384 103.946L48.5661 104.825L48.6798 105.265ZM55.6673 103.894C54.4901 104.052 53.3179 104.246 52.153 104.474L52.0657 104.029L51.8912 103.138L51.804 102.692C53.0046 102.457 54.2125 102.257 55.4259 102.094L55.4863 102.544L55.6071 103.444L55.6673 103.894ZM62.768 103.372C61.5795 103.387 60.393 103.439 59.21 103.526L59.1768 103.073L59.1104 102.167L59.0772 101.715C60.2963 101.625 61.5193 101.572 62.7445 101.556L62.7503 102.01L62.7621 102.918L62.768 103.372ZM69.8802 103.71C68.6973 103.581 67.513 103.489 66.329 103.433L66.3504 102.979L66.3934 102.073L66.415 101.619C67.6354 101.677 68.8562 101.772 70.0757 101.904L70.0268 102.356L69.929 103.258L69.8802 103.71ZM76.8971 104.906C75.7378 104.635 74.574 104.4 73.4071 104.201L73.4832 103.754L73.6356 102.859L73.7118 102.411C74.9146 102.616 76.1146 102.858 77.3098 103.138L77.2066 103.58L77.0001 104.464L76.8971 104.906ZM83.7183 106.948C82.5985 106.537 81.4714 106.162 80.3382 105.823L80.468 105.388L80.7278 104.518L80.8577 104.083C82.0261 104.433 83.1883 104.819 84.3425 105.242L84.1865 105.669L83.8743 106.521L83.7183 106.948ZM90.2415 109.801C89.1788 109.257 88.1059 108.749 87.0244 108.276L87.206 107.86L87.5691 107.028L87.7507 106.612C88.8656 107.1 89.9715 107.623 91.0668 108.184L90.8604 108.588L90.4479 109.397L90.2415 109.801ZM94.8877 112.446C94.3822 112.128 93.8737 111.818 93.3625 111.517L93.5926 111.126L94.0527 110.343L94.2828 109.952C94.8095 110.262 95.3334 110.582 95.854 110.91L95.6124 111.294L95.1293 112.062L94.8877 112.446ZM10.2273 133.294C9.62557 134.368 9.05973 135.454 8.52949 136.55L8.93765 136.748L9.75396 137.143L10.1621 137.341C10.6765 136.278 11.2255 135.224 11.8093 134.182L11.4138 133.96L10.6228 133.516L10.2273 133.294ZM7.02997 139.906C6.5623 141.044 6.13139 142.192 5.73696 143.347L6.16607 143.494L7.02429 143.787L7.4534 143.934C7.83596 142.814 8.25392 141.701 8.70755 140.597L8.28816 140.424L7.44937 140.079L7.02997 139.906ZM4.65578 146.859C4.33019 148.044 4.04177 149.235 3.79021 150.43L4.23396 150.524L5.12145 150.711L5.5652 150.804C5.80922 149.645 6.08894 148.49 6.40474 147.341L5.9675 147.22L5.09301 146.979L4.65578 146.859ZM3.14288 154.047C2.96336 155.262 2.82111 156.48 2.71581 157.698L3.16761 157.737L4.07121 157.816L4.52301 157.855C4.62517 156.673 4.76316 155.491 4.9373 154.313L4.48871 154.247L3.59149 154.114L3.14288 154.047ZM2.51011 161.368C2.47842 162.594 2.48377 163.819 2.52583 165.042L2.97905 165.026L3.8855 164.995L4.33872 164.98C4.2979 163.793 4.29271 162.604 4.32344 161.415L3.87012 161.403L2.96343 161.379L2.51011 161.368ZM2.76243 168.709C2.87803 169.929 3.03022 171.145 3.21865 172.356L3.66674 172.286L4.56288 172.146L5.01097 172.076C4.8281 170.902 4.68045 169.722 4.56827 168.538L4.11681 168.581L3.21388 168.666L2.76243 168.709ZM3.89265 175.968C4.15329 177.164 4.44987 178.353 4.78205 179.533L5.21852 179.41L6.09148 179.164L6.52796 179.04C6.20565 177.896 5.91787 176.742 5.66497 175.581L5.22189 175.678L4.33572 175.871L3.89265 175.968ZM5.88377 183.039C6.2856 184.194 6.72249 185.34 7.19413 186.471L7.61267 186.297L8.44973 185.946L8.86828 185.772C8.4107 184.673 7.98681 183.564 7.59694 182.442L7.16865 182.591L6.31206 182.888L5.88377 183.039ZM8.70909 189.818C9.24675 190.916 9.81843 192.001 10.4239 193.068L10.8182 192.845L11.607 192.396L12.0014 192.173C11.4142 191.136 10.8596 190.085 10.338 189.019L9.93077 189.219L9.11632 189.618L8.70909 189.818ZM12.332 196.208C12.9976 197.232 13.696 198.238 14.4269 199.226L14.7912 198.955L15.5199 198.414L15.8842 198.144C15.1754 197.187 14.498 196.212 13.8523 195.218L13.4722 195.465L12.7121 195.961L12.332 196.208ZM16.7017 202.11C17.486 203.045 18.3017 203.96 19.1483 204.852L19.4771 204.539L20.1347 203.915L20.4636 203.602C19.6424 202.736 18.8513 201.848 18.0906 200.942L17.7433 201.234L17.0489 201.819L16.7017 202.11ZM21.7569 207.439C22.6467 208.271 23.5658 209.079 24.5143 209.864L24.8029 209.513L25.3805 208.812L25.6692 208.462C24.749 207.703 23.8573 206.918 22.994 206.112L22.6847 206.444L22.0662 207.107L21.7569 207.439ZM27.4121 212.115C27.9058 212.477 28.4065 212.831 28.914 213.179C29.4216 213.528 29.9326 213.866 30.4468 214.198L30.6919 213.815L31.1822 213.052L31.4273 212.669C30.9281 212.348 30.4321 212.019 29.9395 211.681C29.4466 211.343 28.9607 210.998 28.4816 210.648L28.2142 211.015L27.6795 211.748L27.4121 212.115ZM33.5919 216.09C34.6645 216.691 35.7492 217.258 36.8443 217.79L37.0418 217.381L37.4371 216.562L37.6348 216.154C36.5724 215.64 35.5201 215.09 34.4793 214.505L34.2574 214.901L33.8137 215.694L33.5919 216.09ZM40.1967 219.29C41.3336 219.758 42.4799 220.191 43.6337 220.585L43.7805 220.154L44.0738 219.295L44.2205 218.867C43.1013 218.484 41.9896 218.064 40.8867 217.61L40.7142 218.031L40.3692 218.87L40.1967 219.29ZM47.1423 221.667C48.3257 221.994 49.5153 222.282 50.7094 222.533L50.8028 222.09L50.9899 221.2L51.0833 220.757C49.9251 220.512 48.7712 220.232 47.6235 219.916L47.5033 220.354L47.2625 221.229L47.1423 221.667ZM54.323 223.181C55.5364 223.361 56.7526 223.503 57.9699 223.608L58.0089 223.156L58.0871 222.252L58.1263 221.799C56.9452 221.698 55.7655 221.56 54.5886 221.385L54.5222 221.834L54.3894 222.733L54.323 223.181ZM61.6352 223.815C62.86 223.846 64.0841 223.841 65.3058 223.799L65.2902 223.345L65.259 222.439L65.2434 221.985C64.0579 222.025 62.8703 222.03 61.682 221.999L61.6704 222.453L61.647 223.361L61.6352 223.815ZM68.969 223.563C70.1878 223.446 71.4026 223.294 72.6115 223.105L72.5416 222.657L72.4019 221.759L72.3321 221.311C71.159 221.494 69.9803 221.641 68.7978 221.754L68.8406 222.206L68.9262 223.11L68.969 223.563ZM76.2198 222.431C77.4152 222.17 78.6029 221.874 79.7813 221.54L79.6583 221.104L79.4121 220.23L79.2892 219.793C78.1457 220.116 76.9932 220.403 75.8332 220.657L75.9299 221.1L76.1231 221.986L76.2198 222.431ZM83.2828 220.437C84.4373 220.036 85.5809 219.599 86.7117 219.126L86.537 218.707L86.1878 217.868L86.0133 217.45C84.9162 217.908 83.8068 218.333 82.6867 218.723L82.8356 219.152L83.1338 220.009L83.2828 220.437ZM90.0555 217.61C91.1528 217.071 92.2357 216.499 93.3023 215.892L93.0785 215.498L92.6308 214.708L92.4069 214.312C91.3723 214.901 90.3218 215.456 89.2574 215.979L89.4569 216.386L89.856 217.202L90.0555 217.61ZM96.4386 213.982C97.4613 213.316 98.4666 212.616 99.4527 211.885L99.1828 211.521L98.6428 210.791L98.3727 210.426C97.4162 211.136 96.4412 211.814 95.4491 212.46L95.6965 212.842L96.1912 213.602L96.4386 213.982ZM102.334 209.607C103.268 208.823 104.182 208.006 105.073 207.16L104.761 206.829L104.136 206.172L103.824 205.841C102.959 206.664 102.073 207.456 101.168 208.218L101.459 208.565L102.043 209.261L102.334 209.607ZM107.658 204.548C108.488 203.657 109.295 202.736 110.078 201.786L109.729 201.498L109.029 200.92L108.68 200.631C107.92 201.552 107.137 202.446 106.332 203.308L106.663 203.619L107.326 204.238L107.658 204.548ZM112.329 198.886C112.689 198.392 113.043 197.891 113.391 197.383L113.017 197.127L112.269 196.613L111.895 196.357C111.557 196.849 111.213 197.336 110.864 197.815L111.23 198.084L111.963 198.618L112.329 198.886Z" fill="url(#paint29_linear_284_7503)"/>
<path fill-rule="evenodd" clip-rule="evenodd" d="M616.55 259.022C616.55 259.031 616.55 259.04 616.55 259.049H617.004H617.482L617.883 259.062L618.337 259.074C618.337 259.067 618.337 259.058 618.337 259.049H618.364C618.364 258.746 618.362 258.444 618.357 258.141C618.362 257.84 618.364 257.536 618.364 257.233H618.337C618.337 257.226 618.337 257.217 618.337 257.208L617.883 257.222L617.482 257.233H617.004H616.55C616.55 257.242 616.55 257.251 616.55 257.262H616.523C616.532 257.554 616.539 257.849 616.543 258.141C616.539 258.435 616.532 258.728 616.523 259.022H616.55ZM615.886 250.166C616.062 251.335 616.205 252.514 616.312 253.703L616.764 253.663L617.667 253.581L618.119 253.541C618.008 252.316 617.861 251.099 617.68 249.895L617.232 249.962L616.336 250.098L615.886 250.166ZM614.399 243.194C614.716 244.335 614.999 245.49 615.249 246.657L615.692 246.563L616.579 246.372L617.022 246.278C616.766 245.074 616.474 243.884 616.146 242.708L615.71 242.829L614.836 243.073L614.399 243.194ZM612.077 236.459C612.53 237.554 612.951 238.664 613.339 239.791L613.769 239.642L614.625 239.346L615.055 239.199C614.654 238.037 614.221 236.891 613.753 235.764L613.334 235.936L612.496 236.285L612.077 236.459ZM608.955 230.053C609.539 231.086 610.092 232.139 610.613 233.209L611.021 233.009L611.837 232.611L612.244 232.413C611.707 231.309 611.135 230.225 610.535 229.159L610.14 229.383L609.35 229.829L608.955 230.053ZM605.084 224.071C605.788 225.026 606.464 226.005 607.11 227.004L607.491 226.757L608.253 226.263L608.632 226.016C607.966 224.986 607.27 223.979 606.544 222.994L606.18 223.263L605.45 223.802L605.084 224.071ZM600.524 218.598C601.338 219.462 602.125 220.352 602.885 221.266L603.234 220.975L603.93 220.394L604.279 220.103C603.495 219.161 602.682 218.244 601.844 217.352L601.514 217.665L600.854 218.287L600.524 218.598ZM595.339 213.711C596.252 214.472 597.141 215.262 598.004 216.076L598.316 215.745L598.938 215.084L599.249 214.754C598.358 213.915 597.442 213.101 596.502 212.317L596.212 212.665L595.63 213.363L595.339 213.711ZM589.607 209.482C590.605 210.129 591.583 210.806 592.537 211.511L592.807 211.146L593.344 210.414L593.614 210.049C592.629 209.322 591.623 208.625 590.594 207.959L590.347 208.34L589.854 209.101L589.607 209.482ZM583.409 205.976C584.479 206.497 585.53 207.051 586.562 207.635L586.785 207.24L587.231 206.45L587.454 206.054C586.391 205.453 585.307 204.882 584.205 204.343L584.006 204.752L583.609 205.567L583.409 205.976ZM576.835 203.246C577.96 203.635 579.07 204.056 580.164 204.51L580.336 204.091L580.685 203.252L580.859 202.832C579.73 202.366 578.586 201.93 577.427 201.53L577.278 201.959L576.982 202.818L576.835 203.246ZM569.975 201.336C571.141 201.585 572.295 201.87 573.434 202.186L573.556 201.748L573.799 200.875L573.92 200.437C572.747 200.11 571.557 199.816 570.354 199.56L570.26 200.003L570.071 200.891L569.975 201.336ZM562.937 200.272C564.125 200.379 565.304 200.521 566.47 200.697L566.537 200.248L566.674 199.349L566.741 198.901C565.538 198.719 564.324 198.572 563.098 198.463L563.058 198.915L562.977 199.82L562.937 200.272ZM557.597 200.032C558.193 200.032 558.788 200.041 559.381 200.059L559.396 199.605L559.423 198.698L559.436 198.244C558.825 198.225 558.211 198.216 557.597 198.216V198.67V199.578V200.032ZM618.119 262.741C618.008 263.968 617.861 265.183 617.68 266.389L617.232 266.32L616.336 266.185L615.886 266.116C616.062 264.949 616.205 263.769 616.312 262.579L616.764 262.619L617.667 262.701L618.119 262.741ZM617.022 270.004C616.766 271.208 616.474 272.399 616.146 273.574L615.71 273.453L614.836 273.209L614.399 273.088C614.716 271.947 614.999 270.792 615.249 269.625L615.692 269.721L616.579 269.91L617.022 270.004ZM615.055 277.084C614.654 278.247 614.221 279.391 613.753 280.52L613.334 280.346L612.496 279.997L612.077 279.825C612.53 278.73 612.951 277.618 613.339 276.492L613.769 276.64L614.625 276.936L615.055 277.084ZM612.244 283.87C611.707 284.975 611.135 286.059 610.535 287.123L610.14 286.899L609.35 286.453L608.955 286.229C609.539 285.196 610.092 284.145 610.613 283.073L611.021 283.273L611.837 283.671L612.244 283.87ZM608.632 290.266C607.966 291.296 607.27 292.304 606.544 293.29L606.18 293.019L605.45 292.481L605.084 292.211C605.788 291.256 606.464 290.279 607.11 289.28L607.491 289.527L608.253 290.019L608.632 290.266ZM604.279 296.18C603.495 297.121 602.682 298.038 601.844 298.93L601.514 298.619L600.854 297.996L600.524 297.686C601.338 296.82 602.125 295.93 602.885 295.016L603.234 295.307L603.93 295.89L604.279 296.18ZM599.249 301.528C598.358 302.367 597.442 303.181 596.502 303.967L596.212 303.618L595.63 302.921L595.339 302.572C596.252 301.81 597.141 301.022 598.004 300.206L598.316 300.537L598.938 301.198L599.249 301.528ZM593.614 306.235C592.629 306.96 591.623 307.657 590.594 308.325L590.347 307.944L589.854 307.181L589.607 306.8C590.605 306.153 591.583 305.478 592.537 304.773L592.807 305.138L593.344 305.868L593.614 306.235ZM587.454 310.228C586.391 310.831 585.307 311.401 584.205 311.939L584.006 311.532L583.609 310.715L583.409 310.308C584.479 309.785 585.53 309.231 586.562 308.648L586.785 309.042L587.231 309.834L587.454 310.228ZM580.859 313.45C579.73 313.918 578.586 314.352 577.427 314.754L577.278 314.325L576.982 313.466L576.835 313.037C577.96 312.649 579.07 312.226 580.164 311.772L580.336 312.191L580.685 313.03L580.859 313.45ZM573.92 315.847C572.747 316.174 571.557 316.466 570.354 316.724L570.26 316.279L570.071 315.391L569.975 314.948C571.141 314.697 572.295 314.414 573.434 314.096L573.556 314.534L573.799 315.409L573.92 315.847ZM566.741 317.381C565.538 317.563 564.324 317.71 563.098 317.821L563.058 317.368L562.977 316.464L562.937 316.012C564.125 315.905 565.304 315.763 566.47 315.587L566.537 316.036L566.674 316.933L566.741 317.381ZM559.436 318.038C558.825 318.057 558.211 318.066 557.597 318.066C556.982 318.066 556.368 318.057 555.757 318.038L555.77 317.585L555.797 316.678L555.812 316.224C556.405 316.241 557 316.25 557.597 316.25C558.193 316.25 558.788 316.241 559.381 316.224L559.396 316.678L559.423 317.585L559.436 318.038ZM552.095 317.821C550.87 317.71 549.655 317.563 548.452 317.381L548.52 316.933L548.656 316.036L548.723 315.587C549.889 315.763 551.068 315.905 552.256 316.012L552.216 316.464L552.135 317.368L552.095 317.821ZM544.839 316.724C543.636 316.466 542.448 316.174 541.273 315.847L541.394 315.409L541.637 314.534L541.759 314.096C542.898 314.414 544.052 314.697 545.218 314.948L545.124 315.391L544.933 316.279L544.839 316.724ZM537.766 314.754C536.607 314.352 535.463 313.918 534.336 313.45L534.509 313.03L534.857 312.191L535.031 311.772C536.123 312.226 537.233 312.649 538.36 313.037L538.211 313.466L537.915 314.325L537.766 314.754ZM530.988 311.939C529.887 311.401 528.802 310.831 527.739 310.228L527.962 309.834L528.408 309.042L528.631 308.648C529.663 309.231 530.714 309.785 531.784 310.308L531.584 310.715L531.187 311.532L530.988 311.939ZM524.599 308.325C523.57 307.657 522.564 306.96 521.58 306.235L521.849 305.868L522.388 305.138L522.656 304.773C523.61 305.478 524.588 306.153 525.586 306.8L525.339 307.181L524.846 307.944L524.599 308.325ZM518.691 303.967C517.751 303.181 516.835 302.367 515.945 301.528L516.257 301.198L516.877 300.537L517.189 300.206C518.052 301.022 518.941 301.81 519.854 302.572L519.563 302.921L518.983 303.618L518.691 303.967ZM513.349 298.93C512.511 298.038 511.698 297.121 510.914 296.18L511.263 295.89L511.959 295.307L512.308 295.016C513.068 295.93 513.857 296.82 514.669 297.686L514.339 297.996L513.679 298.619L513.349 298.93ZM508.649 293.29C507.923 292.304 507.227 291.296 506.561 290.266L506.942 290.019L507.702 289.527L508.083 289.28C508.729 290.279 509.405 291.256 510.109 292.211L509.743 292.481L509.013 293.019L508.649 293.29ZM504.658 287.123C504.058 286.059 503.486 284.975 502.949 283.87L503.358 283.671L504.172 283.273L504.58 283.073C505.101 284.145 505.654 285.196 506.238 286.229L505.843 286.453L505.054 286.899L504.658 287.123ZM501.44 280.52C500.974 279.391 500.539 278.247 500.138 277.084L500.568 276.936L501.424 276.64L501.854 276.492C502.242 277.618 502.663 278.73 503.116 279.825L502.697 279.997L501.859 280.346L501.44 280.52ZM499.048 273.574C498.721 272.399 498.427 271.208 498.171 270.004L498.614 269.91L499.501 269.721L499.945 269.625C500.194 270.792 500.477 271.947 500.794 273.088L500.357 273.209L499.485 273.453L499.048 273.574ZM497.513 266.389C497.332 265.183 497.185 263.968 497.076 262.741L497.527 262.701L498.431 262.619L498.882 262.579C498.988 263.769 499.131 264.949 499.307 266.116L498.859 266.185L497.961 266.32L497.513 266.389ZM496.856 259.074C496.838 258.462 496.829 257.849 496.829 257.233H497.283H498.19H498.643C498.643 257.832 498.652 258.428 498.67 259.022L498.217 259.034L497.31 259.062L496.856 259.074Z" fill="url(#paint30_linear_284_7503)"/>
<path d="M497.736 259.107C497.736 226.011 470.935 199.182 437.876 199.182C404.814 199.182 379.829 224.195 379.829 257.291" stroke="white" stroke-width="0.388787" stroke-dasharray="1.56 1.56"/>
<path fill-rule="evenodd" clip-rule="evenodd" d="M611.194 81.6741C611.35 81.9356 611.504 82.1985 611.656 82.4633L612.05 82.2363L612.835 81.7823L613.227 81.5553C612.92 81.022 612.605 80.495 612.284 79.9744L611.899 80.213L611.594 80.401C611.413 80.1269 611.23 79.854 611.043 79.582L610.669 79.8386L609.922 80.3517L609.546 80.6083C609.884 81.1017 610.214 81.5982 610.535 82.0979L610.916 81.8524L611.194 81.6741ZM606.646 75.102C607.381 76.0255 608.093 76.9762 608.781 77.9533L609.151 77.692L609.893 77.1696L610.263 76.9083C609.556 75.9013 608.823 74.9217 608.063 73.9694L607.709 74.2527L607 74.8189L606.646 75.102ZM601.875 69.8095C602.719 70.6387 603.54 71.4967 604.34 72.3829L604.676 72.0789L605.351 71.4705L605.686 71.1664C604.863 70.2526 604.016 69.3681 603.145 68.5132L602.828 68.8373L602.193 69.4854L601.875 69.8095ZM596.5 65.1381C597.438 65.859 598.36 66.6105 599.258 67.3917L599.555 67.0488L600.15 66.3633L600.448 66.0205C599.521 65.215 598.572 64.4403 597.603 63.697L597.328 64.0573L596.776 64.7779L596.5 65.1381ZM590.598 61.153C591.617 61.7557 592.622 62.3901 593.609 63.0562L593.863 62.6798L594.369 61.9271L594.623 61.5507C593.607 60.8641 592.571 60.21 591.518 59.5886L591.287 59.9797L590.828 60.7618L590.598 61.153ZM584.256 57.9101C585.345 58.3857 586.417 58.8944 587.476 59.4357L587.683 59.0314L588.095 58.2228L588.301 57.8186C587.209 57.2606 586.103 56.7363 584.984 56.2462L584.802 56.6622L584.44 57.4941L584.256 57.9101ZM577.574 55.4532C578.709 55.7952 579.838 56.1712 580.951 56.5811L581.109 56.1549L581.421 55.3027L581.577 54.8765C580.429 54.4541 579.266 54.0664 578.094 53.7141L577.964 54.1489L577.704 55.0183L577.574 55.4532ZM570.643 53.8158C571.813 54.019 572.977 54.2573 574.133 54.5304L574.236 54.0886L574.445 53.2048L574.55 52.763C573.358 52.4817 572.159 52.236 570.953 52.0266L570.875 52.4739L570.721 53.3686L570.643 53.8158ZM563.568 53.0225C564.754 53.0835 565.937 53.1803 567.116 53.3125L567.167 52.8614L567.269 51.9591L567.319 51.5078C566.104 51.3716 564.883 51.2719 563.661 51.2091L563.637 51.6624L563.59 52.5692L563.568 53.0225ZM556.447 53.088C557.635 53.005 558.821 52.9584 560.007 52.9475L560.002 52.4935L559.995 51.5855L559.989 51.1316C558.768 51.1428 557.544 51.1909 556.321 51.2765L556.352 51.7294L556.416 52.6351L556.447 53.088ZM549.39 54.0154C550.558 53.7888 551.73 53.5985 552.904 53.4443L552.846 52.9941L552.728 52.094L552.668 51.6438C551.458 51.8029 550.25 51.9988 549.046 52.2325L549.131 52.6783L549.303 53.5696L549.39 54.0154ZM542.495 55.7941C543.631 55.4263 544.772 55.0949 545.917 54.7995L545.804 54.3599L545.577 53.4806L545.463 53.041C544.282 53.3457 543.107 53.6874 541.937 54.0664L542.076 54.4984L542.356 55.3622L542.495 55.7941ZM535.869 58.3957C536.952 57.8932 538.042 57.4264 539.141 56.9951L538.976 56.5724L538.644 55.7271L538.479 55.3045C537.346 55.7492 536.221 56.2304 535.105 56.7481L535.296 57.16L535.677 57.9839L535.869 58.3957ZM531.124 60.8617C531.643 60.5628 532.161 60.2724 532.684 59.991L532.47 59.5913L532.04 58.7917L531.824 58.3921C531.287 58.6821 530.75 58.9812 530.217 59.2891L530.444 59.6823L530.897 60.4686L531.124 60.8617ZM613.951 84.2646C614.553 85.3386 615.119 86.4243 615.649 87.5206L615.24 87.7185L614.424 88.1142L614.016 88.3119C613.501 87.2485 612.953 86.195 612.369 85.153L612.764 84.9309L613.555 84.4867L613.951 84.2646ZM617.149 90.8767C617.615 92.0149 618.047 93.1624 618.44 94.3175L618.012 94.4642L617.154 94.758L616.724 94.9047C616.342 93.7845 615.924 92.6715 615.471 91.5675L615.89 91.3948L616.728 91.0494L617.149 90.8767ZM619.521 97.8298C619.848 99.0145 620.136 100.205 620.388 101.401L619.944 101.494L619.057 101.681L618.613 101.775C618.37 100.616 618.088 99.4605 617.773 98.3114L618.21 98.191L619.084 97.9502L619.521 97.8298ZM621.036 105.018C621.214 106.233 621.357 107.45 621.462 108.669L621.011 108.708L620.107 108.786L619.656 108.825C619.552 107.643 619.414 106.462 619.24 105.284L619.69 105.217L620.586 105.084L621.036 105.018ZM621.667 112.338C621.7 113.564 621.694 114.79 621.653 116.013L621.199 115.997L620.292 115.966L619.839 115.95C619.881 114.764 619.886 113.575 619.855 112.385L620.309 112.373L621.214 112.35L621.667 112.338ZM621.415 119.68C621.301 120.9 621.149 122.116 620.96 123.326L620.512 123.256L619.616 123.116L619.168 123.046C619.349 121.872 619.498 120.692 619.61 119.508L620.062 119.551L620.963 119.637L621.415 119.68ZM620.285 126.938C620.026 128.135 619.728 129.324 619.396 130.504L618.959 130.381L618.087 130.134L617.649 130.011C617.972 128.866 618.261 127.713 618.513 126.552L618.955 126.648L619.842 126.842L620.285 126.938ZM618.295 134.009C617.892 135.165 617.455 136.31 616.984 137.441L616.565 137.267L615.728 136.917L615.309 136.742C615.767 135.644 616.191 134.534 616.581 133.412L617.009 133.561L617.865 133.86L618.295 134.009ZM615.469 140.789C614.932 141.888 614.359 142.971 613.755 144.039L613.359 143.815L612.57 143.367L612.177 143.143C612.764 142.107 613.318 141.056 613.84 139.99L614.246 140.19L615.061 140.589L615.469 140.789ZM611.847 147.179C611.181 148.203 610.482 149.209 609.751 150.196L609.387 149.926L608.658 149.385L608.293 149.115C609.002 148.158 609.681 147.182 610.326 146.188L610.706 146.436L611.466 146.931L611.847 147.179ZM607.477 153.081C606.691 154.016 605.877 154.93 605.03 155.823L604.701 155.51L604.043 154.885L603.715 154.572C604.536 153.706 605.327 152.82 606.087 151.913L606.436 152.205L607.128 152.789L607.477 153.081ZM602.421 158.41C601.531 159.241 600.613 160.049 599.664 160.833L599.376 160.483L598.797 159.783L598.509 159.433C599.428 158.672 600.321 157.888 601.184 157.082L601.493 157.414L602.111 158.078L602.421 158.41ZM596.765 163.086C596.272 163.447 595.771 163.801 595.263 164.15C594.757 164.498 594.246 164.837 593.731 165.168L593.486 164.786L592.996 164.022L592.751 163.64C593.25 163.319 593.745 162.99 594.238 162.652C594.732 162.314 595.218 161.97 595.697 161.619L595.964 161.986L596.499 162.719L596.765 163.086ZM590.587 167.06C589.513 167.662 588.428 168.229 587.335 168.76L587.137 168.351L586.741 167.534L586.544 167.125C587.605 166.61 588.659 166.061 589.698 165.476L589.921 165.872L590.364 166.664L590.587 167.06ZM583.981 170.261C582.845 170.729 581.699 171.16 580.545 171.555L580.398 171.126L580.104 170.267L579.957 169.837C581.076 169.454 582.188 169.036 583.291 168.581L583.464 169.001L583.808 169.841L583.981 170.261ZM577.035 172.638C575.852 172.964 574.662 173.252 573.469 173.504L573.374 173.06L573.188 172.171L573.095 171.727C574.252 171.483 575.406 171.203 576.554 170.887L576.674 171.324L576.915 172.2L577.035 172.638ZM569.855 174.152C568.642 174.332 567.425 174.474 566.208 174.579L566.169 174.127L566.091 173.223L566.051 172.771C567.232 172.668 568.413 172.53 569.589 172.356L569.656 172.805L569.788 173.703L569.855 174.152ZM562.543 174.785C561.319 174.817 560.094 174.812 558.872 174.77L558.888 174.316L558.919 173.409L558.935 172.955C560.12 172.996 561.308 173.001 562.496 172.97L562.507 173.424L562.531 174.332L562.543 174.785ZM555.209 174.533C553.99 174.417 552.775 174.265 551.567 174.076L551.636 173.628L551.776 172.731L551.846 172.282C553.018 172.465 554.197 172.613 555.38 172.725L555.338 173.177L555.251 174.081L555.209 174.533ZM547.959 173.402C546.764 173.141 545.576 172.844 544.396 172.511L544.52 172.074L544.767 171.2L544.888 170.763C546.033 171.086 547.185 171.374 548.345 171.627L548.248 172.071L548.055 172.958L547.959 173.402ZM540.896 171.408C539.74 171.006 538.597 170.569 537.467 170.096L537.641 169.677L537.99 168.839L538.166 168.421C539.261 168.879 540.371 169.303 541.491 169.693L541.342 170.122L541.044 170.979L540.896 171.408ZM534.122 168.58C533.025 168.042 531.942 167.469 530.875 166.863L531.1 166.468L531.546 165.679L531.771 165.284C532.805 165.872 533.856 166.427 534.92 166.949L534.721 167.357L534.322 168.172L534.122 168.58ZM527.739 164.953C526.716 164.287 525.711 163.587 524.726 162.856L524.994 162.491L525.535 161.762L525.805 161.397C526.761 162.107 527.737 162.785 528.729 163.431L528.481 163.812L527.987 164.573L527.739 164.953ZM521.844 160.579C520.909 159.794 519.997 158.977 519.105 158.129L519.417 157.8L520.042 157.142L520.354 156.813C521.22 157.635 522.105 158.427 523.01 159.188L522.718 159.536L522.136 160.231L521.844 160.579ZM516.52 155.518C515.691 154.627 514.883 153.707 514.1 152.758L514.45 152.469L515.148 151.891L515.498 151.601C516.258 152.523 517.042 153.416 517.846 154.28L517.516 154.589L516.852 155.209L516.52 155.518ZM511.849 149.857C511.49 149.362 511.134 148.861 510.788 148.353L511.161 148.097L511.909 147.583L512.284 147.327C512.621 147.82 512.964 148.307 513.314 148.786L512.948 149.054L512.215 149.589L511.849 149.857Z" fill="url(#paint31_linear_284_7503)"/>
<path d="M205.142 249.165C205.142 272.706 186.077 291.791 162.562 291.791C139.047 291.791 119.983 272.706 119.983 249.165" stroke="url(#paint32_linear_284_7503)" stroke-width="0.388787" stroke-dasharray="1.56 1.56"/>
<path d="M392.077 369.014C392.077 392.556 411.14 411.641 434.656 411.641C458.172 411.641 477.235 392.556 477.235 369.014" stroke="url(#paint33_linear_284_7503)" stroke-width="0.388787" stroke-dasharray="1.56 1.56"/>
<path d="M297.653 370.83C297.653 394.372 278.589 413.457 255.075 413.457C231.558 413.457 212.496 394.372 212.496 370.83" stroke="url(#paint34_linear_284_7503)" stroke-width="0.388787" stroke-dasharray="1.56 1.56"/>
<path d="M372.124 50.275C372.124 26.734 391.186 7.65018 414.702 7.65018C438.219 7.65018 457.281 26.734 457.281 50.275" stroke="url(#paint35_linear_284_7503)" stroke-width="0.388787" stroke-dasharray="1.56 1.56"/>
<path d="M297.751 371.691C297.751 319.931 339.666 277.969 391.373 277.969" stroke="white" stroke-width="0.388787" stroke-dasharray="1.56 1.56"/>
<path d="M391.373 371.691C391.373 319.931 349.458 277.969 297.753 277.969" stroke="white" stroke-width="0.388787" stroke-dasharray="1.56 1.56"/>
<path d="M282.418 166.151C342.968 166.151 365.86 106.227 372.123 49.0293" stroke="white" stroke-width="0.388787" stroke-dasharray="1.56 1.56"/>
<path d="M247.975 121.665C281.034 121.665 307.835 148.494 307.835 181.59" stroke="white" stroke-width="0.388787" stroke-dasharray="1.56 1.56"/>
<path d="M111.619 198.367C146.605 147.253 216.359 134.209 267.419 169.233" stroke="white" stroke-width="0.388787" stroke-dasharray="1.56 1.56"/>
<path d="M356.09 132.894C404.533 94.3267 474.545 101.754 512.462 149.484" stroke="white" stroke-width="0.388787" stroke-dasharray="1.56 1.56"/>
<defs>
<filter id="filter0_d_284_7503" x="38.0048" y="312.197" width="106.551" height="106.65" filterUnits="userSpaceOnUse" color-interpolation-filters="sRGB">
<feFlood flood-opacity="0" result="BackgroundImageFix"/>
<feColorMatrix in="SourceAlpha" type="matrix" values="0 0 0 0 0 0 0 0 0 0 0 0 0 0 0 0 0 0 127 0" result="hardAlpha"/>
<feOffset dy="3.50637"/>
<feGaussianBlur stdDeviation="3.50637"/>
<feComposite in2="hardAlpha" operator="out"/>
<feColorMatrix type="matrix" values="0 0 0 0 0.343614 0 0 0 0 0.154931 0 0 0 0 0.808333 0 0 0 0.18 0"/>
<feBlend mode="normal" in2="BackgroundImageFix" result="effect1_dropShadow_284_7503"/>
<feBlend mode="normal" in="SourceGraphic" in2="effect1_dropShadow_284_7503" result="shape"/>
</filter>
<filter id="filter1_d_284_7503" x="504.321" y="207.996" width="106.55" height="106.65" filterUnits="userSpaceOnUse" color-interpolation-filters="sRGB">
<feFlood flood-opacity="0" result="BackgroundImageFix"/>
<feColorMatrix in="SourceAlpha" type="matrix" values="0 0 0 0 0 0 0 0 0 0 0 0 0 0 0 0 0 0 127 0" result="hardAlpha"/>
<feOffset dy="3.50637"/>
<feGaussianBlur stdDeviation="3.50637"/>
<feComposite in2="hardAlpha" operator="out"/>
<feColorMatrix type="matrix" values="0 0 0 0 0.343614 0 0 0 0 0.154931 0 0 0 0 0.808333 0 0 0 0.18 0"/>
<feBlend mode="normal" in2="BackgroundImageFix" result="effect1_dropShadow_284_7503"/>
<feBlend mode="normal" in="SourceGraphic" in2="effect1_dropShadow_284_7503" result="shape"/>
</filter>
<filter id="filter2_d_284_7503" x="506.703" y="61.8593" width="106.55" height="106.65" filterUnits="userSpaceOnUse" color-interpolation-filters="sRGB">
<feFlood flood-opacity="0" result="BackgroundImageFix"/>
<feColorMatrix in="SourceAlpha" type="matrix" values="0 0 0 0 0 0 0 0 0 0 0 0 0 0 0 0 0 0 127 0" result="hardAlpha"/>
<feOffset dy="3.50637"/>
<feGaussianBlur stdDeviation="3.50637"/>
<feComposite in2="hardAlpha" operator="out"/>
<feColorMatrix type="matrix" values="0 0 0 0 0.343614 0 0 0 0 0.154931 0 0 0 0 0.808333 0 0 0 0.18 0"/>
<feBlend mode="normal" in2="BackgroundImageFix" result="effect1_dropShadow_284_7503"/>
<feBlend mode="normal" in="SourceGraphic" in2="effect1_dropShadow_284_7503" result="shape"/>
</filter>
<filter id="filter3_d_284_7503" x="397.825" y="334.498" width="73.9955" height="74.0599" filterUnits="userSpaceOnUse" color-interpolation-filters="sRGB">
<feFlood flood-opacity="0" result="BackgroundImageFix"/>
<feColorMatrix in="SourceAlpha" type="matrix" values="0 0 0 0 0 0 0 0 0 0 0 0 0 0 0 0 0 0 127 0" result="hardAlpha"/>
<feOffset dy="3.50637"/>
<feGaussianBlur stdDeviation="3.50637"/>
<feComposite in2="hardAlpha" operator="out"/>
<feColorMatrix type="matrix" values="0 0 0 0 0.343614 0 0 0 0 0.154931 0 0 0 0 0.808333 0 0 0 0.18 0"/>
<feBlend mode="normal" in2="BackgroundImageFix" result="effect1_dropShadow_284_7503"/>
<feBlend mode="normal" in="SourceGraphic" in2="effect1_dropShadow_284_7503" result="shape"/>
</filter>
<filter id="filter4_d_284_7503" x="219.63" y="334.498" width="73.9955" height="74.0599" filterUnits="userSpaceOnUse" color-interpolation-filters="sRGB">
<feFlood flood-opacity="0" result="BackgroundImageFix"/>
<feColorMatrix in="SourceAlpha" type="matrix" values="0 0 0 0 0 0 0 0 0 0 0 0 0 0 0 0 0 0 127 0" result="hardAlpha"/>
<feOffset dy="3.50637"/>
<feGaussianBlur stdDeviation="3.50637"/>
<feComposite in2="hardAlpha" operator="out"/>
<feColorMatrix type="matrix" values="0 0 0 0 0.343614 0 0 0 0 0.154931 0 0 0 0 0.808333 0 0 0 0.18 0"/>
<feBlend mode="normal" in2="BackgroundImageFix" result="effect1_dropShadow_284_7503"/>
<feBlend mode="normal" in="SourceGraphic" in2="effect1_dropShadow_284_7503" result="shape"/>
</filter>
<filter id="filter5_d_284_7503" x="196.742" y="12.0316" width="106.551" height="106.65" filterUnits="userSpaceOnUse" color-interpolation-filters="sRGB">
<feFlood flood-opacity="0" result="BackgroundImageFix"/>
<feColorMatrix in="SourceAlpha" type="matrix" values="0 0 0 0 0 0 0 0 0 0 0 0 0 0 0 0 0 0 127 0" result="hardAlpha"/>
<feOffset dy="3.50637"/>
<feGaussianBlur stdDeviation="3.50637"/>
<feComposite in2="hardAlpha" operator="out"/>
<feColorMatrix type="matrix" values="0 0 0 0 0.343614 0 0 0 0 0.154931 0 0 0 0 0.808333 0 0 0 0.18 0"/>
<feBlend mode="normal" in2="BackgroundImageFix" result="effect1_dropShadow_284_7503"/>
<feBlend mode="normal" in="SourceGraphic" in2="effect1_dropShadow_284_7503" result="shape"/>
</filter>
<filter id="filter6_d_284_7503" x="377.162" y="18.2844" width="73.9955" height="74.0599" filterUnits="userSpaceOnUse" color-interpolation-filters="sRGB">
<feFlood flood-opacity="0" result="BackgroundImageFix"/>
<feColorMatrix in="SourceAlpha" type="matrix" values="0 0 0 0 0 0 0 0 0 0 0 0 0 0 0 0 0 0 127 0" result="hardAlpha"/>
<feOffset dy="3.50637"/>
<feGaussianBlur stdDeviation="3.50637"/>
<feComposite in2="hardAlpha" operator="out"/>
<feColorMatrix type="matrix" values="0 0 0 0 0.343614 0 0 0 0 0.154931 0 0 0 0 0.808333 0 0 0 0.18 0"/>
<feBlend mode="normal" in2="BackgroundImageFix" result="effect1_dropShadow_284_7503"/>
<feBlend mode="normal" in="SourceGraphic" in2="effect1_dropShadow_284_7503" result="shape"/>
</filter>
<filter id="filter7_d_284_7503" x="125.39" y="214.428" width="73.9955" height="74.0599" filterUnits="userSpaceOnUse" color-interpolation-filters="sRGB">
<feFlood flood-opacity="0" result="BackgroundImageFix"/>
<feColorMatrix in="SourceAlpha" type="matrix" values="0 0 0 0 0 0 0 0 0 0 0 0 0 0 0 0 0 0 127 0" result="hardAlpha"/>
<feOffset dy="3.50637"/>
<feGaussianBlur stdDeviation="3.50637"/>
<feComposite in2="hardAlpha" operator="out"/>
<feColorMatrix type="matrix" values="0 0 0 0 0.343614 0 0 0 0 0.154931 0 0 0 0 0.808333 0 0 0 0.18 0"/>
<feBlend mode="normal" in2="BackgroundImageFix" result="effect1_dropShadow_284_7503"/>
<feBlend mode="normal" in="SourceGraphic" in2="effect1_dropShadow_284_7503" result="shape"/>
</filter>
<filter id="filter8_d_284_7503" x="10.59" y="113.227" width="106.551" height="106.65" filterUnits="userSpaceOnUse" color-interpolation-filters="sRGB">
<feFlood flood-opacity="0" result="BackgroundImageFix"/>
<feColorMatrix in="SourceAlpha" type="matrix" values="0 0 0 0 0 0 0 0 0 0 0 0 0 0 0 0 0 0 127 0" result="hardAlpha"/>
<feOffset dy="3.50637"/>
<feGaussianBlur stdDeviation="3.50637"/>
<feComposite in2="hardAlpha" operator="out"/>
<feColorMatrix type="matrix" values="0 0 0 0 0.343614 0 0 0 0 0.154931 0 0 0 0 0.808333 0 0 0 0.18 0"/>
<feBlend mode="normal" in2="BackgroundImageFix" result="effect1_dropShadow_284_7503"/>
<feBlend mode="normal" in="SourceGraphic" in2="effect1_dropShadow_284_7503" result="shape"/>
</filter>
<filter id="filter9_d_284_7503" x="232.023" y="123.012" width="198.953" height="198.953" filterUnits="userSpaceOnUse" color-interpolation-filters="sRGB">
<feFlood flood-opacity="0" result="BackgroundImageFix"/>
<feColorMatrix in="SourceAlpha" type="matrix" values="0 0 0 0 0 0 0 0 0 0 0 0 0 0 0 0 0 0 127 0" result="hardAlpha"/>
<feOffset dy="3.98831"/>
<feGaussianBlur stdDeviation="3.98831"/>
<feComposite in2="hardAlpha" operator="out"/>
<feColorMatrix type="matrix" values="0 0 0 0 0.343614 0 0 0 0 0.154931 0 0 0 0 0.808333 0 0 0 0.18 0"/>
<feBlend mode="normal" in2="BackgroundImageFix" result="effect1_dropShadow_284_7503"/>
<feBlend mode="normal" in="SourceGraphic" in2="effect1_dropShadow_284_7503" result="shape"/>
</filter>
<linearGradient id="paint0_linear_284_7503" x1="5888.51" y1="362.911" x2="3580.84" y2="3056.86" gradientUnits="userSpaceOnUse">
<stop offset="0.18" stop-color="#0052CC"/>
<stop offset="1" stop-color="#2684FF"/>
</linearGradient>
<linearGradient id="paint1_linear_284_7503" x1="6034.12" y1="392.988" x2="3364.9" y2="3331.07" gradientUnits="userSpaceOnUse">
<stop offset="0.18" stop-color="#0052CC"/>
<stop offset="1" stop-color="#2684FF"/>
</linearGradient>
<linearGradient id="paint2_linear_284_7503" x1="1974.05" y1="352.457" x2="1974.05" y2="3465.34" gradientUnits="userSpaceOnUse">
<stop stop-color="#0091E6"/>
<stop offset="1" stop-color="#0079BF"/>
</linearGradient>
<linearGradient id="paint3_linear_284_7503" x1="355.42" y1="185.281" x2="351.618" y2="186.522" gradientUnits="userSpaceOnUse">
<stop stop-color="#6FBE59"/>
<stop offset="1" stop-color="#49B649"/>
</linearGradient>
<linearGradient id="paint4_linear_284_7503" x1="348.264" y1="199.622" x2="328.51" y2="206.068" gradientUnits="userSpaceOnUse">
<stop stop-color="#6FBE59"/>
<stop offset="1" stop-color="#44AB44"/>
</linearGradient>
<linearGradient id="paint5_linear_284_7503" x1="348.323" y1="178.764" x2="336.261" y2="182.7" gradientUnits="userSpaceOnUse">
<stop stop-color="#6FBE59"/>
<stop offset="1" stop-color="#44AB44"/>
</linearGradient>
<linearGradient id="paint6_linear_284_7503" x1="335.93" y1="191.981" x2="315.947" y2="198.501" gradientUnits="userSpaceOnUse">
<stop stop-color="#6FBE59"/>
<stop offset="1" stop-color="#44AB44"/>
</linearGradient>
<linearGradient id="paint7_linear_284_7503" x1="349.683" y1="210.418" x2="330.216" y2="216.771" gradientUnits="userSpaceOnUse">
<stop stop-color="#6FBE59"/>
<stop offset="1" stop-color="#44AB44"/>
</linearGradient>
<linearGradient id="paint8_linear_284_7503" x1="321.581" y1="198.195" x2="309.019" y2="202.295" gradientUnits="userSpaceOnUse">
<stop stop-color="#6FBE59"/>
<stop offset="1" stop-color="#44AB44"/>
</linearGradient>
<linearGradient id="paint9_linear_284_7503" x1="334.207" y1="223.109" x2="330.404" y2="224.349" gradientUnits="userSpaceOnUse">
<stop stop-color="#6FBE59"/>
<stop offset="1" stop-color="#49B649"/>
</linearGradient>
<linearGradient id="paint10_linear_284_7503" x1="312.089" y1="186.143" x2="308.287" y2="187.384" gradientUnits="userSpaceOnUse">
<stop stop-color="#6FBE59"/>
<stop offset="1" stop-color="#49B649"/>
</linearGradient>
<linearGradient id="paint11_linear_284_7503" x1="330.474" y1="229.241" x2="326.676" y2="230.48" gradientUnits="userSpaceOnUse">
<stop stop-color="#6FBE59"/>
<stop offset="1" stop-color="#49B649"/>
</linearGradient>
<linearGradient id="paint12_linear_284_7503" x1="323.319" y1="243.587" x2="303.571" y2="250.031" gradientUnits="userSpaceOnUse">
<stop stop-color="#6FBE59"/>
<stop offset="1" stop-color="#44AB44"/>
</linearGradient>
<linearGradient id="paint13_linear_284_7503" x1="323.383" y1="222.727" x2="311.316" y2="226.665" gradientUnits="userSpaceOnUse">
<stop stop-color="#6FBE59"/>
<stop offset="1" stop-color="#44AB44"/>
</linearGradient>
<linearGradient id="paint14_linear_284_7503" x1="310.991" y1="235.943" x2="291.007" y2="242.464" gradientUnits="userSpaceOnUse">
<stop stop-color="#6FBE59"/>
<stop offset="1" stop-color="#44AB44"/>
</linearGradient>
<linearGradient id="paint15_linear_284_7503" x1="324.743" y1="254.381" x2="305.276" y2="260.734" gradientUnits="userSpaceOnUse">
<stop stop-color="#6FBE59"/>
<stop offset="1" stop-color="#44AB44"/>
</linearGradient>
<linearGradient id="paint16_linear_284_7503" x1="296.64" y1="242.153" x2="284.077" y2="246.253" gradientUnits="userSpaceOnUse">
<stop stop-color="#6FBE59"/>
<stop offset="1" stop-color="#44AB44"/>
</linearGradient>
<linearGradient id="paint17_linear_284_7503" x1="309.262" y1="267.073" x2="305.464" y2="268.312" gradientUnits="userSpaceOnUse">
<stop stop-color="#6FBE59"/>
<stop offset="1" stop-color="#49B649"/>
</linearGradient>
<linearGradient id="paint18_linear_284_7503" x1="287.15" y1="230.106" x2="283.347" y2="231.347" gradientUnits="userSpaceOnUse">
<stop stop-color="#6FBE59"/>
<stop offset="1" stop-color="#49B649"/>
</linearGradient>
<linearGradient id="paint19_linear_284_7503" x1="380.533" y1="229.141" x2="376.731" y2="230.382" gradientUnits="userSpaceOnUse">
<stop stop-color="#6FBE59"/>
<stop offset="1" stop-color="#49B649"/>
</linearGradient>
<linearGradient id="paint20_linear_284_7503" x1="373.379" y1="243.487" x2="353.625" y2="249.933" gradientUnits="userSpaceOnUse">
<stop stop-color="#6FBE59"/>
<stop offset="1" stop-color="#44AB44"/>
</linearGradient>
<linearGradient id="paint21_linear_284_7503" x1="373.441" y1="222.622" x2="361.374" y2="226.56" gradientUnits="userSpaceOnUse">
<stop stop-color="#6FBE59"/>
<stop offset="1" stop-color="#44AB44"/>
</linearGradient>
<linearGradient id="paint22_linear_284_7503" x1="361.045" y1="235.845" x2="341.062" y2="242.366" gradientUnits="userSpaceOnUse">
<stop stop-color="#6FBE59"/>
<stop offset="1" stop-color="#44AB44"/>
</linearGradient>
<linearGradient id="paint23_linear_284_7503" x1="374.798" y1="254.283" x2="355.336" y2="260.634" gradientUnits="userSpaceOnUse">
<stop stop-color="#6FBE59"/>
<stop offset="1" stop-color="#44AB44"/>
</linearGradient>
<linearGradient id="paint24_linear_284_7503" x1="346.7" y1="242.054" x2="334.137" y2="246.153" gradientUnits="userSpaceOnUse">
<stop stop-color="#6FBE59"/>
<stop offset="1" stop-color="#44AB44"/>
</linearGradient>
<linearGradient id="paint25_linear_284_7503" x1="359.322" y1="266.973" x2="355.519" y2="268.214" gradientUnits="userSpaceOnUse">
<stop stop-color="#6FBE59"/>
<stop offset="1" stop-color="#49B649"/>
</linearGradient>
<linearGradient id="paint26_linear_284_7503" x1="337.203" y1="230.003" x2="333.405" y2="231.242" gradientUnits="userSpaceOnUse">
<stop stop-color="#6FBE59"/>
<stop offset="1" stop-color="#49B649"/>
</linearGradient>
<linearGradient id="paint27_linear_284_7503" x1="248.882" y1="21.7872" x2="310.538" y2="18.5562" gradientUnits="userSpaceOnUse">
<stop stop-color="white"/>
<stop offset="0.984848" stop-color="white" stop-opacity="0"/>
</linearGradient>
<linearGradient id="paint28_linear_284_7503" x1="54.3131" y1="374.526" x2="56.5681" y2="305.761" gradientUnits="userSpaceOnUse">
<stop stop-color="white"/>
<stop offset="0.984848" stop-color="white" stop-opacity="0"/>
</linearGradient>
<linearGradient id="paint29_linear_284_7503" x1="57.9402" y1="162.696" x2="79.822" y2="100.98" gradientUnits="userSpaceOnUse">
<stop stop-color="white"/>
<stop offset="0.984848" stop-color="white" stop-opacity="0"/>
</linearGradient>
<linearGradient id="paint30_linear_284_7503" x1="483.939" y1="258.141" x2="514.138" y2="178.474" gradientUnits="userSpaceOnUse">
<stop stop-color="white"/>
<stop offset="0.984848" stop-color="white" stop-opacity="0"/>
</linearGradient>
<linearGradient id="paint31_linear_284_7503" x1="571.744" y1="122.57" x2="528.227" y2="58.5001" gradientUnits="userSpaceOnUse">
<stop stop-color="white"/>
<stop offset="0.984848" stop-color="white" stop-opacity="0"/>
</linearGradient>
<linearGradient id="paint32_linear_284_7503" x1="162.562" y1="296.311" x2="119.924" y2="238.876" gradientUnits="userSpaceOnUse">
<stop stop-color="white"/>
<stop offset="0.984848" stop-color="white" stop-opacity="0"/>
</linearGradient>
<linearGradient id="paint33_linear_284_7503" x1="434.656" y1="416.161" x2="477.294" y2="358.726" gradientUnits="userSpaceOnUse">
<stop stop-color="white"/>
<stop offset="0.984848" stop-color="white" stop-opacity="0"/>
</linearGradient>
<linearGradient id="paint34_linear_284_7503" x1="255.075" y1="417.976" x2="212.437" y2="360.542" gradientUnits="userSpaceOnUse">
<stop stop-color="white"/>
<stop offset="0.984848" stop-color="white" stop-opacity="0"/>
</linearGradient>
<linearGradient id="paint35_linear_284_7503" x1="414.702" y1="3.12937" x2="457.34" y2="60.5646" gradientUnits="userSpaceOnUse">
<stop stop-color="white"/>
<stop offset="0.984848" stop-color="white" stop-opacity="0"/>
</linearGradient>
</defs>
</svg>
