<svg width="1440" height="965" viewBox="0 0 1440 965" fill="none" xmlns="http://www.w3.org/2000/svg">
<g clip-path="url(#clip0_329_9508)">
<g clip-path="url(#clip1_329_9508)">
<g clip-path="url(#clip2_329_9508)">
<path d="M1572.34 0.629883H-77.3V825.45H1572.34V0.629883Z" fill="url(#paint0_radial_329_9508)"/>
<path d="M1572.34 0.629883H-77.3V825.45H1572.34V0.629883Z" fill="url(#paint1_radial_329_9508)"/>
<path d="M1572.34 0.629883H-77.3V825.45H1572.34V0.629883Z" fill="url(#paint2_radial_329_9508)"/>
<path d="M1572.34 0.629883H-77.3V825.45H1572.34V0.629883Z" fill="url(#paint3_radial_329_9508)"/>
<path d="M1572.34 0.629883H-77.3V825.45H1572.34V0.629883Z" fill="url(#paint4_radial_329_9508)"/>
<path d="M1572.34 0.629883H-77.3V825.45H1572.34V0.629883Z" fill="url(#paint5_radial_329_9508)"/>
<path d="M1572.34 0.629883H-77.3V825.45H1572.34V0.629883Z" fill="url(#paint6_radial_329_9508)"/>
<path d="M1572.34 0.629883H-77.3V825.45H1572.34V0.629883Z" fill="url(#paint7_radial_329_9508)"/>
<path d="M1572.34 0.629883H-77.3V825.45H1572.34V0.629883Z" fill="url(#paint8_radial_329_9508)"/>
<path d="M1572.34 0.629883H-77.3V825.45H1572.34V0.629883Z" fill="url(#paint9_radial_329_9508)"/>
<path d="M1572.34 0.629883H-77.3V825.45H1572.34V0.629883Z" fill="url(#paint10_radial_329_9508)"/>
<path d="M1572.34 0.629883H-77.3V825.45H1572.34V0.629883Z" fill="url(#paint11_radial_329_9508)"/>
<path d="M1572.34 0.629883H-77.3V825.45H1572.34V0.629883Z" fill="url(#paint12_radial_329_9508)"/>
</g>
</g>
</g>
<g clip-path="url(#clip3_329_9508)" filter="url(#filter0_f_329_9508)">
<g clip-path="url(#clip4_329_9508)">
<g clip-path="url(#clip5_329_9508)">
<mask id="mask0_329_9508" style="mask-type:luminance" maskUnits="userSpaceOnUse" x="-1" y="35" width="1435" height="590">
<path d="M1433.75 35.4199H-0.69873V624.44H1433.75V35.4199Z" fill="white"/>
</mask>
<g mask="url(#mask0_329_9508)">
<mask id="mask1_329_9508" style="mask-type:luminance" maskUnits="userSpaceOnUse" x="10" y="36" width="1424" height="588">
<path d="M1433.75 36.2605H10.7373V623.599H1433.75V36.2605Z" fill="white"/>
</mask>
<g mask="url(#mask1_329_9508)">
<path d="M175.746 89.3574L556.414 294.395C529.223 278.623 474.309 242.44 474.309 242.44C477.507 216.462 465.778 191.412 432.723 189.093C432.723 189.093 431.538 155.54 400.734 146.416C375.677 138.993 351.151 147.344 337.29 157.549C341.022 145.488 330.892 114.407 289.306 127.86C289.306 127.86 280.777 104.202 247.188 117.441C235.991 102.81 198.92 101.84 175.746 89.3574Z" fill="url(#paint13_linear_329_9508)"/>
<path d="M11.0122 595.548L512.302 477.597C475.443 484.969 396.953 495.81 396.953 495.81C375.272 468.925 342.314 455.049 313.261 479.766C313.261 479.766 280.931 449.364 247.347 465.89C220.028 479.332 207.885 507.085 206.151 527.9C197.911 513.589 160.618 492.775 139.371 539.175C139.371 539.175 110.316 523.997 95.3725 563.693C72.5894 559.122 41.5294 588.368 11.0122 595.548Z" fill="url(#paint14_linear_329_9508)"/>
<path d="M598.649 363.67C596.39 346.772 577.559 313.727 531.612 321.237C522.197 314.603 501.107 304.338 474.745 313.727L433.882 308.282L717.611 416.293C719.013 416.839 720.29 417.324 721.425 417.744L717.611 416.293C701.147 409.881 667.425 395.209 643.647 382.83C631.862 360.654 611.302 361.852 598.649 363.67Z" fill="url(#paint15_linear_329_9508)"/>
<path d="M437.06 341.825C433.931 329.546 417.164 306.78 383.863 316.296C376.334 312.212 359.864 306.458 341.197 315.667L310.533 315.179L529.502 370.388C530.585 370.67 531.57 370.918 532.445 371.13L529.502 370.388C516.784 367.078 490.6 359.162 471.962 352.079C461.34 336.727 446.252 339.389 437.06 341.825Z" fill="url(#paint16_linear_329_9508)"/>
<path d="M567.317 278.357C576.89 276.613 598.15 281.037 602.159 307.331C607.419 311.282 616.705 320.94 616.248 336.92L626.398 358.173L517.801 222.953C517.258 222.287 516.769 221.679 516.342 221.135L517.801 222.953C524.182 230.774 538.084 246.522 548.992 257.269C563.108 259.775 566.077 271.161 567.317 278.357Z" fill="url(#paint17_linear_329_9508)"/>
<path d="M295.022 437.246C286.362 423.749 257.135 403.104 220.943 427.827C210.271 425.93 188.195 425.596 169.452 444.109L132.434 455.767L417.442 434.637C418.856 434.543 420.139 434.448 421.274 434.353L417.442 434.637C400.846 435.74 366.242 436.689 341.031 435.625C322.145 421.43 305.088 430.651 295.022 437.246Z" fill="url(#paint18_linear_329_9508)"/>
<path d="M627.969 427.462L402.759 454.817C414.624 452.884 422.39 453.39 427.831 447.129C432.046 442.277 435.764 437.638 442.89 440.488C444.407 428.998 456.321 425.843 462.723 429.727C487.073 405.226 533.483 408.946 547.293 424.088C554.702 415.178 564.888 417.208 569.774 423.939C588.303 413.687 595.771 422.931 602.57 425.909C608.009 428.292 620.561 427.408 627.969 427.462Z" fill="url(#paint19_linear_329_9508)"/>
<path d="M570.975 245.155C579.943 217.943 575.666 154.154 500.615 131.798C491.227 114.857 466.829 83.8598 420.044 78.712L362.186 40.4944L712.46 412.021C714.182 413.876 715.759 415.548 717.169 417.015L712.46 412.021C692.241 390.244 651.954 343.313 625.039 307.145C623.458 264.965 591.46 251.69 570.975 245.155Z" fill="url(#paint20_linear_329_9508)"/>
<path d="M471.909 549.287L693.983 443.965C675.965 452.16 663.312 459.36 656.683 455.709C624.454 437.493 607.084 455.103 602.54 465.675C577.504 465.435 571.659 483.792 572.088 494.206C568.304 494.5 567.453 497.745 567.5 499.331C557.775 488.456 547.361 493.85 545.423 498.088C521.134 479.984 497.98 499.947 502.169 518.927C486.836 522.84 490.197 533.79 487.566 537.855C485.461 541.107 477.544 545.974 471.909 549.287Z" fill="url(#paint21_linear_329_9508)"/>
<path d="M415.093 340.958L131.634 268.01C146.8 271.261 157.362 271.17 166.84 266.204C174.186 262.355 180.833 258.528 188.055 265.301C195.276 252.207 211.075 254.013 216.942 261.689C277.607 228.818 311.729 269.966 321.208 294.649C334.298 287.425 345.582 294.649 348.29 305.034C375.372 301.422 378.532 320.385 385.302 327.158C390.719 332.576 406.215 337.411 415.093 340.958Z" fill="url(#paint22_linear_329_9508)"/>
<path d="M837.667 363.67C839.926 346.772 858.757 313.727 904.707 321.237C914.12 314.603 935.207 304.338 961.574 313.727L1002.44 308.282L718.705 416.293C717.303 416.839 716.027 417.324 714.892 417.744L718.705 416.293C735.169 409.881 768.891 395.209 792.669 382.83C804.454 360.654 825.014 361.852 837.667 363.67Z" fill="url(#paint23_linear_329_9508)"/>
<path d="M868.998 278.357C859.424 276.613 838.164 281.037 834.155 307.331C828.895 311.282 819.609 320.94 820.066 336.92L809.917 358.173L918.513 222.953C919.06 222.287 919.544 221.679 919.975 221.135L918.513 222.953C912.13 230.774 898.234 246.522 887.322 257.269C873.206 259.775 870.238 271.161 868.998 278.357Z" fill="url(#paint24_linear_329_9508)"/>
<path d="M1141.29 437.246C1149.95 423.749 1179.18 403.104 1215.37 427.827C1226.05 425.93 1248.12 425.596 1266.87 444.109L1303.89 455.767L1018.87 434.637C1017.46 434.543 1016.18 434.448 1015.04 434.353L1018.87 434.637C1035.47 435.74 1070.07 436.689 1095.28 435.625C1114.17 421.43 1131.23 430.651 1141.29 437.246Z" fill="url(#paint25_linear_329_9508)"/>
<path d="M903.586 184.361C897.104 164.69 900.197 118.577 954.455 102.414C961.242 90.1675 978.877 67.7595 1012.69 64.0381L1054.53 36.4102L801.307 304.99C800.062 306.331 798.922 307.54 797.903 308.602L801.307 304.99C815.923 289.248 845.047 255.322 864.504 229.175C865.648 198.682 888.779 189.085 903.586 184.361Z" fill="url(#paint26_linear_329_9508)"/>
<path d="M1425.83 144.579L1433.75 141.553C1431.1 142.731 1428.47 143.733 1425.83 144.579L973.847 317.267C985.609 311.531 1002.18 303.048 1006.88 296.888C1012.77 289.19 1005.53 245.714 1036.77 240.28C1031.33 201.785 1080.67 165.556 1126.39 205.408C1130.92 197.257 1152.55 188.109 1170.29 211.296C1170.45 208.126 1172.65 201.785 1180.25 201.785C1181.01 180.954 1195.01 140.376 1244.98 144.723C1255.7 124.344 1292.52 93.9113 1354.08 135.214C1365.75 142.857 1395.22 154.393 1425.83 144.579Z" fill="url(#paint27_linear_329_9508)"/>
<path d="M1342.56 390.646L969.759 403.857C980.894 402.231 1005.9 398.147 1016.84 394.813C1019.36 386.354 1028.83 369.585 1046.45 370.191C1051.13 359.712 1066.72 342.312 1091.62 356.555C1105.29 335.469 1144.24 304.963 1190.71 351.63C1199.06 348.095 1217.66 345.418 1225.25 362.994C1228.54 360.595 1236.65 357.236 1242.72 362.994C1245.76 350.873 1259.42 323.22 1293.59 328.145C1300.55 316.908 1320.62 295.947 1345.22 302.008C1377.87 310.052 1385.34 362.995 1389.64 388.753L1342.56 390.646Z" fill="url(#paint28_linear_329_9508)"/>
<path d="M1021.22 340.958L1304.68 268.01C1289.52 271.261 1278.95 271.17 1269.48 266.204C1262.13 262.355 1255.48 258.528 1248.26 265.301C1241.04 252.207 1225.24 254.013 1219.37 261.689C1158.71 228.818 1124.59 269.966 1115.1 294.649C1102.01 287.425 1090.74 294.649 1088.03 305.034C1060.94 301.422 1057.78 320.385 1051.01 327.158C1045.6 332.576 1030.1 337.411 1021.22 340.958Z" fill="url(#paint29_linear_329_9508)"/>
<path d="M1046.21 423.377L821.004 450.734C832.869 448.799 840.635 449.306 846.075 443.044C850.292 438.193 854.01 433.554 861.134 436.405C862.651 424.914 874.565 421.758 880.968 425.643C905.316 401.141 951.73 404.862 965.536 420.003C972.95 411.094 983.135 413.123 988.021 419.855C1006.55 409.603 1014.01 418.847 1020.82 421.825C1026.26 424.207 1038.81 423.323 1046.21 423.377Z" fill="url(#paint30_linear_329_9508)"/>
<path d="M1015.17 541.753L1209.73 623.202C1199.61 618.468 1193.59 613.815 1190.32 606.826C1187.79 601.409 1185.64 596.309 1178.54 597.064C1180.12 586.376 1170.27 580.535 1163.54 582.401C1143.1 537.041 1105.53 545.881 1089.29 555.971C1084.94 546.107 1075.31 545.354 1069.21 550.157C1055.25 536.279 1045.15 545.827 1038.3 546.779C1032.82 547.541 1021.81 543.576 1015.17 541.753Z" fill="url(#paint31_linear_329_9508)"/>
</g>
</g>
</g>
</g>
</g>
<defs>
<filter id="filter0_f_329_9508" x="-6.70996" y="29.4199" width="1446.47" height="601.02" filterUnits="userSpaceOnUse" color-interpolation-filters="sRGB">
<feFlood flood-opacity="0" result="BackgroundImageFix"/>
<feBlend mode="normal" in="SourceGraphic" in2="BackgroundImageFix" result="shape"/>
<feGaussianBlur stdDeviation="3" result="effect1_foregroundBlur_329_9508"/>
</filter>
<radialGradient id="paint0_radial_329_9508" cx="0" cy="0" r="1" gradientUnits="userSpaceOnUse" gradientTransform="translate(1040.85 558.414) rotate(-15.6242) scale(378.987 111.987)">
<stop stop-color="#D4FBBE"/>
<stop offset="1" stop-color="#D8FFB7" stop-opacity="0"/>
</radialGradient>
<radialGradient id="paint1_radial_329_9508" cx="0" cy="0" r="1" gradientUnits="userSpaceOnUse" gradientTransform="translate(1046 465.107) rotate(-62.3926) scale(354.866 277.326)">
<stop stop-color="#B7FCBA" stop-opacity="0.6"/>
<stop offset="1" stop-color="#C1FFD8" stop-opacity="0"/>
</radialGradient>
<radialGradient id="paint2_radial_329_9508" cx="0" cy="0" r="1" gradientUnits="userSpaceOnUse" gradientTransform="translate(435.119 450.672) rotate(-139.694) scale(400.861 212.373)">
<stop stop-color="#B7FECD"/>
<stop offset="1" stop-color="#ADFFE4" stop-opacity="0"/>
</radialGradient>
<radialGradient id="paint3_radial_329_9508" cx="0" cy="0" r="1" gradientUnits="userSpaceOnUse" gradientTransform="translate(477.907 442.94) rotate(-114.634) scale(321.561 179.143)">
<stop stop-color="#CBFFC7"/>
<stop offset="1" stop-color="#E9FFB7" stop-opacity="0"/>
</radialGradient>
<radialGradient id="paint4_radial_329_9508" cx="0" cy="0" r="1" gradientUnits="userSpaceOnUse" gradientTransform="translate(1152.71 402.73) rotate(-83.6598) scale(284.758 168.316)">
<stop stop-color="#B5FFA9" stop-opacity="0.9"/>
<stop offset="1" stop-color="#C2FFCE" stop-opacity="0"/>
</radialGradient>
<radialGradient id="paint5_radial_329_9508" cx="0" cy="0" r="1" gradientUnits="userSpaceOnUse" gradientTransform="translate(1051.67 363.035) rotate(-61.6421) scale(280.018 161.031)">
<stop stop-color="#B1FFC0"/>
<stop offset="1" stop-color="#C4FECF" stop-opacity="0"/>
</radialGradient>
<radialGradient id="paint6_radial_329_9508" cx="0" cy="0" r="1" gradientUnits="userSpaceOnUse" gradientTransform="translate(459.348 346.023) rotate(-147.863) scale(332.401 156.138)">
<stop stop-color="#D7FFDF"/>
<stop offset="1" stop-color="#CBFEE6" stop-opacity="0"/>
</radialGradient>
<radialGradient id="paint7_radial_329_9508" cx="0" cy="0" r="1" gradientUnits="userSpaceOnUse" gradientTransform="translate(351.091 459.952) rotate(-105.651) scale(261.792 173.892)">
<stop stop-color="#C0FCC0"/>
<stop offset="1" stop-color="#C2FFCE" stop-opacity="0"/>
</radialGradient>
<radialGradient id="paint8_radial_329_9508" cx="0" cy="0" r="1" gradientUnits="userSpaceOnUse" gradientTransform="translate(1003.73 489.851) rotate(-13.4661) scale(427.25 252.206)">
<stop stop-color="#C6FABE"/>
<stop offset="1" stop-color="#D8FFB7" stop-opacity="0"/>
</radialGradient>
<radialGradient id="paint9_radial_329_9508" cx="0" cy="0" r="1" gradientUnits="userSpaceOnUse" gradientTransform="translate(1059.92 578.519) rotate(-6.28001) scale(325.178 162.389)">
<stop stop-color="#CBFFC7"/>
<stop offset="1" stop-color="#E9FFB7" stop-opacity="0"/>
</radialGradient>
<radialGradient id="paint10_radial_329_9508" cx="0" cy="0" r="1" gradientUnits="userSpaceOnUse" gradientTransform="translate(420.685 542.434) rotate(-162.875) scale(392.164 157.771)">
<stop stop-color="#DAFFC2"/>
<stop offset="1" stop-color="#D6FFD6" stop-opacity="0"/>
</radialGradient>
<radialGradient id="paint11_radial_329_9508" cx="0" cy="0" r="1" gradientUnits="userSpaceOnUse" gradientTransform="translate(474.814 455.827) rotate(25.9991) scale(303.411 180.156)">
<stop stop-color="#C1FFD1"/>
<stop offset="1" stop-color="#CFFFD1" stop-opacity="0"/>
</radialGradient>
<radialGradient id="paint12_radial_329_9508" cx="0" cy="0" r="1" gradientUnits="userSpaceOnUse" gradientTransform="translate(747.52 497.068) rotate(-179.722) scale(318.591 189.212)">
<stop stop-color="#C2FFD7"/>
<stop offset="1" stop-color="#C2FFD7" stop-opacity="0"/>
</radialGradient>
<linearGradient id="paint13_linear_329_9508" x1="398.755" y1="144.906" x2="358.672" y2="202.802" gradientUnits="userSpaceOnUse">
<stop stop-color="white"/>
<stop offset="1" stop-color="white" stop-opacity="0"/>
</linearGradient>
<linearGradient id="paint14_linear_329_9508" x1="253.349" y1="454.912" x2="265.025" y2="535.886" gradientUnits="userSpaceOnUse">
<stop stop-color="white"/>
<stop offset="1" stop-color="white" stop-opacity="0"/>
</linearGradient>
<linearGradient id="paint15_linear_329_9508" x1="605.038" y1="337.01" x2="590.117" y2="373.406" gradientUnits="userSpaceOnUse">
<stop stop-color="white"/>
<stop offset="1" stop-color="white" stop-opacity="0"/>
</linearGradient>
<linearGradient id="paint16_linear_329_9508" x1="428.347" y1="322.154" x2="419.291" y2="349.221" gradientUnits="userSpaceOnUse">
<stop stop-color="white"/>
<stop offset="1" stop-color="white" stop-opacity="0"/>
</linearGradient>
<linearGradient id="paint17_linear_329_9508" x1="590.59" y1="273.201" x2="572.492" y2="290.921" gradientUnits="userSpaceOnUse">
<stop stop-color="white"/>
<stop offset="1" stop-color="white" stop-opacity="0"/>
</linearGradient>
<linearGradient id="paint18_linear_329_9508" x1="292.126" y1="418.699" x2="290.079" y2="444.92" gradientUnits="userSpaceOnUse">
<stop stop-color="white"/>
<stop offset="1" stop-color="white" stop-opacity="0"/>
</linearGradient>
<linearGradient id="paint19_linear_329_9508" x1="525.957" y1="398.688" x2="528.184" y2="437.98" gradientUnits="userSpaceOnUse">
<stop stop-color="white"/>
<stop offset="1" stop-color="white" stop-opacity="0"/>
</linearGradient>
<linearGradient id="paint20_linear_329_9508" x1="554.372" y1="146.539" x2="495.479" y2="194.632" gradientUnits="userSpaceOnUse">
<stop stop-color="white"/>
<stop offset="1" stop-color="white" stop-opacity="0"/>
</linearGradient>
<linearGradient id="paint21_linear_329_9508" x1="552.949" y1="451.991" x2="578.476" y2="499.232" gradientUnits="userSpaceOnUse">
<stop stop-color="white"/>
<stop offset="1" stop-color="white" stop-opacity="0"/>
</linearGradient>
<linearGradient id="paint22_linear_329_9508" x1="306.039" y1="258.452" x2="290.253" y2="306.711" gradientUnits="userSpaceOnUse">
<stop stop-color="white"/>
<stop offset="1" stop-color="white" stop-opacity="0"/>
</linearGradient>
<linearGradient id="paint23_linear_329_9508" x1="831.278" y1="337.01" x2="846.199" y2="373.406" gradientUnits="userSpaceOnUse">
<stop stop-color="white"/>
<stop offset="1" stop-color="white" stop-opacity="0"/>
</linearGradient>
<linearGradient id="paint24_linear_329_9508" x1="845.726" y1="273.201" x2="863.823" y2="290.921" gradientUnits="userSpaceOnUse">
<stop stop-color="white"/>
<stop offset="1" stop-color="white" stop-opacity="0"/>
</linearGradient>
<linearGradient id="paint25_linear_329_9508" x1="1144.19" y1="418.699" x2="1146.24" y2="444.92" gradientUnits="userSpaceOnUse">
<stop stop-color="white"/>
<stop offset="1" stop-color="white" stop-opacity="0"/>
</linearGradient>
<linearGradient id="paint26_linear_329_9508" x1="887.349" y1="166.357" x2="915.304" y2="185.652" gradientUnits="userSpaceOnUse">
<stop stop-color="white"/>
<stop offset="1" stop-color="white" stop-opacity="0"/>
</linearGradient>
<linearGradient id="paint27_linear_329_9508" x1="1097.42" y1="173.707" x2="1112.16" y2="242.276" gradientUnits="userSpaceOnUse">
<stop stop-color="white"/>
<stop offset="1" stop-color="white" stop-opacity="0"/>
</linearGradient>
<linearGradient id="paint28_linear_329_9508" x1="1132.25" y1="325.115" x2="1138.67" y2="398.982" gradientUnits="userSpaceOnUse">
<stop stop-color="white"/>
<stop offset="1" stop-color="white" stop-opacity="0"/>
</linearGradient>
<linearGradient id="paint29_linear_329_9508" x1="1130.27" y1="258.452" x2="1146.06" y2="306.711" gradientUnits="userSpaceOnUse">
<stop stop-color="white"/>
<stop offset="1" stop-color="white" stop-opacity="0"/>
</linearGradient>
<linearGradient id="paint30_linear_329_9508" x1="944.199" y1="394.604" x2="946.431" y2="433.895" gradientUnits="userSpaceOnUse">
<stop stop-color="white"/>
<stop offset="1" stop-color="white" stop-opacity="0"/>
</linearGradient>
<linearGradient id="paint31_linear_329_9508" x1="1108.72" y1="549.213" x2="1100.19" y2="577.45" gradientUnits="userSpaceOnUse">
<stop stop-color="white"/>
<stop offset="1" stop-color="white" stop-opacity="0"/>
</linearGradient>
<clipPath id="clip0_329_9508">
<rect width="1649.64" height="824.82" fill="white" transform="translate(-77.3 0.629883)"/>
</clipPath>
<clipPath id="clip1_329_9508">
<rect width="1649.64" height="824.82" fill="white" transform="translate(-77.3 0.629883)"/>
</clipPath>
<clipPath id="clip2_329_9508">
<rect width="1649.64" height="824.82" fill="white" transform="translate(-77.3 0.629883)"/>
</clipPath>
<clipPath id="clip3_329_9508">
<rect width="1434.47" height="589.02" fill="white" transform="translate(-0.709961 35.4199)"/>
</clipPath>
<clipPath id="clip4_329_9508">
<rect width="1434.47" height="589.02" fill="white" transform="translate(-0.709961 35.4199)"/>
</clipPath>
<clipPath id="clip5_329_9508">
<rect width="1434.45" height="589.02" fill="white" transform="translate(-0.69873 35.4199)"/>
</clipPath>
</defs>
</svg>
