<svg width="200" height="56" viewBox="0 0 200 56" fill="none" xmlns="http://www.w3.org/2000/svg">
<rect width="200" height="56" rx="7" fill="url(#paint0_linear_114_5367)"/>
<path d="M53.1365 28H50.1365C49.7387 28 49.3571 28.158 49.0758 28.4393C48.7945 28.7207 48.6365 29.1022 48.6365 29.5V33.25C48.6365 33.6478 48.7945 34.0294 49.0758 34.3107C49.3571 34.592 49.7387 34.75 50.1365 34.75H51.6365C52.0343 34.75 52.4158 34.592 52.6971 34.3107C52.9784 34.0294 53.1365 33.6478 53.1365 33.25V28ZM53.1365 28C53.1365 26.8124 52.9014 25.6365 52.4449 24.5401C51.9883 23.4437 51.3192 22.4486 50.4763 21.612C49.6333 20.7754 48.6331 20.1139 47.5333 19.6656C46.4335 19.2174 45.2558 18.9913 44.0682 19.0003C42.8806 18.9913 41.703 19.2174 40.6032 19.6656C39.5034 20.1139 38.5032 20.7754 37.6602 21.612C36.8172 22.4486 36.1482 23.4437 35.6916 24.5401C35.2351 25.6365 35 26.8124 35 28V33.25C35 33.6478 35.158 34.0294 35.4393 34.3107C35.7206 34.592 36.1022 34.75 36.5 34.75H38C38.3978 34.75 38.7794 34.592 39.0607 34.3107C39.342 34.0294 39.5 33.6478 39.5 33.25V29.5C39.5 29.1022 39.342 28.7207 39.0607 28.4393C38.7794 28.158 38.3978 28 38 28H35" stroke="white" stroke-width="1.5" stroke-linecap="round" stroke-linejoin="round"/>
<path d="M53.1365 33.25V35.5C53.1365 36.2956 52.8204 37.0587 52.2578 37.6213C51.6952 38.1839 50.9321 38.5 50.1365 38.5H44.75" stroke="white" stroke-width="1.5" stroke-linecap="round" stroke-linejoin="round"/>
<path d="M77.231 34V22.1H79.441V34H77.231ZM69.598 34V22.1H71.808V34H69.598ZM70.516 29.104V27.03H78.302V29.104H70.516ZM86.4718 34.17C85.5312 34.17 84.6982 33.9717 83.9728 33.575C83.2588 33.1783 82.6978 32.64 82.2898 31.96C81.8932 31.2687 81.6948 30.481 81.6948 29.597C81.6948 28.8943 81.8082 28.254 82.0348 27.676C82.2615 27.098 82.5732 26.5993 82.9698 26.18C83.3778 25.7493 83.8595 25.4207 84.4148 25.194C84.9815 24.956 85.5992 24.837 86.2678 24.837C86.8572 24.837 87.4068 24.9503 87.9168 25.177C88.4268 25.4037 88.8688 25.7153 89.2428 26.112C89.6168 26.4973 89.9002 26.962 90.0928 27.506C90.2968 28.0387 90.3932 28.6223 90.3818 29.257L90.3648 29.988H83.1058L82.7148 28.56H88.6138L88.3418 28.849V28.475C88.3078 28.1237 88.1945 27.8177 88.0018 27.557C87.8092 27.285 87.5598 27.0753 87.2538 26.928C86.9592 26.7693 86.6305 26.69 86.2678 26.69C85.7125 26.69 85.2422 26.7977 84.8568 27.013C84.4828 27.2283 84.1995 27.54 84.0068 27.948C83.8142 28.3447 83.7178 28.8433 83.7178 29.444C83.7178 30.022 83.8368 30.5263 84.0748 30.957C84.3242 31.3877 84.6698 31.722 85.1118 31.96C85.5652 32.1867 86.0922 32.3 86.6928 32.3C87.1122 32.3 87.4975 32.232 87.8488 32.096C88.2002 31.96 88.5798 31.7163 88.9878 31.365L90.0248 32.81C89.7188 33.0933 89.3675 33.337 88.9708 33.541C88.5855 33.7337 88.1775 33.8867 87.7468 34C87.3162 34.1133 86.8912 34.17 86.4718 34.17ZM92.2508 34V21.42H94.3588V34H92.2508ZM96.8158 37.74V25.041H98.8728L98.9068 27.081L98.5498 26.928C98.6178 26.5767 98.8105 26.248 99.1278 25.942C99.4451 25.6247 99.8305 25.3697 100.284 25.177C100.748 24.9843 101.23 24.888 101.729 24.888C102.522 24.888 103.225 25.0863 103.837 25.483C104.46 25.8797 104.947 26.4237 105.299 27.115C105.661 27.8063 105.843 28.6053 105.843 29.512C105.843 30.4073 105.661 31.2063 105.299 31.909C104.947 32.6003 104.46 33.15 103.837 33.558C103.225 33.9547 102.533 34.153 101.763 34.153C101.241 34.153 100.737 34.051 100.25 33.847C99.7738 33.643 99.3658 33.3767 99.0258 33.048C98.6971 32.7193 98.4931 32.3737 98.4138 32.011L98.9238 31.773V37.74H96.8158ZM101.338 32.3C101.814 32.3 102.239 32.181 102.613 31.943C102.987 31.705 103.276 31.3763 103.48 30.957C103.695 30.5377 103.803 30.056 103.803 29.512C103.803 28.968 103.701 28.492 103.497 28.084C103.293 27.6647 103.004 27.336 102.63 27.098C102.256 26.86 101.825 26.741 101.338 26.741C100.839 26.741 100.403 26.86 100.029 27.098C99.6661 27.3247 99.3771 27.6477 99.1618 28.067C98.9465 28.4863 98.8388 28.968 98.8388 29.512C98.8388 30.056 98.9465 30.5377 99.1618 30.957C99.3771 31.3763 99.6661 31.705 100.029 31.943C100.403 32.181 100.839 32.3 101.338 32.3ZM118.126 34.17C117.265 34.17 116.477 34.0227 115.763 33.728C115.049 33.4333 114.432 33.014 113.91 32.47C113.389 31.9147 112.981 31.263 112.686 30.515C112.403 29.7557 112.261 28.9283 112.261 28.033C112.261 27.1717 112.414 26.3727 112.72 25.636C113.026 24.8993 113.451 24.2533 113.995 23.698C114.539 23.1427 115.174 22.712 115.899 22.406C116.625 22.1 117.412 21.947 118.262 21.947C118.84 21.947 119.401 22.032 119.945 22.202C120.489 22.372 120.988 22.61 121.441 22.916C121.895 23.2107 122.274 23.5563 122.58 23.953L121.169 25.5C120.875 25.194 120.569 24.939 120.251 24.735C119.945 24.5197 119.622 24.361 119.282 24.259C118.954 24.1457 118.614 24.089 118.262 24.089C117.741 24.089 117.248 24.1853 116.783 24.378C116.33 24.5707 115.933 24.8427 115.593 25.194C115.265 25.5453 115.004 25.9647 114.811 26.452C114.619 26.928 114.522 27.4607 114.522 28.05C114.522 28.6507 114.613 29.1947 114.794 29.682C114.987 30.1693 115.253 30.5887 115.593 30.94C115.945 31.2913 116.358 31.5633 116.834 31.756C117.322 31.9373 117.854 32.028 118.432 32.028C118.806 32.028 119.169 31.977 119.52 31.875C119.872 31.773 120.195 31.6313 120.489 31.45C120.795 31.2573 121.073 31.0363 121.322 30.787L122.41 32.538C122.138 32.844 121.776 33.1217 121.322 33.371C120.869 33.6203 120.359 33.8187 119.792 33.966C119.237 34.102 118.682 34.17 118.126 34.17ZM128.524 34.17C127.583 34.17 126.75 33.9717 126.025 33.575C125.311 33.1783 124.75 32.64 124.342 31.96C123.945 31.2687 123.747 30.481 123.747 29.597C123.747 28.8943 123.86 28.254 124.087 27.676C124.313 27.098 124.625 26.5993 125.022 26.18C125.43 25.7493 125.911 25.4207 126.467 25.194C127.033 24.956 127.651 24.837 128.32 24.837C128.909 24.837 129.459 24.9503 129.969 25.177C130.479 25.4037 130.921 25.7153 131.295 26.112C131.669 26.4973 131.952 26.962 132.145 27.506C132.349 28.0387 132.445 28.6223 132.434 29.257L132.417 29.988H125.158L124.767 28.56H130.666L130.394 28.849V28.475C130.36 28.1237 130.246 27.8177 130.054 27.557C129.861 27.285 129.612 27.0753 129.306 26.928C129.011 26.7693 128.682 26.69 128.32 26.69C127.764 26.69 127.294 26.7977 126.909 27.013C126.535 27.2283 126.251 27.54 126.059 27.948C125.866 28.3447 125.77 28.8433 125.77 29.444C125.77 30.022 125.889 30.5263 126.127 30.957C126.376 31.3877 126.722 31.722 127.164 31.96C127.617 32.1867 128.144 32.3 128.745 32.3C129.164 32.3 129.549 32.232 129.901 32.096C130.252 31.96 130.632 31.7163 131.04 31.365L132.077 32.81C131.771 33.0933 131.419 33.337 131.023 33.541C130.637 33.7337 130.229 33.8867 129.799 34C129.368 34.1133 128.943 34.17 128.524 34.17ZM134.286 34V25.041H136.326L136.36 26.877L135.969 27.081C136.082 26.673 136.303 26.3047 136.632 25.976C136.96 25.636 137.351 25.364 137.805 25.16C138.258 24.956 138.723 24.854 139.199 24.854C139.879 24.854 140.445 24.99 140.899 25.262C141.363 25.534 141.709 25.942 141.936 26.486C142.174 27.03 142.293 27.71 142.293 28.526V34H140.202V28.679C140.202 28.2257 140.139 27.8517 140.015 27.557C139.89 27.251 139.697 27.03 139.437 26.894C139.176 26.7467 138.859 26.6787 138.485 26.69C138.179 26.69 137.895 26.741 137.635 26.843C137.385 26.9337 137.164 27.0697 136.972 27.251C136.79 27.421 136.643 27.6193 136.53 27.846C136.428 28.0727 136.377 28.322 136.377 28.594V34H135.34C135.136 34 134.943 34 134.762 34C134.592 34 134.433 34 134.286 34ZM145.614 34V22.763H147.705V34H145.614ZM143.846 26.979V25.041H149.66V26.979H143.846ZM155.368 34.17C154.428 34.17 153.595 33.9717 152.869 33.575C152.155 33.1783 151.594 32.64 151.186 31.96C150.79 31.2687 150.591 30.481 150.591 29.597C150.591 28.8943 150.705 28.254 150.931 27.676C151.158 27.098 151.47 26.5993 151.866 26.18C152.274 25.7493 152.756 25.4207 153.311 25.194C153.878 24.956 154.496 24.837 155.164 24.837C155.754 24.837 156.303 24.9503 156.813 25.177C157.323 25.4037 157.765 25.7153 158.139 26.112C158.513 26.4973 158.797 26.962 158.989 27.506C159.193 28.0387 159.29 28.6223 159.278 29.257L159.261 29.988H152.002L151.611 28.56H157.51L157.238 28.849V28.475C157.204 28.1237 157.091 27.8177 156.898 27.557C156.706 27.285 156.456 27.0753 156.15 26.928C155.856 26.7693 155.527 26.69 155.164 26.69C154.609 26.69 154.139 26.7977 153.753 27.013C153.379 27.2283 153.096 27.54 152.903 27.948C152.711 28.3447 152.614 28.8433 152.614 29.444C152.614 30.022 152.733 30.5263 152.971 30.957C153.221 31.3877 153.566 31.722 154.008 31.96C154.462 32.1867 154.989 32.3 155.589 32.3C156.009 32.3 156.394 32.232 156.745 32.096C157.097 31.96 157.476 31.7163 157.884 31.365L158.921 32.81C158.615 33.0933 158.264 33.337 157.867 33.541C157.482 33.7337 157.074 33.8867 156.643 34C156.213 34.1133 155.788 34.17 155.368 34.17ZM161.13 34V25.041H163.187L163.221 27.897L162.932 27.251C163.057 26.7977 163.272 26.3897 163.578 26.027C163.884 25.6643 164.236 25.381 164.632 25.177C165.04 24.9617 165.465 24.854 165.907 24.854C166.1 24.854 166.281 24.871 166.451 24.905C166.633 24.939 166.78 24.9787 166.893 25.024L166.332 27.319C166.208 27.251 166.055 27.1943 165.873 27.149C165.692 27.1037 165.511 27.081 165.329 27.081C165.046 27.081 164.774 27.1377 164.513 27.251C164.264 27.353 164.043 27.5003 163.85 27.693C163.658 27.8857 163.505 28.1123 163.391 28.373C163.289 28.6223 163.238 28.9057 163.238 29.223V34H161.13Z" fill="white"/>
<defs>
<linearGradient id="paint0_linear_114_5367" x1="181.543" y1="37.4682" x2="79.6623" y2="134.802" gradientUnits="userSpaceOnUse">
<stop stop-color="#6FBE59"/>
<stop offset="1" stop-color="#37AE37"/>
</linearGradient>
</defs>
</svg>
