<svg width="1158" height="1448" viewBox="0 0 1158 1448" fill="none" xmlns="http://www.w3.org/2000/svg">
<g opacity="0.3">
<path d="M596.227 461.865C593.5 460.328 591.289 458.017 589.874 455.224C588.46 452.431 587.905 449.281 588.279 446.173C588.654 443.065 589.942 440.137 591.98 437.761C594.018 435.384 596.715 433.665 599.73 432.82C602.745 431.976 605.942 432.044 608.918 433.016C611.895 433.989 614.516 435.821 616.45 438.283C618.385 440.744 619.547 443.724 619.789 446.846C620.031 449.967 619.342 453.09 617.809 455.82C616.799 457.644 615.436 459.249 613.8 460.541C612.165 461.834 610.289 462.79 608.281 463.352C606.274 463.914 604.174 464.072 602.105 463.817C600.036 463.562 598.038 462.898 596.227 461.865Z" fill="white"/>
<path d="M580.001 633.252L579.996 633.26C578.798 635.445 577.85 637.758 577.17 640.155L413.8 624.021C413.775 623.717 413.7 623.381 413.473 623.029C412.492 619.586 410.755 616.408 408.389 613.724L441.332 555.207L441.332 555.207L474.317 496.69C478.176 497.382 482.146 497.114 485.877 495.911L584.462 627.245C582.741 629.062 581.243 631.079 580.001 633.252Z" stroke="white"/>
<path d="M460.098 396.271L460.098 396.271L451.486 371.908C453.154 370.483 454.616 368.833 455.831 367.007L576.288 434.656C574.38 438.657 573.372 443.027 573.337 447.46L500.265 463.937C498.173 460.544 495.242 457.744 491.753 455.809C488.183 453.812 484.157 452.777 480.07 452.804L460.098 396.271Z" stroke="white"/>
<path d="M287.577 469.301L287.578 469.299C288.696 467.258 289.598 465.105 290.268 462.877L457.383 481.478C458.257 485.345 460.091 488.93 462.718 491.9L397.683 607.319C393.788 606.651 389.789 606.947 386.034 608.18L283.535 474.962C285.095 473.236 286.451 471.337 287.577 469.301Z" stroke="white"/>
<path d="M429.481 717.153C436.018 716.355 442.643 717.675 448.379 720.926C448.379 720.926 448.379 720.926 448.379 720.926L448.133 721.361C453.305 724.284 457.503 728.658 460.21 733.939L429.481 717.153ZM429.481 717.153L428.725 715.066L428.723 715.061L405.346 648.189C407.768 646.267 409.796 643.894 411.318 641.2C411.648 640.644 411.948 640.07 412.217 639.482L468.132 645.023L468.133 645.023L576.836 656.003C576.856 656.362 576.926 656.767 577.161 657.193C577.691 659.024 578.382 660.803 579.226 662.512L460.639 733.681L429.481 717.153Z" stroke="white"/>
<path d="M269.191 483.756L269.201 483.753L269.21 483.75L270.616 483.27L373.873 617.47C373.564 617.933 373.281 618.393 373.003 618.845L373 618.85L372.993 618.86L372.988 618.871C371.562 621.457 370.621 624.281 370.21 627.203L295.51 641.739C293.321 635.807 289.348 630.695 284.134 627.107C278.939 623.532 272.771 621.65 266.474 621.711L263.937 484.868C265.716 484.641 267.473 484.269 269.191 483.756Z" stroke="white"/>
<path d="M421.655 739.495C423.452 736.303 426.3 733.833 429.714 732.505C433.128 731.177 436.896 731.074 440.378 732.212C443.859 733.351 446.838 735.662 448.807 738.751C450.776 741.839 451.613 745.515 451.177 749.152C450.74 752.789 449.055 756.162 446.411 758.696C443.766 761.23 440.325 762.77 436.673 763.051C433.02 763.333 429.384 762.34 426.381 760.242C423.379 758.143 421.197 755.068 420.208 751.542C419.09 747.492 419.61 743.165 421.655 739.495Z" fill="white"/>
<path d="M276.157 449.946C276.864 452.454 276.941 455.099 276.38 457.644C275.82 460.189 274.64 462.557 272.946 464.537C271.251 466.517 269.094 468.048 266.665 468.995C264.237 469.941 261.612 470.274 259.025 469.962C256.437 469.651 253.966 468.706 251.832 467.211C249.697 465.716 247.964 463.717 246.787 461.392C245.61 459.067 245.025 456.487 245.084 453.881C245.143 451.276 245.844 448.725 247.126 446.455C248.65 443.714 250.956 441.488 253.75 440.062C256.544 438.637 259.699 438.075 262.814 438.45C265.928 438.824 268.86 440.117 271.237 442.165C273.613 444.212 275.326 446.921 276.157 449.946Z" fill="white"/>
<path d="M598.827 619.649L598.81 619.654L598.794 619.659L597.731 620.014L499.749 489.527C500.114 489.005 500.451 488.464 500.758 487.905C502.321 485.152 503.3 482.107 503.636 478.96L576.892 462.48C579.585 467.555 583.646 471.777 588.619 474.664C593.552 477.529 599.182 478.964 604.879 478.814L604.625 618.724C602.668 618.85 600.727 619.159 598.827 619.649Z" stroke="white"/>
<path d="M381.905 650.877L381.906 650.878C385.447 652.874 389.445 653.91 393.506 653.884L417.31 721.654L417.312 721.659L417.521 722.236C414.033 724.724 411.113 727.923 408.953 731.622L293.843 666.883C295.518 663.773 296.654 660.401 297.202 656.91L373.125 642.147C375.219 645.787 378.25 648.802 381.905 650.877Z" stroke="white"/>
<path d="M437.404 377.859C432.424 378.293 427.426 377.206 423.071 374.739C419.587 372.815 416.622 370.077 414.43 366.761L288.516 440.904C289.32 442.577 289.975 444.318 290.473 446.107M437.404 377.859L289.992 446.242M437.404 377.859L465.675 458.031M437.404 377.859L466.267 458.204M290.473 446.107C290.473 446.107 290.473 446.108 290.473 446.108L289.992 446.242M290.473 446.107C290.473 446.106 290.473 446.106 290.472 446.105L289.992 446.242M290.473 446.107C290.513 446.246 290.558 446.387 290.606 446.536L290.607 446.54C290.654 446.687 290.704 446.842 290.749 446.999C290.801 447.182 290.85 447.376 290.881 447.579M289.992 446.242C290.034 446.391 290.082 446.541 290.13 446.69C290.274 447.136 290.417 447.583 290.417 448.03M290.881 447.579L290.473 447.533L290.417 448.03M290.881 447.579L459.076 466.352M290.881 447.579C290.904 447.726 290.917 447.877 290.917 448.03H290.417M290.417 448.03L459.076 466.352M459.076 466.352C459.025 466.458 458.974 466.563 458.923 466.664L459.371 466.888L459.426 466.391L459.076 466.352ZM459.076 466.352C459.103 466.296 459.13 466.24 459.157 466.183C459.362 465.755 459.578 465.306 459.833 464.89M459.076 466.352L460.264 465.143M459.833 464.89C459.831 464.893 459.83 464.896 459.828 464.899L460.264 465.143M459.833 464.89C459.835 464.887 459.837 464.884 459.839 464.881L460.264 465.143M459.833 464.89C461.313 462.242 463.298 459.912 465.675 458.031M460.264 465.143C461.771 462.445 463.813 460.083 466.267 458.204M465.675 458.031L465.795 458.37L466.267 458.204M465.675 458.031C465.77 457.956 465.866 457.881 465.963 457.807L466.267 458.204" stroke="white"/>
<path d="M591.8 653.464C590.671 649.417 591.197 645.087 593.26 641.427C595.324 637.766 598.757 635.076 602.804 633.947C606.852 632.818 611.182 633.343 614.842 635.407C618.502 637.47 621.193 640.903 622.322 644.951C623.163 647.967 623.091 651.166 622.115 654.142C621.139 657.117 619.302 659.737 616.837 661.669C614.372 663.601 611.389 664.758 608.266 664.995C605.144 665.232 602.021 664.538 599.292 663C597.478 661.98 595.883 660.614 594.597 658.978C593.312 657.342 592.361 655.468 591.8 653.464Z" fill="white"/>
<path d="M274.54 638.523C277.267 640.06 279.478 642.371 280.893 645.164C282.307 647.957 282.862 651.107 282.488 654.215C282.113 657.323 280.825 660.251 278.787 662.627C276.749 665.004 274.052 666.723 271.037 667.568C268.022 668.412 264.825 668.344 261.848 667.372C258.872 666.399 256.251 664.567 254.317 662.105C252.382 659.644 251.22 656.664 250.978 653.542C250.736 650.421 251.425 647.298 252.958 644.568C253.968 642.744 255.331 641.139 256.966 639.847C258.602 638.554 260.478 637.598 262.486 637.036C264.493 636.474 266.593 636.316 268.662 636.571C270.731 636.826 272.729 637.49 274.54 638.523Z" fill="white"/>
<path d="M449.821 349.087C450.948 352.918 450.536 357.037 448.673 360.568C447.683 362.32 446.358 363.86 444.773 365.101C443.187 366.342 441.371 367.259 439.43 367.799C437.489 368.339 435.461 368.491 433.461 368.247C431.462 368.002 429.53 367.366 427.776 366.375C424.244 364.375 421.649 361.057 420.559 357.147C419.47 353.239 419.974 349.059 421.96 345.522C424.015 342.098 427.324 339.611 431.183 338.589C435.045 337.566 439.154 338.091 442.635 340.052C446.116 342.013 448.694 345.254 449.821 349.087Z" stroke="white"/>
<path d="M398.072 809.562C395.804 808.283 393.886 806.465 392.488 804.267C391.09 802.07 390.256 799.562 390.059 796.965C389.862 794.369 390.308 791.763 391.358 789.38C392.409 786.997 394.031 784.91 396.08 783.304C398.13 781.697 400.544 780.621 403.109 780.171C405.674 779.72 408.311 779.909 410.785 780.721C413.26 781.533 415.496 782.943 417.295 784.825C419.095 786.708 420.402 789.005 421.102 791.513C421.921 794.527 421.834 797.715 420.851 800.679C419.868 803.643 418.033 806.251 415.575 808.178C413.117 810.104 410.145 811.263 407.032 811.509C403.919 811.755 400.803 811.078 398.072 809.562Z" fill="white"/>
<path d="M243.177 902.904L243.177 902.904L210.194 961.418C212.604 964.102 214.353 967.315 215.297 970.8C215.384 971.087 215.461 971.376 215.528 971.669L379.008 987.894C379.65 985.468 380.603 983.134 381.844 980.951M243.177 902.904L382.28 981.197M243.177 902.904L276.12 844.385M243.177 902.904L287.678 843.607M381.844 980.951C381.845 980.951 381.845 980.95 381.845 980.95L382.28 981.197M381.844 980.951C381.844 980.951 381.844 980.952 381.844 980.952L382.28 981.197M381.844 980.951C383.069 978.776 384.554 976.759 386.265 974.943M382.28 981.197C383.554 978.935 385.113 976.846 386.92 974.982M386.265 974.943L386.52 975.282L386.92 974.982M386.265 974.943L287.678 843.607M386.265 974.943C386.363 974.839 386.461 974.736 386.561 974.634L386.92 974.982M386.92 974.982L287.678 843.607M287.678 843.607C287.793 843.57 287.907 843.533 288.022 843.495L287.863 843.021L287.464 843.321L287.678 843.607ZM287.678 843.607C283.944 844.791 279.979 845.058 276.12 844.385M276.12 844.385L276.295 844.075L275.859 843.829L275.766 844.321C275.884 844.343 276.002 844.365 276.12 844.385Z" stroke="white"/>
<path d="M378.257 782.351C376.307 786.342 375.258 790.714 375.186 795.156L301.939 811.592C299.824 808.172 296.862 805.353 293.338 803.409C289.814 801.466 285.85 800.465 281.83 800.5L261.859 743.972L261.857 743.968L253.457 719.606C255.129 718.172 256.603 716.523 257.842 714.702L378.257 782.351Z" stroke="white"/>
<path d="M92.0782 810.362L259.225 829.132C260.067 833.002 261.891 836.592 264.52 839.555L199.487 954.971C195.593 954.268 191.583 954.564 187.834 955.832L85.2545 822.618C88.4565 819.123 90.7938 814.925 92.0782 810.362Z" stroke="white"/>
<path d="M230.571 1062.77L230.57 1062.76L207.149 995.888C209.582 993.974 211.612 991.597 213.123 988.893C213.445 988.335 213.742 987.762 214.016 987.179L269.978 992.72L269.978 992.72L378.671 1003.49C378.698 1003.64 378.734 1003.78 378.772 1003.91C378.805 1004.03 378.842 1004.14 378.876 1004.25L378.887 1004.28C378.925 1004.4 378.959 1004.51 378.988 1004.61L378.988 1004.61C379.501 1006.48 380.185 1008.3 381.031 1010.04L262.689 1081.21C259.844 1075.9 255.513 1071.52 250.221 1068.62C244.479 1065.35 237.838 1064.03 231.289 1064.85L230.571 1062.77Z" stroke="white"/>
<path d="M70.9974 831.452L71.0049 831.45L71.0123 831.447L72.4183 830.967L175.682 965.176C175.638 965.244 175.593 965.313 175.546 965.384C175.303 965.754 175.04 966.155 174.829 966.573C173.368 969.142 172.424 971.972 172.05 974.901L97.3132 989.394C94.8086 982.577 89.9521 976.872 83.6115 973.312C78.9507 970.668 73.6704 969.321 68.3188 969.405L65.7403 832.533C67.5226 832.34 69.283 831.978 70.9974 831.452Z" stroke="white"/>
<path d="M223.5 1087.19C225.038 1084.47 227.348 1082.26 230.138 1080.85C232.929 1079.44 236.075 1078.88 239.18 1079.25C242.286 1079.63 245.211 1080.91 247.587 1082.95C249.963 1084.98 251.684 1087.67 252.532 1090.68C253.091 1092.69 253.25 1094.78 252.999 1096.85C252.749 1098.91 252.094 1100.91 251.072 1102.72C250.05 1104.53 248.682 1106.13 247.044 1107.41C245.406 1108.69 243.532 1109.64 241.528 1110.2C239.524 1110.76 237.429 1110.92 235.364 1110.67C233.298 1110.42 231.303 1109.76 229.49 1108.74C227.678 1107.72 226.084 1106.35 224.801 1104.71C223.518 1103.07 222.569 1101.2 222.01 1099.2C220.899 1095.16 221.435 1090.84 223.5 1087.19Z" fill="white"/>
<path d="M78.0022 797.643C79.1195 801.693 78.5997 806.02 76.5549 809.69C74.758 812.882 71.9101 815.352 68.4963 816.68C65.0825 818.008 61.3139 818.111 57.8324 816.972C54.351 815.833 51.3721 813.523 49.403 810.434C47.434 807.345 46.5966 803.669 47.0335 800.033C47.4704 796.396 49.1547 793.023 51.7993 790.488C54.4439 787.954 57.8854 786.415 61.5375 786.133C65.1896 785.851 68.8265 786.844 71.8286 788.943C74.8308 791.042 77.0125 794.116 78.0022 797.643Z" fill="white"/>
<path d="M400.625 967.348L400.608 967.352L400.592 967.358L399.574 967.708L301.591 837.135C301.946 836.613 302.272 836.069 302.59 835.539L302.595 835.531L302.599 835.524L302.603 835.517C304.143 832.753 305.119 829.713 305.478 826.573L378.694 810.092C381.381 815.169 385.443 819.391 390.418 822.273C395.354 825.132 400.987 826.554 406.681 826.385L406.427 966.308C404.468 966.492 402.527 966.839 400.625 967.348Z" stroke="white"/>
<path d="M183.58 998.574L183.583 998.576C187.139 1000.56 191.153 1001.59 195.223 1001.54L218.984 1069.52L218.984 1069.52L218.989 1069.53L219.192 1070.07C215.706 1072.57 212.788 1075.78 210.628 1079.49L95.5195 1014.58C97.2124 1011.48 98.3494 1008.1 98.8786 1004.61L174.799 989.845C176.893 993.484 179.924 996.499 183.58 998.574Z" stroke="white"/>
<path d="M224.824 722.432L224.831 722.435C229.193 724.883 234.185 725.968 239.164 725.555L267.435 805.728C265.067 807.604 263.082 809.921 261.59 812.551L261.582 812.564L261.575 812.578L260.878 814.007L92.6417 795.276C92.6106 795.069 92.5625 794.868 92.5104 794.679C92.4653 794.516 92.415 794.354 92.3672 794.201L92.3553 794.163C92.3115 794.023 92.2703 793.892 92.2335 793.763C91.7532 791.982 91.0992 790.252 90.281 788.599L216.395 714.335C218.513 717.669 221.404 720.447 224.824 722.432Z" stroke="white"/>
<path d="M393.645 1001.16C392.939 998.653 392.862 996.009 393.422 993.463C393.982 990.918 395.162 988.55 396.857 986.57C398.552 984.59 400.709 983.059 403.137 982.113C405.566 981.166 408.19 980.834 410.778 981.145C413.365 981.456 415.836 982.401 417.971 983.896C420.106 985.391 421.839 987.39 423.016 989.716C424.193 992.041 424.778 994.621 424.719 997.226C424.66 999.832 423.958 1002.38 422.677 1004.65C421.153 1007.39 418.847 1009.62 416.052 1011.05C413.258 1012.47 410.103 1013.03 406.989 1012.66C403.874 1012.28 400.942 1010.99 398.566 1008.94C396.189 1006.9 394.476 1004.19 393.645 1001.16Z" fill="white"/>
<path d="M76.3419 986.135C78.1602 987.149 79.759 988.514 81.0451 990.151C82.3313 991.788 83.2792 993.664 83.8339 995.67C84.8217 999.198 84.556 1002.96 83.0819 1006.31C81.6079 1009.67 79.0167 1012.4 75.7498 1014.06C72.4829 1015.72 68.7424 1016.19 65.1656 1015.4C61.5887 1014.61 58.3967 1012.6 56.1335 1009.72C53.8702 1006.84 52.6757 1003.27 52.7533 999.605C52.831 995.942 54.176 992.42 56.5593 989.638C58.9426 986.856 62.2168 984.987 65.8239 984.348C69.4311 983.709 73.1481 984.341 76.3419 986.135Z" fill="white"/>
<path d="M250.914 708.505C249.373 711.231 247.059 713.44 244.263 714.85C241.467 716.261 238.316 716.812 235.208 716.432C232.099 716.052 229.173 714.759 226.799 712.717C224.426 710.674 222.711 707.973 221.872 704.956C221.033 701.939 221.107 698.741 222.086 695.766C223.064 692.792 224.902 690.174 227.368 688.243C229.834 686.313 232.817 685.158 235.94 684.923C239.063 684.688 242.185 685.384 244.912 686.923C248.562 688.996 251.243 692.431 252.368 696.475C253.493 700.52 252.97 704.845 250.914 708.505Z" fill="white"/>
<path d="M794.425 809.562C790.78 807.482 788.091 804.061 786.933 800.027C785.945 796.499 786.211 792.738 787.685 789.385C789.159 786.031 791.75 783.292 795.017 781.635C798.284 779.977 802.024 779.504 805.601 780.295C809.178 781.086 812.37 783.093 814.633 785.973C816.896 788.854 818.091 792.43 818.013 796.092C817.936 799.755 816.591 803.277 814.207 806.059C811.824 808.841 808.55 810.711 804.943 811.349C801.336 811.988 797.619 811.356 794.425 809.562Z" fill="white"/>
<path d="M611.7 970.833L611.697 970.818L611.693 970.803C610.716 967.321 608.955 964.111 606.546 961.419L639.529 902.904L672.515 844.385C676.36 845.058 680.311 844.791 684.031 843.607L782.658 974.94C779.176 978.576 776.667 983.032 775.362 987.894L611.879 971.668L611.7 970.833Z" stroke="white"/>
<path d="M658.38 743.968L658.38 743.968L649.767 719.6C651.415 718.156 652.873 716.51 654.108 714.701L774.529 782.353C772.625 786.357 771.604 790.723 771.537 795.156L698.461 811.592C696.343 808.166 693.374 805.343 689.842 803.398C686.31 801.454 682.337 800.457 678.31 800.499L658.38 743.968Z" stroke="white"/>
<path d="M488.471 810.532L655.581 829.132C656.454 833 658.289 836.585 660.915 839.555L595.883 954.971C591.988 954.266 587.978 954.562 584.229 955.832L481.732 822.615C483.282 820.884 484.638 818.987 485.773 816.959C486.919 814.928 487.824 812.771 488.471 810.532Z" stroke="white"/>
<path d="M609.689 988.892L609.695 988.881L609.7 988.87C609.783 988.705 609.867 988.54 609.951 988.375C610.151 987.981 610.352 987.585 610.54 987.179L666.501 992.72L666.501 992.72L775.16 1003.49C775.182 1003.87 775.258 1004.28 775.533 1004.7C776.04 1006.54 776.729 1008.33 777.59 1010.04L659.002 1081.21C656.213 1075.93 651.96 1071.56 646.747 1068.62C641.023 1065.34 634.387 1064.02 627.848 1064.85L627.093 1062.76L627.091 1062.76L603.672 995.889C606.118 993.976 608.163 991.599 609.689 988.892Z" stroke="white"/>
<path d="M467.38 831.456L467.394 831.452L467.407 831.447L468.813 830.967L572.038 965.18L571.197 966.547L571.192 966.556L571.187 966.565C569.741 969.143 568.798 971.972 568.405 974.9L493.583 989.266C491.433 983.32 487.474 978.191 482.257 974.604C477.061 971.032 470.883 969.171 464.586 969.276L462.05 832.415C463.852 832.26 465.636 831.939 467.38 831.456Z" stroke="white"/>
<path d="M619.853 1087.19C621.652 1083.99 624.506 1081.51 627.929 1080.17C631.353 1078.84 635.133 1078.73 638.626 1079.87C642.119 1081.01 645.108 1083.33 647.084 1086.43C649.06 1089.52 649.9 1093.21 649.462 1096.86C649.024 1100.51 647.334 1103.89 644.68 1106.43C642.027 1108.97 638.574 1110.52 634.91 1110.8C631.247 1111.08 627.599 1110.08 624.59 1107.97C621.58 1105.86 619.394 1102.78 618.405 1099.24C617.274 1095.19 617.795 1090.86 619.853 1087.19Z" fill="white"/>
<path d="M474.355 797.643C475.196 800.66 475.124 803.858 474.148 806.834C473.171 809.81 471.335 812.429 468.87 814.361C466.405 816.293 463.422 817.451 460.299 817.687C457.176 817.924 454.053 817.23 451.325 815.692C447.678 813.627 444.998 810.2 443.873 806.163C442.748 802.125 443.269 797.806 445.323 794.152C446.861 791.429 449.171 789.222 451.961 787.809C454.752 786.397 457.898 785.842 461.003 786.215C464.108 786.589 467.034 787.873 469.41 789.907C471.786 791.941 473.506 794.633 474.355 797.643Z" fill="white"/>
<path d="M796.978 967.348L796.961 967.352L796.944 967.358L795.926 967.708L697.944 837.135C698.298 836.613 698.624 836.069 698.942 835.539L698.948 835.531L698.948 835.531L698.954 835.519C700.513 832.763 701.491 829.718 701.832 826.572L775.047 810.092C777.742 815.162 781.805 819.378 786.778 822.259C791.712 825.117 797.341 826.543 803.034 826.384L802.822 966.307C800.849 966.488 798.893 966.836 796.978 967.348Z" stroke="white"/>
<path d="M606.939 1079.49L491.84 1014.64C493.55 1011.52 494.699 1008.12 495.231 1004.61L571.15 989.845C573.193 993.434 576.161 996.414 579.747 998.472C583.333 1000.53 587.403 1001.59 591.533 1001.54L615.334 1069.51L615.337 1069.52L615.516 1070.06C612.033 1072.57 609.113 1075.79 606.939 1079.49Z" stroke="white"/>
<path d="M657.986 812.548L657.978 812.563L657.97 812.578L657.273 814.007L489.041 795.277C488.982 794.824 488.85 794.373 488.736 793.984C488.713 793.907 488.691 793.832 488.67 793.76L488.67 793.757C488.155 791.99 487.5 790.266 486.711 788.603L612.587 714.456C614.806 717.766 617.781 720.502 621.27 722.436C625.631 724.883 630.623 725.968 635.601 725.555L663.831 805.73C661.473 807.615 659.49 809.928 657.986 812.548Z" stroke="white"/>
<path d="M789.998 1001.16C789.157 998.145 789.229 994.946 790.205 991.971C791.181 988.995 793.018 986.375 795.483 984.444C797.948 982.512 800.93 981.354 804.053 981.117C807.176 980.88 810.299 981.575 813.027 983.113C816.675 985.178 819.355 988.604 820.48 992.642C821.605 996.68 821.083 1001 819.029 1004.65C817.492 1007.38 815.182 1009.58 812.392 1011C809.601 1012.41 806.455 1012.96 803.35 1012.59C800.244 1012.22 797.319 1010.93 794.943 1008.9C792.567 1006.86 790.846 1004.17 789.998 1001.16Z" fill="white"/>
<path d="M472.695 986.135C475.412 987.672 477.613 989.98 479.019 992.767C480.425 995.555 480.974 998.696 480.595 1001.8C480.217 1004.89 478.929 1007.81 476.893 1010.18C474.857 1012.55 472.166 1014.26 469.158 1015.09C466.151 1015.93 462.963 1015.86 459.996 1014.89C457.03 1013.91 454.418 1012.08 452.492 1009.63C450.565 1007.17 449.41 1004.2 449.172 1001.08C448.934 997.972 449.624 994.858 451.155 992.137C452.165 990.319 453.527 988.719 455.16 987.431C456.793 986.143 458.666 985.192 460.67 984.633C462.674 984.075 464.769 983.92 466.833 984.178C468.897 984.436 470.89 985.101 472.695 986.135Z" fill="white"/>
<path d="M647.309 708.505C645.236 712.155 641.801 714.836 637.757 715.961C633.712 717.086 629.387 716.563 625.727 714.507C623.909 713.494 622.31 712.129 621.024 710.492C619.738 708.855 618.79 706.979 618.235 704.972C617.394 701.955 617.466 698.757 618.442 695.781C619.418 692.805 621.255 690.186 623.72 688.254C626.185 686.322 629.167 685.164 632.29 684.928C635.413 684.691 638.536 685.385 641.264 686.923C643.083 687.937 644.682 689.302 645.968 690.939C647.254 692.575 648.202 694.452 648.756 696.458C649.874 700.508 649.354 704.835 647.309 708.505Z" fill="white"/>
</g>
</svg>
