<svg width="182" height="56" viewBox="0 0 182 56" fill="none" xmlns="http://www.w3.org/2000/svg">
<rect width="182" height="56" rx="7" fill="#262C41"/>
<path d="M33.598 34V22.1H38.545C39.225 22.1 39.837 22.2643 40.381 22.593C40.9363 22.9217 41.3783 23.3693 41.707 23.936C42.0357 24.5027 42.2 25.1373 42.2 25.84C42.2 26.554 42.0357 27.2 41.707 27.778C41.3783 28.3447 40.9363 28.798 40.381 29.138C39.837 29.478 39.225 29.648 38.545 29.648H35.808V34H33.598ZM35.808 27.608H38.392C38.6753 27.608 38.9303 27.5287 39.157 27.37C39.395 27.2113 39.582 27.0017 39.718 26.741C39.8653 26.4803 39.939 26.1857 39.939 25.857C39.939 25.5283 39.8653 25.2393 39.718 24.99C39.582 24.7293 39.395 24.5253 39.157 24.378C38.9303 24.2193 38.6753 24.14 38.392 24.14H35.808V27.608ZM44.1644 34V25.041H46.2214L46.2554 27.897L45.9664 27.251C46.0911 26.7977 46.3064 26.3897 46.6124 26.027C46.9184 25.6643 47.2698 25.381 47.6664 25.177C48.0744 24.9617 48.4994 24.854 48.9414 24.854C49.1341 24.854 49.3154 24.871 49.4854 24.905C49.6668 24.939 49.8141 24.9787 49.9274 25.024L49.3664 27.319C49.2418 27.251 49.0888 27.1943 48.9074 27.149C48.7261 27.1037 48.5448 27.081 48.3634 27.081C48.0801 27.081 47.8081 27.1377 47.5474 27.251C47.2981 27.353 47.0771 27.5003 46.8844 27.693C46.6918 27.8857 46.5388 28.1123 46.4254 28.373C46.3234 28.6223 46.2724 28.9057 46.2724 29.223V34H44.1644ZM51.5577 34V25.041H53.6487V34H51.5577ZM52.5777 23.137C52.1584 23.137 51.8297 23.035 51.5917 22.831C51.365 22.6157 51.2517 22.3153 51.2517 21.93C51.2517 21.5673 51.3707 21.2727 51.6087 21.046C51.8467 20.8193 52.1697 20.706 52.5777 20.706C53.0084 20.706 53.337 20.8137 53.5637 21.029C53.8017 21.233 53.9207 21.5333 53.9207 21.93C53.9207 22.2813 53.8017 22.5703 53.5637 22.797C53.3257 23.0237 52.997 23.137 52.5777 23.137ZM59.1732 34L55.3992 25.041H57.6772L60.2272 31.739L59.7852 31.858L62.4712 25.041H64.6982L60.7372 34H59.1732ZM69.3619 34.17C68.6252 34.17 67.9565 33.966 67.3559 33.558C66.7552 33.15 66.2735 32.5947 65.9109 31.892C65.5482 31.1893 65.3669 30.3903 65.3669 29.495C65.3669 28.5997 65.5482 27.8007 65.9109 27.098C66.2735 26.3953 66.7665 25.8457 67.3899 25.449C68.0132 25.0523 68.7159 24.854 69.4979 24.854C69.9512 24.854 70.3649 24.922 70.7389 25.058C71.1129 25.1827 71.4415 25.364 71.7249 25.602C72.0082 25.84 72.2406 26.112 72.4219 26.418C72.6145 26.724 72.7449 27.0527 72.8129 27.404L72.3539 27.285V25.041H74.4619V34H72.3369V31.858L72.8299 31.773C72.7505 32.079 72.6032 32.3793 72.3879 32.674C72.1839 32.9573 71.9232 33.2123 71.6059 33.439C71.2999 33.6543 70.9542 33.83 70.5689 33.966C70.1949 34.102 69.7925 34.17 69.3619 34.17ZM69.9399 32.317C70.4272 32.317 70.8579 32.198 71.2319 31.96C71.6059 31.722 71.8949 31.3933 72.0989 30.974C72.3142 30.5433 72.4219 30.0503 72.4219 29.495C72.4219 28.951 72.3142 28.4693 72.0989 28.05C71.8949 27.6307 71.6059 27.302 71.2319 27.064C70.8579 26.826 70.4272 26.707 69.9399 26.707C69.4525 26.707 69.0219 26.826 68.6479 27.064C68.2852 27.302 68.0019 27.6307 67.7979 28.05C67.5939 28.4693 67.4919 28.951 67.4919 29.495C67.4919 30.0503 67.5939 30.5433 67.7979 30.974C68.0019 31.3933 68.2852 31.722 68.6479 31.96C69.0219 32.198 69.4525 32.317 69.9399 32.317ZM80.7281 34.17C79.8894 34.17 79.1358 33.966 78.4671 33.558C77.7984 33.15 77.2714 32.5947 76.8861 31.892C76.5008 31.1893 76.3081 30.396 76.3081 29.512C76.3081 28.628 76.5008 27.8347 76.8861 27.132C77.2714 26.4293 77.7984 25.874 78.4671 25.466C79.1358 25.058 79.8894 24.854 80.7281 24.854C81.5328 24.854 82.2638 25.007 82.9211 25.313C83.5784 25.619 84.0884 26.044 84.4511 26.588L83.2951 27.982C83.1251 27.744 82.9098 27.5287 82.6491 27.336C82.3884 27.1433 82.1108 26.9903 81.8161 26.877C81.5214 26.7637 81.2268 26.707 80.9321 26.707C80.4334 26.707 79.9858 26.8317 79.5891 27.081C79.2038 27.319 78.8978 27.6533 78.6711 28.084C78.4444 28.5033 78.3311 28.9793 78.3311 29.512C78.3311 30.0447 78.4444 30.5207 78.6711 30.94C78.9091 31.3593 79.2264 31.6937 79.6231 31.943C80.0198 32.1923 80.4618 32.317 80.9491 32.317C81.2438 32.317 81.5271 32.2717 81.7991 32.181C82.0824 32.079 82.3488 31.9373 82.5981 31.756C82.8474 31.5747 83.0798 31.348 83.2951 31.076L84.4511 32.487C84.0658 32.9857 83.5331 33.3937 82.8531 33.711C82.1844 34.017 81.4761 34.17 80.7281 34.17ZM87.1611 37.91L89.0651 33.507L89.0821 34.901L84.6621 25.041H87.0761L89.5411 30.889C89.6205 31.0363 89.6998 31.2347 89.7791 31.484C89.8585 31.722 89.9265 31.96 89.9831 32.198L89.5581 32.334C89.6375 32.1187 89.7225 31.892 89.8131 31.654C89.9038 31.4047 89.9888 31.1497 90.0681 30.889L92.1761 25.041H94.6071L90.8671 34L89.3371 37.91H87.1611ZM101.283 34V22.1H106.23C106.91 22.1 107.522 22.2643 108.066 22.593C108.621 22.9217 109.063 23.3693 109.392 23.936C109.72 24.5027 109.885 25.1373 109.885 25.84C109.885 26.554 109.72 27.2 109.392 27.778C109.063 28.3447 108.621 28.798 108.066 29.138C107.522 29.478 106.91 29.648 106.23 29.648H103.493V34H101.283ZM103.493 27.608H106.077C106.36 27.608 106.615 27.5287 106.842 27.37C107.08 27.2113 107.267 27.0017 107.403 26.741C107.55 26.4803 107.624 26.1857 107.624 25.857C107.624 25.5283 107.55 25.2393 107.403 24.99C107.267 24.7293 107.08 24.5253 106.842 24.378C106.615 24.2193 106.36 24.14 106.077 24.14H103.493V27.608ZM115.78 34.17C114.885 34.17 114.086 33.9717 113.383 33.575C112.68 33.167 112.125 32.6117 111.717 31.909C111.309 31.2063 111.105 30.4073 111.105 29.512C111.105 28.6167 111.309 27.8177 111.717 27.115C112.125 26.4123 112.68 25.8627 113.383 25.466C114.086 25.058 114.885 24.854 115.78 24.854C116.664 24.854 117.457 25.058 118.16 25.466C118.863 25.8627 119.412 26.4123 119.809 27.115C120.217 27.8177 120.421 28.6167 120.421 29.512C120.421 30.4073 120.217 31.2063 119.809 31.909C119.412 32.6117 118.863 33.167 118.16 33.575C117.457 33.9717 116.664 34.17 115.78 34.17ZM115.78 32.317C116.267 32.317 116.698 32.1923 117.072 31.943C117.457 31.6937 117.758 31.3593 117.973 30.94C118.2 30.5207 118.307 30.0447 118.296 29.512C118.307 28.968 118.2 28.4863 117.973 28.067C117.758 27.6477 117.457 27.319 117.072 27.081C116.698 26.8317 116.267 26.707 115.78 26.707C115.293 26.707 114.851 26.8317 114.454 27.081C114.069 27.319 113.768 27.6533 113.553 28.084C113.338 28.5033 113.23 28.9793 113.23 29.512C113.23 30.0447 113.338 30.5207 113.553 30.94C113.768 31.3593 114.069 31.6937 114.454 31.943C114.851 32.1923 115.293 32.317 115.78 32.317ZM122.308 34V21.42H124.416V34H122.308ZM127.111 34V25.041H129.202V34H127.111ZM128.131 23.137C127.712 23.137 127.383 23.035 127.145 22.831C126.919 22.6157 126.805 22.3153 126.805 21.93C126.805 21.5673 126.924 21.2727 127.162 21.046C127.4 20.8193 127.723 20.706 128.131 20.706C128.562 20.706 128.891 20.8137 129.117 21.029C129.355 21.233 129.474 21.5333 129.474 21.93C129.474 22.2813 129.355 22.5703 129.117 22.797C128.879 23.0237 128.551 23.137 128.131 23.137ZM135.696 34.17C134.857 34.17 134.104 33.966 133.435 33.558C132.766 33.15 132.239 32.5947 131.854 31.892C131.469 31.1893 131.276 30.396 131.276 29.512C131.276 28.628 131.469 27.8347 131.854 27.132C132.239 26.4293 132.766 25.874 133.435 25.466C134.104 25.058 134.857 24.854 135.696 24.854C136.501 24.854 137.232 25.007 137.889 25.313C138.546 25.619 139.056 26.044 139.419 26.588L138.263 27.982C138.093 27.744 137.878 27.5287 137.617 27.336C137.356 27.1433 137.079 26.9903 136.784 26.877C136.489 26.7637 136.195 26.707 135.9 26.707C135.401 26.707 134.954 26.8317 134.557 27.081C134.172 27.319 133.866 27.6533 133.639 28.084C133.412 28.5033 133.299 28.9793 133.299 29.512C133.299 30.0447 133.412 30.5207 133.639 30.94C133.877 31.3593 134.194 31.6937 134.591 31.943C134.988 32.1923 135.43 32.317 135.917 32.317C136.212 32.317 136.495 32.2717 136.767 32.181C137.05 32.079 137.317 31.9373 137.566 31.756C137.815 31.5747 138.048 31.348 138.263 31.076L139.419 32.487C139.034 32.9857 138.501 33.3937 137.821 33.711C137.152 34.017 136.444 34.17 135.696 34.17ZM142.129 37.91L144.033 33.507L144.05 34.901L139.63 25.041H142.044L144.509 30.889C144.588 31.0363 144.668 31.2347 144.747 31.484C144.826 31.722 144.894 31.96 144.951 32.198L144.526 32.334C144.605 32.1187 144.69 31.892 144.781 31.654C144.872 31.4047 144.957 31.1497 145.036 30.889L147.144 25.041H149.575L145.835 34L144.305 37.91H142.129Z" fill="white"/>
</svg>
