<svg width="104" height="104" viewBox="0 0 104 104" fill="none" xmlns="http://www.w3.org/2000/svg">
<path opacity="0.2" d="M43.875 58.5H16.25C15.388 58.5 14.5614 58.1576 13.9519 57.5481C13.3424 56.9386 13 56.112 13 55.25V29.25C13 28.388 13.3424 27.5614 13.9519 26.9519C14.5614 26.3424 15.388 26 16.25 26H40.625C41.487 26 42.3136 26.3424 42.9231 26.9519C43.5326 27.5614 43.875 28.388 43.875 29.25V58.5Z" fill="url(#paint0_linear_114_5331)"/>
<path opacity="0.2" d="M91 58.5H63.375C62.513 58.5 61.6864 58.1576 61.0769 57.5481C60.4674 56.9386 60.125 56.112 60.125 55.25V29.25C60.125 28.388 60.4674 27.5614 61.0769 26.9519C61.6864 26.3424 62.513 26 63.375 26H87.75C88.612 26 89.4386 26.3424 90.0481 26.9519C90.6576 27.5614 91 28.388 91 29.25V58.5Z" fill="url(#paint1_linear_114_5331)"/>
<path d="M43.875 58.5H16.25C15.388 58.5 14.5614 58.1576 13.9519 57.5481C13.3424 56.9386 13 56.112 13 55.25V29.25C13 28.388 13.3424 27.5614 13.9519 26.9519C14.5614 26.3424 15.388 26 16.25 26H40.625C41.487 26 42.3136 26.3424 42.9231 26.9519C43.5326 27.5614 43.875 28.388 43.875 29.25V65C43.875 69.3098 42.163 73.443 39.1155 76.4905C36.068 79.538 31.9348 81.25 27.625 81.25" stroke="url(#paint2_linear_114_5331)" stroke-width="6.70968" stroke-linecap="round" stroke-linejoin="round"/>
<path d="M91 58.5H63.375C62.513 58.5 61.6864 58.1576 61.0769 57.5481C60.4674 56.9386 60.125 56.112 60.125 55.25V29.25C60.125 28.388 60.4674 27.5614 61.0769 26.9519C61.6864 26.3424 62.513 26 63.375 26H87.75C88.612 26 89.4386 26.3424 90.0481 26.9519C90.6576 27.5614 91 28.388 91 29.25V65C91 69.3098 89.288 73.443 86.2405 76.4905C83.193 79.538 79.0598 81.25 74.75 81.25" stroke="url(#paint3_linear_114_5331)" stroke-width="6.70968" stroke-linecap="round" stroke-linejoin="round"/>
<defs>
<linearGradient id="paint0_linear_114_5331" x1="41.0258" y1="47.7449" x2="12.7676" y2="54.9261" gradientUnits="userSpaceOnUse">
<stop stop-color="#6FBE59"/>
<stop offset="1" stop-color="#37AE37"/>
</linearGradient>
<linearGradient id="paint1_linear_114_5331" x1="88.1508" y1="47.7449" x2="59.8926" y2="54.9261" gradientUnits="userSpaceOnUse">
<stop stop-color="#6FBE59"/>
<stop offset="1" stop-color="#37AE37"/>
</linearGradient>
<linearGradient id="paint2_linear_114_5331" x1="41.0258" y1="62.9664" x2="11.6002" y2="67.3651" gradientUnits="userSpaceOnUse">
<stop stop-color="#6FBE59"/>
<stop offset="1" stop-color="#37AE37"/>
</linearGradient>
<linearGradient id="paint3_linear_114_5331" x1="88.1508" y1="62.9664" x2="58.7252" y2="67.3651" gradientUnits="userSpaceOnUse">
<stop stop-color="#6FBE59"/>
<stop offset="1" stop-color="#37AE37"/>
</linearGradient>
</defs>
</svg>
