<svg width="40" height="40" viewBox="0 0 40 40" fill="none" xmlns="http://www.w3.org/2000/svg">
<path d="M21.4417 4.99376C20.7994 3.88685 19.2008 3.88684 18.5585 4.99376L14.0351 12.7893C13.7178 13.3361 13.1694 13.7092 12.5443 13.8036L4.06712 15.084C2.64332 15.2991 2.14389 17.0968 3.25273 18.0154L9.56788 23.2475C10.1525 23.7318 10.4273 24.4957 10.2853 25.2414L8.63337 33.9167C8.37223 35.2881 9.81187 36.3536 11.0471 35.7032L19.0295 31.5001C19.637 31.1802 20.3632 31.1802 20.9707 31.5001L28.9531 35.7032C30.1883 36.3536 31.628 35.2881 31.3668 33.9167L29.7149 25.2414C29.5729 24.4957 29.8478 23.7318 30.4323 23.2475L36.7475 18.0154C37.8563 17.0968 37.3569 15.2991 35.9331 15.084L27.4559 13.8037C26.8308 13.7092 26.2824 13.3361 25.9651 12.7893L21.4417 4.99376Z" fill="url(#paint0_linear_114_5314)"/>
<defs>
<linearGradient id="paint0_linear_114_5314" x1="34.1498" y1="25.3969" x2="3.00076" y2="34.509" gradientUnits="userSpaceOnUse">
<stop stop-color="#6FBE59"/>
<stop offset="1" stop-color="#37AE37"/>
</linearGradient>
</defs>
</svg>
