<svg width="526" height="288" viewBox="0 0 526 288" fill="none" xmlns="http://www.w3.org/2000/svg">
<rect width="526" height="288" rx="12" fill="white"/>
<path d="M56 69L56 231" stroke="url(#paint0_linear_92_24697)" stroke-width="2" stroke-dasharray="8 8"/>
<path d="M56 69L56 121" stroke="#2E9546" stroke-width="2"/>
<circle cx="56" cy="56" r="24" fill="#2E9546"/>
<path d="M55.5247 66.72V51.24H52.0927V48.84H58.3327V66.72H55.5247Z" fill="white"/>
<path d="M97.66 64V49.1H102.92C103.907 49.1 104.773 49.2867 105.52 49.66C106.267 50.0333 106.847 50.5667 107.26 51.26C107.687 51.9533 107.9 52.7667 107.9 53.7C107.9 54.7533 107.633 55.6467 107.1 56.38C106.567 57.1133 105.847 57.64 104.94 57.96L108.4 64H106.12L102.48 57.54L103.78 58.3H99.62V64H97.66ZM99.62 56.5H102.98C103.567 56.5 104.08 56.3867 104.52 56.16C104.96 55.9333 105.3 55.6067 105.54 55.18C105.793 54.7533 105.92 54.26 105.92 53.7C105.92 53.1267 105.793 52.6333 105.54 52.22C105.3 51.7933 104.96 51.4667 104.52 51.24C104.08 51.0133 103.567 50.9 102.98 50.9H99.62V56.5ZM114.363 64.24C113.323 64.24 112.397 63.9933 111.583 63.5C110.77 63.0067 110.13 62.3333 109.663 61.48C109.197 60.6133 108.963 59.6467 108.963 58.58C108.963 57.5 109.19 56.54 109.643 55.7C110.11 54.86 110.737 54.2 111.523 53.72C112.323 53.2267 113.217 52.98 114.203 52.98C115.003 52.98 115.71 53.1267 116.323 53.42C116.95 53.7 117.477 54.0867 117.903 54.58C118.343 55.06 118.677 55.6133 118.903 56.24C119.143 56.8533 119.263 57.4933 119.263 58.16C119.263 58.3067 119.25 58.4733 119.223 58.66C119.21 58.8333 119.19 59 119.163 59.16H110.323V57.56H118.083L117.203 58.28C117.323 57.5867 117.257 56.9667 117.003 56.42C116.75 55.8733 116.377 55.44 115.883 55.12C115.39 54.8 114.83 54.64 114.203 54.64C113.577 54.64 113.003 54.8 112.483 55.12C111.963 55.44 111.557 55.9 111.263 56.5C110.983 57.0867 110.87 57.7867 110.923 58.6C110.87 59.3867 110.99 60.08 111.283 60.68C111.59 61.2667 112.017 61.7267 112.563 62.06C113.123 62.38 113.73 62.54 114.383 62.54C115.103 62.54 115.71 62.3733 116.203 62.04C116.697 61.7067 117.097 61.28 117.403 60.76L118.963 61.56C118.75 62.0533 118.417 62.5067 117.963 62.92C117.523 63.32 116.997 63.64 116.383 63.88C115.783 64.12 115.11 64.24 114.363 64.24ZM126.428 68.4C125.668 68.4 124.962 68.28 124.308 68.04C123.668 67.8 123.115 67.4667 122.648 67.04C122.195 66.6267 121.848 66.14 121.608 65.58L123.348 64.78C123.535 65.2867 123.888 65.7133 124.408 66.06C124.942 66.42 125.608 66.6 126.408 66.6C127.022 66.6 127.575 66.48 128.068 66.24C128.575 66.0133 128.975 65.6667 129.268 65.2C129.562 64.7467 129.708 64.1933 129.708 63.54V61.12L130.048 61.48C129.675 62.2133 129.135 62.7733 128.428 63.16C127.735 63.5467 126.968 63.74 126.128 63.74C125.115 63.74 124.208 63.5067 123.408 63.04C122.608 62.56 121.982 61.9133 121.528 61.1C121.075 60.2733 120.848 59.36 120.848 58.36C120.848 57.3467 121.075 56.4333 121.528 55.62C121.982 54.8067 122.602 54.1667 123.388 53.7C124.188 53.22 125.095 52.98 126.108 52.98C126.948 52.98 127.708 53.1733 128.388 53.56C129.082 53.9333 129.635 54.4533 130.048 55.12L129.768 55.62V53.22H131.588V63.54C131.588 64.4733 131.368 65.3067 130.928 66.04C130.488 66.7733 129.875 67.3467 129.088 67.76C128.315 68.1867 127.428 68.4 126.428 68.4ZM126.288 61.94C126.928 61.94 127.502 61.78 128.008 61.46C128.528 61.14 128.942 60.7133 129.248 60.18C129.555 59.6333 129.708 59.0267 129.708 58.36C129.708 57.7067 129.555 57.1067 129.248 56.56C128.942 56.0133 128.528 55.58 128.008 55.26C127.502 54.94 126.928 54.78 126.288 54.78C125.635 54.78 125.042 54.94 124.508 55.26C123.975 55.58 123.555 56.0133 123.248 56.56C122.955 57.0933 122.808 57.6933 122.808 58.36C122.808 59.0267 122.955 59.6333 123.248 60.18C123.555 60.7133 123.968 61.14 124.488 61.46C125.022 61.78 125.622 61.94 126.288 61.94ZM134.072 64V53.22H135.932V64H134.072ZM134.072 51.5V49.1H135.932V51.5H134.072ZM142.278 64.24C141.198 64.24 140.258 63.9733 139.458 63.44C138.658 62.9067 138.091 62.1867 137.758 61.28L139.238 60.56C139.545 61.2 139.965 61.7067 140.498 62.08C141.031 62.4533 141.625 62.64 142.278 62.64C142.865 62.64 143.351 62.5 143.738 62.22C144.125 61.94 144.318 61.5733 144.318 61.12C144.318 60.8 144.225 60.5467 144.038 60.36C143.865 60.16 143.651 60.0067 143.398 59.9C143.145 59.78 142.911 59.6933 142.698 59.64L141.078 59.18C140.105 58.9 139.391 58.5 138.938 57.98C138.498 57.46 138.278 56.8533 138.278 56.16C138.278 55.52 138.438 54.9667 138.758 54.5C139.091 54.02 139.538 53.6467 140.098 53.38C140.671 53.1133 141.311 52.98 142.018 52.98C142.965 52.98 143.811 53.22 144.558 53.7C145.318 54.18 145.858 54.8533 146.178 55.72L144.658 56.42C144.418 55.86 144.058 55.42 143.578 55.1C143.098 54.7667 142.558 54.6 141.958 54.6C141.411 54.6 140.978 54.74 140.658 55.02C140.338 55.2867 140.178 55.6267 140.178 56.04C140.178 56.3467 140.258 56.6 140.418 56.8C140.578 56.9867 140.771 57.1333 140.998 57.24C141.225 57.3333 141.445 57.4133 141.658 57.48L143.418 58C144.298 58.2533 144.978 58.6467 145.458 59.18C145.951 59.7133 146.198 60.3533 146.198 61.1C146.198 61.7 146.031 62.24 145.698 62.72C145.365 63.2 144.905 63.5733 144.318 63.84C143.731 64.1067 143.051 64.24 142.278 64.24ZM152.613 64.12C151.56 64.12 150.746 63.82 150.173 63.22C149.613 62.62 149.333 61.7733 149.333 60.68V55H147.373V53.22H147.773C148.253 53.22 148.633 53.0733 148.913 52.78C149.193 52.4867 149.333 52.1 149.333 51.62V50.74H151.193V53.22H153.613V55H151.193V60.62C151.193 60.98 151.246 61.2933 151.353 61.56C151.473 61.8267 151.666 62.04 151.933 62.2C152.2 62.3467 152.553 62.42 152.993 62.42C153.086 62.42 153.2 62.4133 153.333 62.4C153.48 62.3867 153.613 62.3733 153.733 62.36V64C153.56 64.04 153.366 64.0667 153.153 64.08C152.94 64.1067 152.76 64.12 152.613 64.12ZM160.43 64.24C159.39 64.24 158.463 63.9933 157.65 63.5C156.836 63.0067 156.196 62.3333 155.73 61.48C155.263 60.6133 155.03 59.6467 155.03 58.58C155.03 57.5 155.256 56.54 155.71 55.7C156.176 54.86 156.803 54.2 157.59 53.72C158.39 53.2267 159.283 52.98 160.27 52.98C161.07 52.98 161.776 53.1267 162.39 53.42C163.016 53.7 163.543 54.0867 163.97 54.58C164.41 55.06 164.743 55.6133 164.97 56.24C165.21 56.8533 165.33 57.4933 165.33 58.16C165.33 58.3067 165.316 58.4733 165.29 58.66C165.276 58.8333 165.256 59 165.23 59.16H156.39V57.56H164.15L163.27 58.28C163.39 57.5867 163.323 56.9667 163.07 56.42C162.816 55.8733 162.443 55.44 161.95 55.12C161.456 54.8 160.896 54.64 160.27 54.64C159.643 54.64 159.07 54.8 158.55 55.12C158.03 55.44 157.623 55.9 157.33 56.5C157.05 57.0867 156.936 57.7867 156.99 58.6C156.936 59.3867 157.056 60.08 157.35 60.68C157.656 61.2667 158.083 61.7267 158.63 62.06C159.19 62.38 159.796 62.54 160.45 62.54C161.17 62.54 161.776 62.3733 162.27 62.04C162.763 61.7067 163.163 61.28 163.47 60.76L165.03 61.56C164.816 62.0533 164.483 62.5067 164.03 62.92C163.59 63.32 163.063 63.64 162.45 63.88C161.85 64.12 161.176 64.24 160.43 64.24ZM167.355 64V53.22H169.175V55.2L168.975 54.92C169.228 54.3067 169.615 53.8533 170.135 53.56C170.655 53.2533 171.288 53.1 172.035 53.1H172.695V54.86H171.755C170.995 54.86 170.382 55.1 169.915 55.58C169.448 56.0467 169.215 56.7133 169.215 57.58V64H167.355ZM177.584 68.4C177.344 68.4 177.104 68.38 176.864 68.34C176.624 68.3133 176.397 68.2533 176.184 68.16V66.5C176.331 66.5133 176.511 66.54 176.724 66.58C176.951 66.62 177.171 66.64 177.384 66.64C178.011 66.64 178.484 66.5 178.804 66.22C179.137 65.94 179.451 65.4667 179.744 64.8L180.424 63.18L180.384 64.8L175.784 53.22H177.804L181.384 62.42H180.784L184.344 53.22H186.404L181.544 65.28C181.317 65.8533 181.024 66.38 180.664 66.86C180.317 67.34 179.891 67.7133 179.384 67.98C178.877 68.26 178.277 68.4 177.584 68.4ZM192.583 64.24C191.543 64.24 190.603 64 189.763 63.52C188.923 63.0267 188.257 62.3533 187.763 61.5C187.27 60.6467 187.023 59.68 187.023 58.6C187.023 57.52 187.263 56.56 187.743 55.72C188.237 54.88 188.903 54.2133 189.743 53.72C190.583 53.2267 191.53 52.98 192.583 52.98C193.623 52.98 194.563 53.2267 195.403 53.72C196.243 54.2 196.903 54.86 197.383 55.7C197.877 56.54 198.123 57.5067 198.123 58.6C198.123 59.6933 197.87 60.6667 197.363 61.52C196.857 62.36 196.183 63.0267 195.343 63.52C194.517 64 193.597 64.24 192.583 64.24ZM192.583 62.44C193.25 62.44 193.85 62.2733 194.383 61.94C194.93 61.6067 195.357 61.1467 195.663 60.56C195.983 59.9733 196.143 59.32 196.143 58.6C196.143 57.8667 195.983 57.22 195.663 56.66C195.357 56.0867 194.93 55.6333 194.383 55.3C193.85 54.9533 193.25 54.78 192.583 54.78C191.903 54.78 191.29 54.9533 190.743 55.3C190.21 55.6333 189.783 56.0867 189.463 56.66C189.143 57.22 188.983 57.8667 188.983 58.6C188.983 59.32 189.143 59.9733 189.463 60.56C189.783 61.1467 190.21 61.6067 190.743 61.94C191.29 62.2733 191.903 62.44 192.583 62.44ZM203.969 64.24C203.196 64.24 202.496 64.06 201.869 63.7C201.256 63.34 200.776 62.84 200.429 62.2C200.096 61.5467 199.929 60.8 199.929 59.96V53.22H201.789V59.76C201.789 60.2933 201.896 60.76 202.109 61.16C202.336 61.56 202.643 61.8733 203.029 62.1C203.429 62.3267 203.883 62.44 204.389 62.44C204.896 62.44 205.343 62.3267 205.729 62.1C206.129 61.8733 206.436 61.5467 206.649 61.12C206.876 60.6933 206.989 60.1867 206.989 59.6V53.22H208.869V64H207.049V61.9L207.349 62.08C207.096 62.76 206.663 63.2933 206.049 63.68C205.449 64.0533 204.756 64.24 203.969 64.24ZM211.351 64V53.22H213.171V55.2L212.971 54.92C213.224 54.3067 213.611 53.8533 214.131 53.56C214.651 53.2533 215.284 53.1 216.031 53.1H216.691V54.86H215.751C214.991 54.86 214.378 55.1 213.911 55.58C213.444 56.0467 213.211 56.7133 213.211 57.58V64H211.351ZM226.12 64.24C225.08 64.24 224.14 64 223.3 63.52C222.46 63.0267 221.793 62.3533 221.3 61.5C220.807 60.6467 220.56 59.68 220.56 58.6C220.56 57.52 220.8 56.56 221.28 55.72C221.773 54.88 222.44 54.2133 223.28 53.72C224.12 53.2267 225.067 52.98 226.12 52.98C227.16 52.98 228.1 53.2267 228.94 53.72C229.78 54.2 230.44 54.86 230.92 55.7C231.413 56.54 231.66 57.5067 231.66 58.6C231.66 59.6933 231.407 60.6667 230.9 61.52C230.393 62.36 229.72 63.0267 228.88 63.52C228.053 64 227.133 64.24 226.12 64.24ZM226.12 62.44C226.787 62.44 227.387 62.2733 227.92 61.94C228.467 61.6067 228.893 61.1467 229.2 60.56C229.52 59.9733 229.68 59.32 229.68 58.6C229.68 57.8667 229.52 57.22 229.2 56.66C228.893 56.0867 228.467 55.6333 227.92 55.3C227.387 54.9533 226.787 54.78 226.12 54.78C225.44 54.78 224.827 54.9533 224.28 55.3C223.747 55.6333 223.32 56.0867 223 56.66C222.68 57.22 222.52 57.8667 222.52 58.6C222.52 59.32 222.68 59.9733 223 60.56C223.32 61.1467 223.747 61.6067 224.28 61.94C224.827 62.2733 225.44 62.44 226.12 62.44ZM233.686 64V53.22H235.506V55.32L235.206 55.14C235.473 54.46 235.899 53.9333 236.486 53.56C237.086 53.1733 237.786 52.98 238.586 52.98C239.359 52.98 240.046 53.1533 240.646 53.5C241.259 53.8467 241.739 54.3267 242.086 54.94C242.446 55.5533 242.626 56.2467 242.626 57.02V64H240.746V57.62C240.746 57.02 240.639 56.5133 240.426 56.1C240.213 55.6867 239.906 55.3667 239.506 55.14C239.119 54.9 238.673 54.78 238.166 54.78C237.659 54.78 237.206 54.9 236.806 55.14C236.419 55.3667 236.113 55.6933 235.886 56.12C235.659 56.5333 235.546 57.0333 235.546 57.62V64H233.686ZM249.848 64.24C248.808 64.24 247.881 63.9933 247.068 63.5C246.254 63.0067 245.614 62.3333 245.148 61.48C244.681 60.6133 244.448 59.6467 244.448 58.58C244.448 57.5 244.674 56.54 245.128 55.7C245.594 54.86 246.221 54.2 247.008 53.72C247.808 53.2267 248.701 52.98 249.688 52.98C250.488 52.98 251.194 53.1267 251.808 53.42C252.434 53.7 252.961 54.0867 253.388 54.58C253.828 55.06 254.161 55.6133 254.388 56.24C254.628 56.8533 254.748 57.4933 254.748 58.16C254.748 58.3067 254.734 58.4733 254.708 58.66C254.694 58.8333 254.674 59 254.648 59.16H245.808V57.56H253.568L252.688 58.28C252.808 57.5867 252.741 56.9667 252.488 56.42C252.234 55.8733 251.861 55.44 251.368 55.12C250.874 54.8 250.314 54.64 249.688 54.64C249.061 54.64 248.488 54.8 247.968 55.12C247.448 55.44 247.041 55.9 246.748 56.5C246.468 57.0867 246.354 57.7867 246.408 58.6C246.354 59.3867 246.474 60.08 246.768 60.68C247.074 61.2667 247.501 61.7267 248.048 62.06C248.608 62.38 249.214 62.54 249.868 62.54C250.588 62.54 251.194 62.3733 251.688 62.04C252.181 61.7067 252.581 61.28 252.888 60.76L254.448 61.56C254.234 62.0533 253.901 62.5067 253.448 62.92C253.008 63.32 252.481 63.64 251.868 63.88C251.268 64.12 250.594 64.24 249.848 64.24ZM259.577 64L255.357 53.22H257.437L260.817 62.34H260.097L263.497 53.22H265.577L261.337 64H259.577ZM269.611 64.24C268.904 64.24 268.278 64.1133 267.731 63.86C267.198 63.5933 266.778 63.2333 266.471 62.78C266.164 62.3133 266.011 61.78 266.011 61.18C266.011 60.6067 266.131 60.0933 266.371 59.64C266.624 59.1733 267.011 58.78 267.531 58.46C268.064 58.14 268.731 57.9133 269.531 57.78L273.531 57.12V58.68L269.951 59.28C269.258 59.4 268.751 59.62 268.431 59.94C268.124 60.26 267.971 60.6533 267.971 61.12C267.971 61.56 268.144 61.9267 268.491 62.22C268.851 62.5133 269.298 62.66 269.831 62.66C270.511 62.66 271.098 62.52 271.591 62.24C272.098 61.9467 272.491 61.5533 272.771 61.06C273.064 60.5667 273.211 60.02 273.211 59.42V56.68C273.211 56.0933 272.991 55.62 272.551 55.26C272.124 54.8867 271.558 54.7 270.851 54.7C270.238 54.7 269.691 54.86 269.211 55.18C268.744 55.4867 268.398 55.9 268.171 56.42L266.551 55.58C266.751 55.0867 267.071 54.6467 267.511 54.26C267.951 53.86 268.464 53.5467 269.051 53.32C269.638 53.0933 270.251 52.98 270.891 52.98C271.718 52.98 272.444 53.14 273.071 53.46C273.698 53.7667 274.184 54.2 274.531 54.76C274.891 55.3067 275.071 55.9467 275.071 56.68V64H273.251V61.96L273.591 62.08C273.364 62.5067 273.058 62.88 272.671 63.2C272.284 63.52 271.831 63.7733 271.311 63.96C270.791 64.1467 270.224 64.24 269.611 64.24ZM281.415 64.24C280.335 64.24 279.395 63.9733 278.595 63.44C277.795 62.9067 277.228 62.1867 276.895 61.28L278.375 60.56C278.682 61.2 279.102 61.7067 279.635 62.08C280.168 62.4533 280.762 62.64 281.415 62.64C282.002 62.64 282.488 62.5 282.875 62.22C283.262 61.94 283.455 61.5733 283.455 61.12C283.455 60.8 283.362 60.5467 283.175 60.36C283.002 60.16 282.788 60.0067 282.535 59.9C282.282 59.78 282.048 59.6933 281.835 59.64L280.215 59.18C279.242 58.9 278.528 58.5 278.075 57.98C277.635 57.46 277.415 56.8533 277.415 56.16C277.415 55.52 277.575 54.9667 277.895 54.5C278.228 54.02 278.675 53.6467 279.235 53.38C279.808 53.1133 280.448 52.98 281.155 52.98C282.102 52.98 282.948 53.22 283.695 53.7C284.455 54.18 284.995 54.8533 285.315 55.72L283.795 56.42C283.555 55.86 283.195 55.42 282.715 55.1C282.235 54.7667 281.695 54.6 281.095 54.6C280.548 54.6 280.115 54.74 279.795 55.02C279.475 55.2867 279.315 55.6267 279.315 56.04C279.315 56.3467 279.395 56.6 279.555 56.8C279.715 56.9867 279.908 57.1333 280.135 57.24C280.362 57.3333 280.582 57.4133 280.795 57.48L282.555 58C283.435 58.2533 284.115 58.6467 284.595 59.18C285.088 59.7133 285.335 60.3533 285.335 61.1C285.335 61.7 285.168 62.24 284.835 62.72C284.502 63.2 284.042 63.5733 283.455 63.84C282.868 64.1067 282.188 64.24 281.415 64.24ZM293.587 64.24C292.88 64.24 292.253 64.1133 291.707 63.86C291.173 63.5933 290.753 63.2333 290.447 62.78C290.14 62.3133 289.987 61.78 289.987 61.18C289.987 60.6067 290.107 60.0933 290.347 59.64C290.6 59.1733 290.987 58.78 291.507 58.46C292.04 58.14 292.707 57.9133 293.507 57.78L297.507 57.12V58.68L293.927 59.28C293.233 59.4 292.727 59.62 292.407 59.94C292.1 60.26 291.947 60.6533 291.947 61.12C291.947 61.56 292.12 61.9267 292.467 62.22C292.827 62.5133 293.273 62.66 293.807 62.66C294.487 62.66 295.073 62.52 295.567 62.24C296.073 61.9467 296.467 61.5533 296.747 61.06C297.04 60.5667 297.187 60.02 297.187 59.42V56.68C297.187 56.0933 296.967 55.62 296.527 55.26C296.1 54.8867 295.533 54.7 294.827 54.7C294.213 54.7 293.667 54.86 293.187 55.18C292.72 55.4867 292.373 55.9 292.147 56.42L290.527 55.58C290.727 55.0867 291.047 54.6467 291.487 54.26C291.927 53.86 292.44 53.5467 293.027 53.32C293.613 53.0933 294.227 52.98 294.867 52.98C295.693 52.98 296.42 53.14 297.047 53.46C297.673 53.7667 298.16 54.2 298.507 54.76C298.867 55.3067 299.047 55.9467 299.047 56.68V64H297.227V61.96L297.567 62.08C297.34 62.5067 297.033 62.88 296.647 63.2C296.26 63.52 295.807 63.7733 295.287 63.96C294.767 64.1467 294.2 64.24 293.587 64.24ZM306.531 64.24C305.477 64.24 304.537 63.9933 303.711 63.5C302.897 63.0067 302.257 62.3333 301.791 61.48C301.324 60.6267 301.091 59.6667 301.091 58.6C301.091 57.52 301.324 56.56 301.791 55.72C302.257 54.88 302.897 54.2133 303.711 53.72C304.537 53.2267 305.477 52.98 306.531 52.98C307.237 52.98 307.897 53.1067 308.511 53.36C309.124 53.6133 309.664 53.9533 310.131 54.38C310.597 54.8067 310.937 55.3067 311.151 55.88L309.491 56.68C309.237 56.12 308.851 55.6667 308.331 55.32C307.811 54.96 307.211 54.78 306.531 54.78C305.877 54.78 305.284 54.9467 304.751 55.28C304.231 55.6133 303.817 56.0667 303.511 56.64C303.204 57.2133 303.051 57.8733 303.051 58.62C303.051 59.34 303.204 59.9933 303.511 60.58C303.817 61.1533 304.231 61.6067 304.751 61.94C305.284 62.2733 305.877 62.44 306.531 62.44C307.211 62.44 307.811 62.2667 308.331 61.92C308.851 61.56 309.237 61.0867 309.491 60.5L311.151 61.34C310.937 61.9 310.597 62.4 310.131 62.84C309.664 63.2667 309.124 63.6067 308.511 63.86C307.897 64.1133 307.237 64.24 306.531 64.24ZM318.181 64.24C317.128 64.24 316.188 63.9933 315.361 63.5C314.548 63.0067 313.908 62.3333 313.441 61.48C312.975 60.6267 312.741 59.6667 312.741 58.6C312.741 57.52 312.975 56.56 313.441 55.72C313.908 54.88 314.548 54.2133 315.361 53.72C316.188 53.2267 317.128 52.98 318.181 52.98C318.888 52.98 319.548 53.1067 320.161 53.36C320.775 53.6133 321.315 53.9533 321.781 54.38C322.248 54.8067 322.588 55.3067 322.801 55.88L321.141 56.68C320.888 56.12 320.501 55.6667 319.981 55.32C319.461 54.96 318.861 54.78 318.181 54.78C317.528 54.78 316.935 54.9467 316.401 55.28C315.881 55.6133 315.468 56.0667 315.161 56.64C314.855 57.2133 314.701 57.8733 314.701 58.62C314.701 59.34 314.855 59.9933 315.161 60.58C315.468 61.1533 315.881 61.6067 316.401 61.94C316.935 62.2733 317.528 62.44 318.181 62.44C318.861 62.44 319.461 62.2667 319.981 61.92C320.501 61.56 320.888 61.0867 321.141 60.5L322.801 61.34C322.588 61.9 322.248 62.4 321.781 62.84C321.315 63.2667 320.775 63.6067 320.161 63.86C319.548 64.1133 318.888 64.24 318.181 64.24ZM329.952 64.24C328.912 64.24 327.972 64 327.132 63.52C326.292 63.0267 325.626 62.3533 325.132 61.5C324.639 60.6467 324.392 59.68 324.392 58.6C324.392 57.52 324.632 56.56 325.112 55.72C325.606 54.88 326.272 54.2133 327.112 53.72C327.952 53.2267 328.899 52.98 329.952 52.98C330.992 52.98 331.932 53.2267 332.772 53.72C333.612 54.2 334.272 54.86 334.752 55.7C335.246 56.54 335.492 57.5067 335.492 58.6C335.492 59.6933 335.239 60.6667 334.732 61.52C334.226 62.36 333.552 63.0267 332.712 63.52C331.886 64 330.966 64.24 329.952 64.24ZM329.952 62.44C330.619 62.44 331.219 62.2733 331.752 61.94C332.299 61.6067 332.726 61.1467 333.032 60.56C333.352 59.9733 333.512 59.32 333.512 58.6C333.512 57.8667 333.352 57.22 333.032 56.66C332.726 56.0867 332.299 55.6333 331.752 55.3C331.219 54.9533 330.619 54.78 329.952 54.78C329.272 54.78 328.659 54.9533 328.112 55.3C327.579 55.6333 327.152 56.0867 326.832 56.66C326.512 57.22 326.352 57.8667 326.352 58.6C326.352 59.32 326.512 59.9733 326.832 60.56C327.152 61.1467 327.579 61.6067 328.112 61.94C328.659 62.2733 329.272 62.44 329.952 62.44ZM341.338 64.24C340.565 64.24 339.865 64.06 339.238 63.7C338.625 63.34 338.145 62.84 337.798 62.2C337.465 61.5467 337.298 60.8 337.298 59.96V53.22H339.158V59.76C339.158 60.2933 339.265 60.76 339.478 61.16C339.705 61.56 340.011 61.8733 340.398 62.1C340.798 62.3267 341.251 62.44 341.758 62.44C342.265 62.44 342.711 62.3267 343.098 62.1C343.498 61.8733 343.805 61.5467 344.018 61.12C344.245 60.6933 344.358 60.1867 344.358 59.6V53.22H346.238V64H344.418V61.9L344.718 62.08C344.465 62.76 344.031 63.2933 343.418 63.68C342.818 64.0533 342.125 64.24 341.338 64.24ZM348.72 64V53.22H350.54V55.32L350.24 55.14C350.506 54.46 350.933 53.9333 351.52 53.56C352.12 53.1733 352.82 52.98 353.62 52.98C354.393 52.98 355.08 53.1533 355.68 53.5C356.293 53.8467 356.773 54.3267 357.12 54.94C357.48 55.5533 357.66 56.2467 357.66 57.02V64H355.78V57.62C355.78 57.02 355.673 56.5133 355.46 56.1C355.246 55.6867 354.94 55.3667 354.54 55.14C354.153 54.9 353.706 54.78 353.2 54.78C352.693 54.78 352.24 54.9 351.84 55.14C351.453 55.3667 351.146 55.6933 350.92 56.12C350.693 56.5333 350.58 57.0333 350.58 57.62V64H348.72ZM364.301 64.12C363.248 64.12 362.435 63.82 361.861 63.22C361.301 62.62 361.021 61.7733 361.021 60.68V55H359.061V53.22H359.461C359.941 53.22 360.321 53.0733 360.601 52.78C360.881 52.4867 361.021 52.1 361.021 51.62V50.74H362.881V53.22H365.301V55H362.881V60.62C362.881 60.98 362.935 61.2933 363.041 61.56C363.161 61.8267 363.355 62.04 363.621 62.2C363.888 62.3467 364.241 62.42 364.681 62.42C364.775 62.42 364.888 62.4133 365.021 62.4C365.168 62.3867 365.301 62.3733 365.421 62.36V64C365.248 64.04 365.055 64.0667 364.841 64.08C364.628 64.1067 364.448 64.12 364.301 64.12ZM368.211 64V61.6H370.151V64H368.211Z" fill="#262C41"/>
<circle cx="56" cy="144" r="24" fill="#2E9546"/>
<path d="M50.0281 152.72V150.68L54.9241 145.448C55.8841 144.424 56.6361 143.6 57.1801 142.976C57.7401 142.336 58.1401 141.776 58.3801 141.296C58.6361 140.816 58.7641 140.312 58.7641 139.784C58.7641 138.92 58.5001 138.256 57.9721 137.792C57.4441 137.312 56.7641 137.072 55.9321 137.072C55.0681 137.072 54.3241 137.32 53.7001 137.816C53.0761 138.296 52.6441 139 52.4041 139.928L49.9081 139.208C50.1001 138.264 50.4841 137.448 51.0601 136.76C51.6361 136.056 52.3401 135.512 53.1721 135.128C54.0201 134.744 54.9321 134.552 55.9081 134.552C57.0441 134.552 58.0361 134.768 58.8841 135.2C59.7321 135.616 60.3881 136.2 60.8521 136.952C61.3321 137.704 61.5721 138.576 61.5721 139.568C61.5721 140.224 61.4441 140.864 61.1881 141.488C60.9481 142.096 60.5721 142.744 60.0601 143.432C59.5481 144.104 58.8921 144.864 58.0921 145.712L53.7721 150.32H61.9081V152.72H50.0281Z" fill="white"/>
<path d="M97.66 152V137.1H107.1V138.9H99.62V143.72H106.4V145.52H99.62V152H97.66ZM108.7 152V141.22H110.56V152H108.7ZM108.7 139.5V137.1H110.56V139.5H108.7ZM113.046 152V136.86H114.906V152H113.046ZM117.392 152V136.86H119.252V152H117.392ZM124.795 152V141.22H126.655V152H124.795ZM124.795 139.5V137.1H126.655V139.5H124.795ZM129.142 152V141.22H130.962V143.32L130.662 143.14C130.928 142.46 131.355 141.933 131.942 141.56C132.542 141.173 133.242 140.98 134.042 140.98C134.815 140.98 135.502 141.153 136.102 141.5C136.715 141.847 137.195 142.327 137.542 142.94C137.902 143.553 138.082 144.247 138.082 145.02V152H136.202V145.62C136.202 145.02 136.095 144.513 135.882 144.1C135.668 143.687 135.362 143.367 134.962 143.14C134.575 142.9 134.128 142.78 133.622 142.78C133.115 142.78 132.662 142.9 132.262 143.14C131.875 143.367 131.568 143.693 131.342 144.12C131.115 144.533 131.002 145.033 131.002 145.62V152H129.142ZM147.78 152.12C146.727 152.12 145.913 151.82 145.34 151.22C144.78 150.62 144.5 149.773 144.5 148.68V143H142.54V141.22H142.94C143.42 141.22 143.8 141.073 144.08 140.78C144.36 140.487 144.5 140.1 144.5 139.62V138.74H146.36V141.22H148.78V143H146.36V148.62C146.36 148.98 146.413 149.293 146.52 149.56C146.64 149.827 146.833 150.04 147.1 150.2C147.367 150.347 147.72 150.42 148.16 150.42C148.253 150.42 148.367 150.413 148.5 150.4C148.647 150.387 148.78 150.373 148.9 150.36V152C148.727 152.04 148.533 152.067 148.32 152.08C148.107 152.107 147.927 152.12 147.78 152.12ZM150.93 152V136.86H152.79V143.32L152.45 143.14C152.717 142.46 153.143 141.933 153.73 141.56C154.33 141.173 155.03 140.98 155.83 140.98C156.603 140.98 157.29 141.153 157.89 141.5C158.503 141.847 158.983 142.327 159.33 142.94C159.69 143.553 159.87 144.247 159.87 145.02V152H157.99V145.62C157.99 145.02 157.877 144.513 157.65 144.1C157.437 143.687 157.137 143.367 156.75 143.14C156.363 142.9 155.917 142.78 155.41 142.78C154.917 142.78 154.47 142.9 154.07 143.14C153.67 143.367 153.357 143.693 153.13 144.12C152.903 144.533 152.79 145.033 152.79 145.62V152H150.93ZM167.091 152.24C166.051 152.24 165.125 151.993 164.311 151.5C163.498 151.007 162.858 150.333 162.391 149.48C161.925 148.613 161.691 147.647 161.691 146.58C161.691 145.5 161.918 144.54 162.371 143.7C162.838 142.86 163.465 142.2 164.251 141.72C165.051 141.227 165.945 140.98 166.931 140.98C167.731 140.98 168.438 141.127 169.051 141.42C169.678 141.7 170.205 142.087 170.631 142.58C171.071 143.06 171.405 143.613 171.631 144.24C171.871 144.853 171.991 145.493 171.991 146.16C171.991 146.307 171.978 146.473 171.951 146.66C171.938 146.833 171.918 147 171.891 147.16H163.051V145.56H170.811L169.931 146.28C170.051 145.587 169.985 144.967 169.731 144.42C169.478 143.873 169.105 143.44 168.611 143.12C168.118 142.8 167.558 142.64 166.931 142.64C166.305 142.64 165.731 142.8 165.211 143.12C164.691 143.44 164.285 143.9 163.991 144.5C163.711 145.087 163.598 145.787 163.651 146.6C163.598 147.387 163.718 148.08 164.011 148.68C164.318 149.267 164.745 149.727 165.291 150.06C165.851 150.38 166.458 150.54 167.111 150.54C167.831 150.54 168.438 150.373 168.931 150.04C169.425 149.707 169.825 149.28 170.131 148.76L171.691 149.56C171.478 150.053 171.145 150.507 170.691 150.92C170.251 151.32 169.725 151.64 169.111 151.88C168.511 152.12 167.838 152.24 167.091 152.24ZM177.074 152V136.86H178.934V152H177.074ZM181.42 152V141.22H183.28V152H181.42ZM181.42 139.5V137.1H183.28V139.5H181.42ZM189.626 152.24C188.546 152.24 187.606 151.973 186.806 151.44C186.006 150.907 185.439 150.187 185.106 149.28L186.586 148.56C186.892 149.2 187.312 149.707 187.846 150.08C188.379 150.453 188.972 150.64 189.626 150.64C190.212 150.64 190.699 150.5 191.086 150.22C191.472 149.94 191.666 149.573 191.666 149.12C191.666 148.8 191.572 148.547 191.386 148.36C191.212 148.16 190.999 148.007 190.746 147.9C190.492 147.78 190.259 147.693 190.046 147.64L188.426 147.18C187.452 146.9 186.739 146.5 186.286 145.98C185.846 145.46 185.626 144.853 185.626 144.16C185.626 143.52 185.786 142.967 186.106 142.5C186.439 142.02 186.886 141.647 187.446 141.38C188.019 141.113 188.659 140.98 189.366 140.98C190.312 140.98 191.159 141.22 191.906 141.7C192.666 142.18 193.206 142.853 193.526 143.72L192.006 144.42C191.766 143.86 191.406 143.42 190.926 143.1C190.446 142.767 189.906 142.6 189.306 142.6C188.759 142.6 188.326 142.74 188.006 143.02C187.686 143.287 187.526 143.627 187.526 144.04C187.526 144.347 187.606 144.6 187.766 144.8C187.926 144.987 188.119 145.133 188.346 145.24C188.572 145.333 188.792 145.413 189.006 145.48L190.766 146C191.646 146.253 192.326 146.647 192.806 147.18C193.299 147.713 193.546 148.353 193.546 149.1C193.546 149.7 193.379 150.24 193.046 150.72C192.712 151.2 192.252 151.573 191.666 151.84C191.079 152.107 190.399 152.24 189.626 152.24ZM199.961 152.12C198.907 152.12 198.094 151.82 197.521 151.22C196.961 150.62 196.681 149.773 196.681 148.68V143H194.721V141.22H195.121C195.601 141.22 195.981 141.073 196.261 140.78C196.541 140.487 196.681 140.1 196.681 139.62V138.74H198.541V141.22H200.961V143H198.541V148.62C198.541 148.98 198.594 149.293 198.701 149.56C198.821 149.827 199.014 150.04 199.281 150.2C199.547 150.347 199.901 150.42 200.341 150.42C200.434 150.42 200.547 150.413 200.681 150.4C200.827 150.387 200.961 150.373 201.081 150.36V152C200.907 152.04 200.714 152.067 200.501 152.08C200.287 152.107 200.107 152.12 199.961 152.12ZM211.287 152.24C210.247 152.24 209.307 152 208.467 151.52C207.627 151.027 206.961 150.353 206.467 149.5C205.974 148.647 205.727 147.68 205.727 146.6C205.727 145.52 205.967 144.56 206.447 143.72C206.941 142.88 207.607 142.213 208.447 141.72C209.287 141.227 210.234 140.98 211.287 140.98C212.327 140.98 213.267 141.227 214.107 141.72C214.947 142.2 215.607 142.86 216.087 143.7C216.581 144.54 216.827 145.507 216.827 146.6C216.827 147.693 216.574 148.667 216.067 149.52C215.561 150.36 214.887 151.027 214.047 151.52C213.221 152 212.301 152.24 211.287 152.24ZM211.287 150.44C211.954 150.44 212.554 150.273 213.087 149.94C213.634 149.607 214.061 149.147 214.367 148.56C214.687 147.973 214.847 147.32 214.847 146.6C214.847 145.867 214.687 145.22 214.367 144.66C214.061 144.087 213.634 143.633 213.087 143.3C212.554 142.953 211.954 142.78 211.287 142.78C210.607 142.78 209.994 142.953 209.447 143.3C208.914 143.633 208.487 144.087 208.167 144.66C207.847 145.22 207.687 145.867 207.687 146.6C207.687 147.32 207.847 147.973 208.167 148.56C208.487 149.147 208.914 149.607 209.447 149.94C209.994 150.273 210.607 150.44 211.287 150.44ZM219.661 152V143H217.601V141.22H219.661V140.46C219.661 139.687 219.828 139.033 220.161 138.5C220.508 137.967 220.961 137.56 221.521 137.28C222.095 137 222.728 136.86 223.421 136.86C223.568 136.86 223.728 136.873 223.901 136.9C224.088 136.913 224.241 136.933 224.361 136.96V138.62C224.255 138.593 224.128 138.58 223.981 138.58C223.835 138.567 223.721 138.56 223.641 138.56C223.028 138.56 222.521 138.707 222.121 139C221.735 139.293 221.541 139.78 221.541 140.46V141.22H224.101V143H221.541V152H219.661ZM229.708 156.4C229.468 156.4 229.228 156.38 228.988 156.34C228.748 156.313 228.521 156.253 228.308 156.16V154.5C228.454 154.513 228.634 154.54 228.848 154.58C229.074 154.62 229.294 154.64 229.508 154.64C230.134 154.64 230.608 154.5 230.928 154.22C231.261 153.94 231.574 153.467 231.868 152.8L232.548 151.18L232.508 152.8L227.908 141.22H229.928L233.508 150.42H232.908L236.468 141.22H238.528L233.668 153.28C233.441 153.853 233.148 154.38 232.788 154.86C232.441 155.34 232.014 155.713 231.508 155.98C231.001 156.26 230.401 156.4 229.708 156.4ZM244.707 152.24C243.667 152.24 242.727 152 241.887 151.52C241.047 151.027 240.38 150.353 239.887 149.5C239.394 148.647 239.147 147.68 239.147 146.6C239.147 145.52 239.387 144.56 239.867 143.72C240.36 142.88 241.027 142.213 241.867 141.72C242.707 141.227 243.654 140.98 244.707 140.98C245.747 140.98 246.687 141.227 247.527 141.72C248.367 142.2 249.027 142.86 249.507 143.7C250 144.54 250.247 145.507 250.247 146.6C250.247 147.693 249.994 148.667 249.487 149.52C248.98 150.36 248.307 151.027 247.467 151.52C246.64 152 245.72 152.24 244.707 152.24ZM244.707 150.44C245.374 150.44 245.974 150.273 246.507 149.94C247.054 149.607 247.48 149.147 247.787 148.56C248.107 147.973 248.267 147.32 248.267 146.6C248.267 145.867 248.107 145.22 247.787 144.66C247.48 144.087 247.054 143.633 246.507 143.3C245.974 142.953 245.374 142.78 244.707 142.78C244.027 142.78 243.414 142.953 242.867 143.3C242.334 143.633 241.907 144.087 241.587 144.66C241.267 145.22 241.107 145.867 241.107 146.6C241.107 147.32 241.267 147.973 241.587 148.56C241.907 149.147 242.334 149.607 242.867 149.94C243.414 150.273 244.027 150.44 244.707 150.44ZM256.093 152.24C255.319 152.24 254.619 152.06 253.993 151.7C253.379 151.34 252.899 150.84 252.553 150.2C252.219 149.547 252.053 148.8 252.053 147.96V141.22H253.913V147.76C253.913 148.293 254.019 148.76 254.233 149.16C254.459 149.56 254.766 149.873 255.153 150.1C255.553 150.327 256.006 150.44 256.513 150.44C257.019 150.44 257.466 150.327 257.853 150.1C258.253 149.873 258.559 149.547 258.773 149.12C258.999 148.693 259.113 148.187 259.113 147.6V141.22H260.993V152H259.173V149.9L259.473 150.08C259.219 150.76 258.786 151.293 258.173 151.68C257.573 152.053 256.879 152.24 256.093 152.24ZM263.474 152V141.22H265.294V143.2L265.094 142.92C265.348 142.307 265.734 141.853 266.254 141.56C266.774 141.253 267.408 141.1 268.154 141.1H268.814V142.86H267.874C267.114 142.86 266.501 143.1 266.034 143.58C265.568 144.047 265.334 144.713 265.334 145.58V152H263.474ZM278.704 152.24C277.837 152.24 277.044 152.047 276.324 151.66C275.617 151.273 275.07 150.727 274.684 150.02L274.944 149.7V152H273.124V136.86H274.984V143.54L274.704 143.08C275.104 142.44 275.65 141.933 276.344 141.56C277.037 141.173 277.83 140.98 278.724 140.98C279.737 140.98 280.644 141.227 281.444 141.72C282.257 142.213 282.897 142.887 283.364 143.74C283.83 144.58 284.064 145.54 284.064 146.62C284.064 147.673 283.83 148.627 283.364 149.48C282.897 150.333 282.257 151.007 281.444 151.5C280.644 151.993 279.73 152.24 278.704 152.24ZM278.564 150.44C279.244 150.44 279.85 150.273 280.384 149.94C280.917 149.607 281.33 149.153 281.624 148.58C281.93 147.993 282.084 147.34 282.084 146.62C282.084 145.873 281.93 145.22 281.624 144.66C281.33 144.087 280.917 143.633 280.384 143.3C279.85 142.953 279.244 142.78 278.564 142.78C277.884 142.78 277.27 142.947 276.724 143.28C276.19 143.613 275.764 144.073 275.444 144.66C275.137 145.233 274.984 145.887 274.984 146.62C274.984 147.34 275.137 147.993 275.444 148.58C275.764 149.153 276.19 149.607 276.724 149.94C277.27 150.273 277.884 150.44 278.564 150.44ZM289.923 152.24C289.149 152.24 288.449 152.06 287.823 151.7C287.209 151.34 286.729 150.84 286.383 150.2C286.049 149.547 285.883 148.8 285.883 147.96V141.22H287.743V147.76C287.743 148.293 287.849 148.76 288.063 149.16C288.289 149.56 288.596 149.873 288.983 150.1C289.383 150.327 289.836 150.44 290.343 150.44C290.849 150.44 291.296 150.327 291.683 150.1C292.083 149.873 292.389 149.547 292.603 149.12C292.829 148.693 292.943 148.187 292.943 147.6V141.22H294.823V152H293.003V149.9L293.303 150.08C293.049 150.76 292.616 151.293 292.003 151.68C291.403 152.053 290.709 152.24 289.923 152.24ZM301.164 152.24C300.084 152.24 299.144 151.973 298.344 151.44C297.544 150.907 296.977 150.187 296.644 149.28L298.124 148.56C298.431 149.2 298.851 149.707 299.384 150.08C299.917 150.453 300.511 150.64 301.164 150.64C301.751 150.64 302.237 150.5 302.624 150.22C303.011 149.94 303.204 149.573 303.204 149.12C303.204 148.8 303.111 148.547 302.924 148.36C302.751 148.16 302.537 148.007 302.284 147.9C302.031 147.78 301.797 147.693 301.584 147.64L299.964 147.18C298.991 146.9 298.277 146.5 297.824 145.98C297.384 145.46 297.164 144.853 297.164 144.16C297.164 143.52 297.324 142.967 297.644 142.5C297.977 142.02 298.424 141.647 298.984 141.38C299.557 141.113 300.197 140.98 300.904 140.98C301.851 140.98 302.697 141.22 303.444 141.7C304.204 142.18 304.744 142.853 305.064 143.72L303.544 144.42C303.304 143.86 302.944 143.42 302.464 143.1C301.984 142.767 301.444 142.6 300.844 142.6C300.297 142.6 299.864 142.74 299.544 143.02C299.224 143.287 299.064 143.627 299.064 144.04C299.064 144.347 299.144 144.6 299.304 144.8C299.464 144.987 299.657 145.133 299.884 145.24C300.111 145.333 300.331 145.413 300.544 145.48L302.304 146C303.184 146.253 303.864 146.647 304.344 147.18C304.837 147.713 305.084 148.353 305.084 149.1C305.084 149.7 304.917 150.24 304.584 150.72C304.251 151.2 303.791 151.573 303.204 151.84C302.617 152.107 301.937 152.24 301.164 152.24ZM307.119 152V141.22H308.979V152H307.119ZM307.119 139.5V137.1H308.979V139.5H307.119ZM311.465 152V141.22H313.285V143.32L312.985 143.14C313.252 142.46 313.678 141.933 314.265 141.56C314.865 141.173 315.565 140.98 316.365 140.98C317.138 140.98 317.825 141.153 318.425 141.5C319.038 141.847 319.518 142.327 319.865 142.94C320.225 143.553 320.405 144.247 320.405 145.02V152H318.525V145.62C318.525 145.02 318.418 144.513 318.205 144.1C317.992 143.687 317.685 143.367 317.285 143.14C316.898 142.9 316.452 142.78 315.945 142.78C315.438 142.78 314.985 142.9 314.585 143.14C314.198 143.367 313.892 143.693 313.665 144.12C313.438 144.533 313.325 145.033 313.325 145.62V152H311.465ZM327.627 152.24C326.587 152.24 325.66 151.993 324.847 151.5C324.033 151.007 323.393 150.333 322.927 149.48C322.46 148.613 322.227 147.647 322.227 146.58C322.227 145.5 322.453 144.54 322.907 143.7C323.373 142.86 324 142.2 324.787 141.72C325.587 141.227 326.48 140.98 327.467 140.98C328.267 140.98 328.973 141.127 329.587 141.42C330.213 141.7 330.74 142.087 331.167 142.58C331.607 143.06 331.94 143.613 332.167 144.24C332.407 144.853 332.527 145.493 332.527 146.16C332.527 146.307 332.513 146.473 332.487 146.66C332.473 146.833 332.453 147 332.427 147.16H323.587V145.56H331.347L330.467 146.28C330.587 145.587 330.52 144.967 330.267 144.42C330.013 143.873 329.64 143.44 329.147 143.12C328.653 142.8 328.093 142.64 327.467 142.64C326.84 142.64 326.267 142.8 325.747 143.12C325.227 143.44 324.82 143.9 324.527 144.5C324.247 145.087 324.133 145.787 324.187 146.6C324.133 147.387 324.253 148.08 324.547 148.68C324.853 149.267 325.28 149.727 325.827 150.06C326.387 150.38 326.993 150.54 327.647 150.54C328.367 150.54 328.973 150.373 329.467 150.04C329.96 149.707 330.36 149.28 330.667 148.76L332.227 149.56C332.013 150.053 331.68 150.507 331.227 150.92C330.787 151.32 330.26 151.64 329.647 151.88C329.047 152.12 328.373 152.24 327.627 152.24ZM338.412 152.24C337.332 152.24 336.392 151.973 335.592 151.44C334.792 150.907 334.225 150.187 333.892 149.28L335.372 148.56C335.678 149.2 336.098 149.707 336.632 150.08C337.165 150.453 337.758 150.64 338.412 150.64C338.998 150.64 339.485 150.5 339.872 150.22C340.258 149.94 340.452 149.573 340.452 149.12C340.452 148.8 340.358 148.547 340.172 148.36C339.998 148.16 339.785 148.007 339.532 147.9C339.278 147.78 339.045 147.693 338.832 147.64L337.212 147.18C336.238 146.9 335.525 146.5 335.072 145.98C334.632 145.46 334.412 144.853 334.412 144.16C334.412 143.52 334.572 142.967 334.892 142.5C335.225 142.02 335.672 141.647 336.232 141.38C336.805 141.113 337.445 140.98 338.152 140.98C339.098 140.98 339.945 141.22 340.692 141.7C341.452 142.18 341.992 142.853 342.312 143.72L340.792 144.42C340.552 143.86 340.192 143.42 339.712 143.1C339.232 142.767 338.692 142.6 338.092 142.6C337.545 142.6 337.112 142.74 336.792 143.02C336.472 143.287 336.312 143.627 336.312 144.04C336.312 144.347 336.392 144.6 336.552 144.8C336.712 144.987 336.905 145.133 337.132 145.24C337.358 145.333 337.578 145.413 337.792 145.48L339.552 146C340.432 146.253 341.112 146.647 341.592 147.18C342.085 147.713 342.332 148.353 342.332 149.1C342.332 149.7 342.165 150.24 341.832 150.72C341.498 151.2 341.038 151.573 340.452 151.84C339.865 152.107 339.185 152.24 338.412 152.24ZM348.227 152.24C347.147 152.24 346.207 151.973 345.407 151.44C344.607 150.907 344.04 150.187 343.707 149.28L345.187 148.56C345.493 149.2 345.913 149.707 346.447 150.08C346.98 150.453 347.573 150.64 348.227 150.64C348.813 150.64 349.3 150.5 349.687 150.22C350.073 149.94 350.267 149.573 350.267 149.12C350.267 148.8 350.173 148.547 349.987 148.36C349.813 148.16 349.6 148.007 349.347 147.9C349.093 147.78 348.86 147.693 348.647 147.64L347.027 147.18C346.053 146.9 345.34 146.5 344.887 145.98C344.447 145.46 344.227 144.853 344.227 144.16C344.227 143.52 344.387 142.967 344.707 142.5C345.04 142.02 345.487 141.647 346.047 141.38C346.62 141.113 347.26 140.98 347.967 140.98C348.913 140.98 349.76 141.22 350.507 141.7C351.267 142.18 351.807 142.853 352.127 143.72L350.607 144.42C350.367 143.86 350.007 143.42 349.527 143.1C349.047 142.767 348.507 142.6 347.907 142.6C347.36 142.6 346.927 142.74 346.607 143.02C346.287 143.287 346.127 143.627 346.127 144.04C346.127 144.347 346.207 144.6 346.367 144.8C346.527 144.987 346.72 145.133 346.947 145.24C347.173 145.333 347.393 145.413 347.607 145.48L349.367 146C350.247 146.253 350.927 146.647 351.407 147.18C351.9 147.713 352.147 148.353 352.147 149.1C352.147 149.7 351.98 150.24 351.647 150.72C351.313 151.2 350.853 151.573 350.267 151.84C349.68 152.107 349 152.24 348.227 152.24ZM362.198 152.24C361.158 152.24 360.232 151.993 359.418 151.5C358.605 151.007 357.965 150.333 357.498 149.48C357.032 148.613 356.798 147.647 356.798 146.58C356.798 145.5 357.025 144.54 357.478 143.7C357.945 142.86 358.572 142.2 359.358 141.72C360.158 141.227 361.052 140.98 362.038 140.98C362.838 140.98 363.545 141.127 364.158 141.42C364.785 141.7 365.312 142.087 365.738 142.58C366.178 143.06 366.512 143.613 366.738 144.24C366.978 144.853 367.098 145.493 367.098 146.16C367.098 146.307 367.085 146.473 367.058 146.66C367.045 146.833 367.025 147 366.998 147.16H358.158V145.56H365.918L365.038 146.28C365.158 145.587 365.092 144.967 364.838 144.42C364.585 143.873 364.212 143.44 363.718 143.12C363.225 142.8 362.665 142.64 362.038 142.64C361.412 142.64 360.838 142.8 360.318 143.12C359.798 143.44 359.392 143.9 359.098 144.5C358.818 145.087 358.705 145.787 358.758 146.6C358.705 147.387 358.825 148.08 359.118 148.68C359.425 149.267 359.852 149.727 360.398 150.06C360.958 150.38 361.565 150.54 362.218 150.54C362.938 150.54 363.545 150.373 364.038 150.04C364.532 149.707 364.932 149.28 365.238 148.76L366.798 149.56C366.585 150.053 366.252 150.507 365.798 150.92C365.358 151.32 364.832 151.64 364.218 151.88C363.618 152.12 362.945 152.24 362.198 152.24ZM367.708 152L371.488 146.6L367.728 141.22H369.968L373.188 145.9H372.048L375.228 141.22H377.488L373.728 146.6L377.468 152H375.228L372.048 147.32H373.168L369.988 152H367.708ZM378.743 156V141.22H380.563V143.54L380.323 143.08C380.723 142.44 381.27 141.933 381.963 141.56C382.656 141.173 383.45 140.98 384.343 140.98C385.356 140.98 386.263 141.227 387.063 141.72C387.876 142.213 388.516 142.887 388.983 143.74C389.45 144.58 389.683 145.54 389.683 146.62C389.683 147.673 389.45 148.627 388.983 149.48C388.516 150.333 387.876 151.007 387.063 151.5C386.263 151.993 385.35 152.24 384.323 152.24C383.456 152.24 382.663 152.047 381.943 151.66C381.236 151.273 380.69 150.727 380.303 150.02L380.603 149.7V156H378.743ZM384.183 150.44C384.863 150.44 385.47 150.273 386.003 149.94C386.536 149.607 386.95 149.153 387.243 148.58C387.55 147.993 387.703 147.34 387.703 146.62C387.703 145.873 387.55 145.22 387.243 144.66C386.95 144.087 386.536 143.633 386.003 143.3C385.47 142.953 384.863 142.78 384.183 142.78C383.503 142.78 382.89 142.947 382.343 143.28C381.81 143.613 381.383 144.073 381.063 144.66C380.756 145.233 380.603 145.887 380.603 146.62C380.603 147.34 380.756 147.993 381.063 148.58C381.383 149.153 381.81 149.607 382.343 149.94C382.89 150.273 383.503 150.44 384.183 150.44ZM396.682 152.24C395.642 152.24 394.715 151.993 393.902 151.5C393.089 151.007 392.449 150.333 391.982 149.48C391.515 148.613 391.282 147.647 391.282 146.58C391.282 145.5 391.509 144.54 391.962 143.7C392.429 142.86 393.055 142.2 393.842 141.72C394.642 141.227 395.535 140.98 396.522 140.98C397.322 140.98 398.029 141.127 398.642 141.42C399.269 141.7 399.795 142.087 400.222 142.58C400.662 143.06 400.995 143.613 401.222 144.24C401.462 144.853 401.582 145.493 401.582 146.16C401.582 146.307 401.569 146.473 401.542 146.66C401.529 146.833 401.509 147 401.482 147.16H392.642V145.56H400.402L399.522 146.28C399.642 145.587 399.575 144.967 399.322 144.42C399.069 143.873 398.695 143.44 398.202 143.12C397.709 142.8 397.149 142.64 396.522 142.64C395.895 142.64 395.322 142.8 394.802 143.12C394.282 143.44 393.875 143.9 393.582 144.5C393.302 145.087 393.189 145.787 393.242 146.6C393.189 147.387 393.309 148.08 393.602 148.68C393.909 149.267 394.335 149.727 394.882 150.06C395.442 150.38 396.049 150.54 396.702 150.54C397.422 150.54 398.029 150.373 398.522 150.04C399.015 149.707 399.415 149.28 399.722 148.76L401.282 149.56C401.069 150.053 400.735 150.507 400.282 150.92C399.842 151.32 399.315 151.64 398.702 151.88C398.102 152.12 397.429 152.24 396.682 152.24ZM403.607 152V141.22H405.427V143.32L405.127 143.14C405.394 142.46 405.821 141.933 406.407 141.56C407.007 141.173 407.707 140.98 408.507 140.98C409.281 140.98 409.967 141.153 410.567 141.5C411.181 141.847 411.661 142.327 412.007 142.94C412.367 143.553 412.547 144.247 412.547 145.02V152H410.667V145.62C410.667 145.02 410.561 144.513 410.347 144.1C410.134 143.687 409.827 143.367 409.427 143.14C409.041 142.9 408.594 142.78 408.087 142.78C407.581 142.78 407.127 142.9 406.727 143.14C406.341 143.367 406.034 143.693 405.807 144.12C405.581 144.533 405.467 145.033 405.467 145.62V152H403.607ZM418.669 152.24C417.589 152.24 416.649 151.973 415.849 151.44C415.049 150.907 414.482 150.187 414.149 149.28L415.629 148.56C415.935 149.2 416.355 149.707 416.889 150.08C417.422 150.453 418.015 150.64 418.669 150.64C419.255 150.64 419.742 150.5 420.129 150.22C420.515 149.94 420.709 149.573 420.709 149.12C420.709 148.8 420.615 148.547 420.429 148.36C420.255 148.16 420.042 148.007 419.789 147.9C419.535 147.78 419.302 147.693 419.089 147.64L417.469 147.18C416.495 146.9 415.782 146.5 415.329 145.98C414.889 145.46 414.669 144.853 414.669 144.16C414.669 143.52 414.829 142.967 415.149 142.5C415.482 142.02 415.929 141.647 416.489 141.38C417.062 141.113 417.702 140.98 418.409 140.98C419.355 140.98 420.202 141.22 420.949 141.7C421.709 142.18 422.249 142.853 422.569 143.72L421.049 144.42C420.809 143.86 420.449 143.42 419.969 143.1C419.489 142.767 418.949 142.6 418.349 142.6C417.802 142.6 417.369 142.74 417.049 143.02C416.729 143.287 416.569 143.627 416.569 144.04C416.569 144.347 416.649 144.6 416.809 144.8C416.969 144.987 417.162 145.133 417.389 145.24C417.615 145.333 417.835 145.413 418.049 145.48L419.809 146C420.689 146.253 421.369 146.647 421.849 147.18C422.342 147.713 422.589 148.353 422.589 149.1C422.589 149.7 422.422 150.24 422.089 150.72C421.755 151.2 421.295 151.573 420.709 151.84C420.122 152.107 419.442 152.24 418.669 152.24ZM429.584 152.24C428.544 152.24 427.617 151.993 426.804 151.5C425.99 151.007 425.35 150.333 424.884 149.48C424.417 148.613 424.184 147.647 424.184 146.58C424.184 145.5 424.41 144.54 424.864 143.7C425.33 142.86 425.957 142.2 426.744 141.72C427.544 141.227 428.437 140.98 429.424 140.98C430.224 140.98 430.93 141.127 431.544 141.42C432.17 141.7 432.697 142.087 433.124 142.58C433.564 143.06 433.897 143.613 434.124 144.24C434.364 144.853 434.484 145.493 434.484 146.16C434.484 146.307 434.47 146.473 434.444 146.66C434.43 146.833 434.41 147 434.384 147.16H425.544V145.56H433.304L432.424 146.28C432.544 145.587 432.477 144.967 432.224 144.42C431.97 143.873 431.597 143.44 431.104 143.12C430.61 142.8 430.05 142.64 429.424 142.64C428.797 142.64 428.224 142.8 427.704 143.12C427.184 143.44 426.777 143.9 426.484 144.5C426.204 145.087 426.09 145.787 426.144 146.6C426.09 147.387 426.21 148.08 426.504 148.68C426.81 149.267 427.237 149.727 427.784 150.06C428.344 150.38 428.95 150.54 429.604 150.54C430.324 150.54 430.93 150.373 431.424 150.04C431.917 149.707 432.317 149.28 432.624 148.76L434.184 149.56C433.97 150.053 433.637 150.507 433.184 150.92C432.744 151.32 432.217 151.64 431.604 151.88C431.004 152.12 430.33 152.24 429.584 152.24ZM440.369 152.24C439.289 152.24 438.349 151.973 437.549 151.44C436.749 150.907 436.182 150.187 435.849 149.28L437.329 148.56C437.635 149.2 438.055 149.707 438.589 150.08C439.122 150.453 439.715 150.64 440.369 150.64C440.955 150.64 441.442 150.5 441.829 150.22C442.215 149.94 442.409 149.573 442.409 149.12C442.409 148.8 442.315 148.547 442.129 148.36C441.955 148.16 441.742 148.007 441.489 147.9C441.235 147.78 441.002 147.693 440.789 147.64L439.169 147.18C438.195 146.9 437.482 146.5 437.029 145.98C436.589 145.46 436.369 144.853 436.369 144.16C436.369 143.52 436.529 142.967 436.849 142.5C437.182 142.02 437.629 141.647 438.189 141.38C438.762 141.113 439.402 140.98 440.109 140.98C441.055 140.98 441.902 141.22 442.649 141.7C443.409 142.18 443.949 142.853 444.269 143.72L442.749 144.42C442.509 143.86 442.149 143.42 441.669 143.1C441.189 142.767 440.649 142.6 440.049 142.6C439.502 142.6 439.069 142.74 438.749 143.02C438.429 143.287 438.269 143.627 438.269 144.04C438.269 144.347 438.349 144.6 438.509 144.8C438.669 144.987 438.862 145.133 439.089 145.24C439.315 145.333 439.535 145.413 439.749 145.48L441.509 146C442.389 146.253 443.069 146.647 443.549 147.18C444.042 147.713 444.289 148.353 444.289 149.1C444.289 149.7 444.122 150.24 443.789 150.72C443.455 151.2 442.995 151.573 442.409 151.84C441.822 152.107 441.142 152.24 440.369 152.24ZM447.084 152V149.6H449.024V152H447.084Z" fill="#262C41"/>
<circle cx="56" cy="232" r="24" fill="#F6F7F9"/>
<path d="M55.696 242.008C54.736 242.008 53.832 241.832 52.984 241.48C52.152 241.128 51.432 240.632 50.824 239.992C50.232 239.352 49.808 238.6 49.552 237.736L51.952 236.824C52.272 237.672 52.76 238.328 53.416 238.792C54.072 239.256 54.832 239.488 55.696 239.488C56.4 239.488 57.008 239.352 57.52 239.08C58.048 238.808 58.456 238.424 58.744 237.928C59.048 237.432 59.2 236.832 59.2 236.128C59.2 235.44 59.048 234.848 58.744 234.352C58.456 233.856 58.048 233.48 57.52 233.224C57.008 232.968 56.4 232.84 55.696 232.84C55.408 232.84 55.112 232.864 54.808 232.912C54.52 232.96 54.264 233.024 54.04 233.104L53.416 231.784L58.12 226.24H50.512V223.84H61.288V226.12L56.68 231.64L56.608 230.728C57.68 230.744 58.624 230.984 59.44 231.448C60.256 231.896 60.888 232.52 61.336 233.32C61.8 234.104 62.032 235.016 62.032 236.056C62.032 237.176 61.76 238.192 61.216 239.104C60.672 240 59.92 240.712 58.96 241.24C58.016 241.752 56.928 242.008 55.696 242.008Z" fill="#1A202C"/>
<path d="M97.66 240V225.1H102.54C104.047 225.1 105.36 225.407 106.48 226.02C107.6 226.633 108.467 227.5 109.08 228.62C109.693 229.727 110 231.033 110 232.54C110 234.033 109.693 235.34 109.08 236.46C108.467 237.58 107.6 238.453 106.48 239.08C105.36 239.693 104.047 240 102.54 240H97.66ZM99.62 238.2H102.56C103.667 238.2 104.62 237.967 105.42 237.5C106.233 237.033 106.86 236.38 107.3 235.54C107.74 234.687 107.96 233.687 107.96 232.54C107.96 231.38 107.733 230.38 107.28 229.54C106.84 228.7 106.213 228.053 105.4 227.6C104.6 227.133 103.653 226.9 102.56 226.9H99.62V238.2ZM116.984 240.24C115.944 240.24 115.004 240 114.164 239.52C113.324 239.027 112.658 238.353 112.164 237.5C111.671 236.647 111.424 235.68 111.424 234.6C111.424 233.52 111.664 232.56 112.144 231.72C112.638 230.88 113.304 230.213 114.144 229.72C114.984 229.227 115.931 228.98 116.984 228.98C118.024 228.98 118.964 229.227 119.804 229.72C120.644 230.2 121.304 230.86 121.784 231.7C122.278 232.54 122.524 233.507 122.524 234.6C122.524 235.693 122.271 236.667 121.764 237.52C121.258 238.36 120.584 239.027 119.744 239.52C118.918 240 117.998 240.24 116.984 240.24ZM116.984 238.44C117.651 238.44 118.251 238.273 118.784 237.94C119.331 237.607 119.758 237.147 120.064 236.56C120.384 235.973 120.544 235.32 120.544 234.6C120.544 233.867 120.384 233.22 120.064 232.66C119.758 232.087 119.331 231.633 118.784 231.3C118.251 230.953 117.651 230.78 116.984 230.78C116.304 230.78 115.691 230.953 115.144 231.3C114.611 231.633 114.184 232.087 113.864 232.66C113.544 233.22 113.384 233.867 113.384 234.6C113.384 235.32 113.544 235.973 113.864 236.56C114.184 237.147 114.611 237.607 115.144 237.94C115.691 238.273 116.304 238.44 116.984 238.44ZM124.55 240V229.22H126.37V231.32L126.07 231.14C126.337 230.46 126.763 229.933 127.35 229.56C127.95 229.173 128.65 228.98 129.45 228.98C130.223 228.98 130.91 229.153 131.51 229.5C132.123 229.847 132.603 230.327 132.95 230.94C133.31 231.553 133.49 232.247 133.49 233.02V240H131.61V233.62C131.61 233.02 131.503 232.513 131.29 232.1C131.077 231.687 130.77 231.367 130.37 231.14C129.983 230.9 129.537 230.78 129.03 230.78C128.523 230.78 128.07 230.9 127.67 231.14C127.283 231.367 126.977 231.693 126.75 232.12C126.523 232.533 126.41 233.033 126.41 233.62V240H124.55ZM140.712 240.24C139.672 240.24 138.745 239.993 137.932 239.5C137.118 239.007 136.478 238.333 136.012 237.48C135.545 236.613 135.312 235.647 135.312 234.58C135.312 233.5 135.538 232.54 135.992 231.7C136.458 230.86 137.085 230.2 137.872 229.72C138.672 229.227 139.565 228.98 140.552 228.98C141.352 228.98 142.058 229.127 142.672 229.42C143.298 229.7 143.825 230.087 144.252 230.58C144.692 231.06 145.025 231.613 145.252 232.24C145.492 232.853 145.612 233.493 145.612 234.16C145.612 234.307 145.598 234.473 145.572 234.66C145.558 234.833 145.538 235 145.512 235.16H136.672V233.56H144.432L143.552 234.28C143.672 233.587 143.605 232.967 143.352 232.42C143.098 231.873 142.725 231.44 142.232 231.12C141.738 230.8 141.178 230.64 140.552 230.64C139.925 230.64 139.352 230.8 138.832 231.12C138.312 231.44 137.905 231.9 137.612 232.5C137.332 233.087 137.218 233.787 137.272 234.6C137.218 235.387 137.338 236.08 137.632 236.68C137.938 237.267 138.365 237.727 138.912 238.06C139.472 238.38 140.078 238.54 140.732 238.54C141.452 238.54 142.058 238.373 142.552 238.04C143.045 237.707 143.445 237.28 143.752 236.76L145.312 237.56C145.098 238.053 144.765 238.507 144.312 238.92C143.872 239.32 143.345 239.64 142.732 239.88C142.132 240.12 141.458 240.24 140.712 240.24ZM147.957 242.78V241.88C148.37 241.773 148.684 241.567 148.897 241.26C149.11 240.953 149.23 240.533 149.257 240H148.357V237.6H150.297V239.3C150.297 240.26 150.097 241.033 149.697 241.62C149.31 242.207 148.73 242.593 147.957 242.78ZM156.27 240V224.86H158.13V240H156.27ZM165.577 240.24C164.537 240.24 163.61 239.993 162.797 239.5C161.983 239.007 161.343 238.333 160.877 237.48C160.41 236.613 160.177 235.647 160.177 234.58C160.177 233.5 160.403 232.54 160.857 231.7C161.323 230.86 161.95 230.2 162.737 229.72C163.537 229.227 164.43 228.98 165.417 228.98C166.217 228.98 166.923 229.127 167.537 229.42C168.163 229.7 168.69 230.087 169.117 230.58C169.557 231.06 169.89 231.613 170.117 232.24C170.357 232.853 170.477 233.493 170.477 234.16C170.477 234.307 170.463 234.473 170.437 234.66C170.423 234.833 170.403 235 170.377 235.16H161.537V233.56H169.297L168.417 234.28C168.537 233.587 168.47 232.967 168.217 232.42C167.963 231.873 167.59 231.44 167.097 231.12C166.603 230.8 166.043 230.64 165.417 230.64C164.79 230.64 164.217 230.8 163.697 231.12C163.177 231.44 162.77 231.9 162.477 232.5C162.197 233.087 162.083 233.787 162.137 234.6C162.083 235.387 162.203 236.08 162.497 236.68C162.803 237.267 163.23 237.727 163.777 238.06C164.337 238.38 164.943 238.54 165.597 238.54C166.317 238.54 166.923 238.373 167.417 238.04C167.91 237.707 168.31 237.28 168.617 236.76L170.177 237.56C169.963 238.053 169.63 238.507 169.177 238.92C168.737 239.32 168.21 239.64 167.597 239.88C166.997 240.12 166.323 240.24 165.577 240.24ZM176.882 240.12C175.828 240.12 175.015 239.82 174.442 239.22C173.882 238.62 173.602 237.773 173.602 236.68V231H171.642V229.22H172.042C172.522 229.22 172.902 229.073 173.182 228.78C173.462 228.487 173.602 228.1 173.602 227.62V226.74H175.462V229.22H177.882V231H175.462V236.62C175.462 236.98 175.515 237.293 175.622 237.56C175.742 237.827 175.935 238.04 176.202 238.2C176.468 238.347 176.822 238.42 177.262 238.42C177.355 238.42 177.468 238.413 177.602 238.4C177.748 238.387 177.882 238.373 178.002 238.36V240C177.828 240.04 177.635 240.067 177.422 240.08C177.208 240.107 177.028 240.12 176.882 240.12ZM180.351 230.08V229.18C180.765 229.073 181.071 228.88 181.271 228.6C181.485 228.307 181.611 227.94 181.651 227.5H180.751V225.1H182.691V226.8C182.691 227.667 182.491 228.387 182.091 228.96C181.705 229.52 181.125 229.893 180.351 230.08ZM189.468 240.24C188.388 240.24 187.448 239.973 186.648 239.44C185.848 238.907 185.281 238.187 184.948 237.28L186.428 236.56C186.735 237.2 187.155 237.707 187.688 238.08C188.221 238.453 188.815 238.64 189.468 238.64C190.055 238.64 190.541 238.5 190.928 238.22C191.315 237.94 191.508 237.573 191.508 237.12C191.508 236.8 191.415 236.547 191.228 236.36C191.055 236.16 190.841 236.007 190.588 235.9C190.335 235.78 190.101 235.693 189.888 235.64L188.268 235.18C187.295 234.9 186.581 234.5 186.128 233.98C185.688 233.46 185.468 232.853 185.468 232.16C185.468 231.52 185.628 230.967 185.948 230.5C186.281 230.02 186.728 229.647 187.288 229.38C187.861 229.113 188.501 228.98 189.208 228.98C190.155 228.98 191.001 229.22 191.748 229.7C192.508 230.18 193.048 230.853 193.368 231.72L191.848 232.42C191.608 231.86 191.248 231.42 190.768 231.1C190.288 230.767 189.748 230.6 189.148 230.6C188.601 230.6 188.168 230.74 187.848 231.02C187.528 231.287 187.368 231.627 187.368 232.04C187.368 232.347 187.448 232.6 187.608 232.8C187.768 232.987 187.961 233.133 188.188 233.24C188.415 233.333 188.635 233.413 188.848 233.48L190.608 234C191.488 234.253 192.168 234.647 192.648 235.18C193.141 235.713 193.388 236.353 193.388 237.1C193.388 237.7 193.221 238.24 192.888 238.72C192.555 239.2 192.095 239.573 191.508 239.84C190.921 240.107 190.241 240.24 189.468 240.24ZM203.48 240.24C202.427 240.24 201.487 239.993 200.66 239.5C199.847 239.007 199.207 238.333 198.74 237.48C198.273 236.627 198.04 235.667 198.04 234.6C198.04 233.52 198.273 232.56 198.74 231.72C199.207 230.88 199.847 230.213 200.66 229.72C201.487 229.227 202.427 228.98 203.48 228.98C204.187 228.98 204.847 229.107 205.46 229.36C206.073 229.613 206.613 229.953 207.08 230.38C207.547 230.807 207.887 231.307 208.1 231.88L206.44 232.68C206.187 232.12 205.8 231.667 205.28 231.32C204.76 230.96 204.16 230.78 203.48 230.78C202.827 230.78 202.233 230.947 201.7 231.28C201.18 231.613 200.767 232.067 200.46 232.64C200.153 233.213 200 233.873 200 234.62C200 235.34 200.153 235.993 200.46 236.58C200.767 237.153 201.18 237.607 201.7 237.94C202.233 238.273 202.827 238.44 203.48 238.44C204.16 238.44 204.76 238.267 205.28 237.92C205.8 237.56 206.187 237.087 206.44 236.5L208.1 237.34C207.887 237.9 207.547 238.4 207.08 238.84C206.613 239.267 206.073 239.607 205.46 239.86C204.847 240.113 204.187 240.24 203.48 240.24ZM215.251 240.24C214.211 240.24 213.271 240 212.431 239.52C211.591 239.027 210.924 238.353 210.431 237.5C209.937 236.647 209.691 235.68 209.691 234.6C209.691 233.52 209.931 232.56 210.411 231.72C210.904 230.88 211.571 230.213 212.411 229.72C213.251 229.227 214.197 228.98 215.251 228.98C216.291 228.98 217.231 229.227 218.071 229.72C218.911 230.2 219.571 230.86 220.051 231.7C220.544 232.54 220.791 233.507 220.791 234.6C220.791 235.693 220.537 236.667 220.031 237.52C219.524 238.36 218.851 239.027 218.011 239.52C217.184 240 216.264 240.24 215.251 240.24ZM215.251 238.44C215.917 238.44 216.517 238.273 217.051 237.94C217.597 237.607 218.024 237.147 218.331 236.56C218.651 235.973 218.811 235.32 218.811 234.6C218.811 233.867 218.651 233.22 218.331 232.66C218.024 232.087 217.597 231.633 217.051 231.3C216.517 230.953 215.917 230.78 215.251 230.78C214.571 230.78 213.957 230.953 213.411 231.3C212.877 231.633 212.451 232.087 212.131 232.66C211.811 233.22 211.651 233.867 211.651 234.6C211.651 235.32 211.811 235.973 212.131 236.56C212.451 237.147 212.877 237.607 213.411 237.94C213.957 238.273 214.571 238.44 215.251 238.44ZM222.817 240V229.22H224.637V231.32L224.337 231.14C224.603 230.46 225.03 229.933 225.617 229.56C226.217 229.173 226.917 228.98 227.717 228.98C228.49 228.98 229.177 229.153 229.777 229.5C230.39 229.847 230.87 230.327 231.217 230.94C231.577 231.553 231.757 232.247 231.757 233.02V240H229.877V233.62C229.877 233.02 229.77 232.513 229.557 232.1C229.343 231.687 229.037 231.367 228.637 231.14C228.25 230.9 227.803 230.78 227.297 230.78C226.79 230.78 226.337 230.9 225.937 231.14C225.55 231.367 225.243 231.693 225.017 232.12C224.79 232.533 224.677 233.033 224.677 233.62V240H222.817ZM238.398 240.12C237.345 240.12 236.531 239.82 235.958 239.22C235.398 238.62 235.118 237.773 235.118 236.68V231H233.158V229.22H233.558C234.038 229.22 234.418 229.073 234.698 228.78C234.978 228.487 235.118 228.1 235.118 227.62V226.74H236.978V229.22H239.398V231H236.978V236.62C236.978 236.98 237.031 237.293 237.138 237.56C237.258 237.827 237.451 238.04 237.718 238.2C237.985 238.347 238.338 238.42 238.778 238.42C238.871 238.42 238.985 238.413 239.118 238.4C239.265 238.387 239.398 238.373 239.518 238.36V240C239.345 240.04 239.151 240.067 238.938 240.08C238.725 240.107 238.545 240.12 238.398 240.12ZM241.548 240V229.22H243.408V240H241.548ZM241.548 227.5V225.1H243.408V227.5H241.548ZM245.894 240V229.22H247.714V231.32L247.414 231.14C247.681 230.46 248.107 229.933 248.694 229.56C249.294 229.173 249.994 228.98 250.794 228.98C251.567 228.98 252.254 229.153 252.854 229.5C253.467 229.847 253.947 230.327 254.294 230.94C254.654 231.553 254.834 232.247 254.834 233.02V240H252.954V233.62C252.954 233.02 252.847 232.513 252.634 232.1C252.421 231.687 252.114 231.367 251.714 231.14C251.327 230.9 250.881 230.78 250.374 230.78C249.867 230.78 249.414 230.9 249.014 231.14C248.627 231.367 248.321 231.693 248.094 232.12C247.867 232.533 247.754 233.033 247.754 233.62V240H245.894ZM260.915 240.24C260.142 240.24 259.442 240.06 258.815 239.7C258.202 239.34 257.722 238.84 257.375 238.2C257.042 237.547 256.875 236.8 256.875 235.96V229.22H258.735V235.76C258.735 236.293 258.842 236.76 259.055 237.16C259.282 237.56 259.589 237.873 259.975 238.1C260.375 238.327 260.829 238.44 261.335 238.44C261.842 238.44 262.289 238.327 262.675 238.1C263.075 237.873 263.382 237.547 263.595 237.12C263.822 236.693 263.935 236.187 263.935 235.6V229.22H265.815V240H263.995V237.9L264.295 238.08C264.042 238.76 263.609 239.293 262.995 239.68C262.395 240.053 261.702 240.24 260.915 240.24ZM273.257 240.24C272.217 240.24 271.29 239.993 270.477 239.5C269.664 239.007 269.024 238.333 268.557 237.48C268.09 236.613 267.857 235.647 267.857 234.58C267.857 233.5 268.084 232.54 268.537 231.7C269.004 230.86 269.63 230.2 270.417 229.72C271.217 229.227 272.11 228.98 273.097 228.98C273.897 228.98 274.604 229.127 275.217 229.42C275.844 229.7 276.37 230.087 276.797 230.58C277.237 231.06 277.57 231.613 277.797 232.24C278.037 232.853 278.157 233.493 278.157 234.16C278.157 234.307 278.144 234.473 278.117 234.66C278.104 234.833 278.084 235 278.057 235.16H269.217V233.56H276.977L276.097 234.28C276.217 233.587 276.15 232.967 275.897 232.42C275.644 231.873 275.27 231.44 274.777 231.12C274.284 230.8 273.724 230.64 273.097 230.64C272.47 230.64 271.897 230.8 271.377 231.12C270.857 231.44 270.45 231.9 270.157 232.5C269.877 233.087 269.764 233.787 269.817 234.6C269.764 235.387 269.884 236.08 270.177 236.68C270.484 237.267 270.91 237.727 271.457 238.06C272.017 238.38 272.624 238.54 273.277 238.54C273.997 238.54 274.604 238.373 275.097 238.04C275.59 237.707 275.99 237.28 276.297 236.76L277.857 237.56C277.644 238.053 277.31 238.507 276.857 238.92C276.417 239.32 275.89 239.64 275.277 239.88C274.677 240.12 274.004 240.24 273.257 240.24ZM287.619 240.12C286.566 240.12 285.753 239.82 285.179 239.22C284.619 238.62 284.339 237.773 284.339 236.68V231H282.379V229.22H282.779C283.259 229.22 283.639 229.073 283.919 228.78C284.199 228.487 284.339 228.1 284.339 227.62V226.74H286.199V229.22H288.619V231H286.199V236.62C286.199 236.98 286.253 237.293 286.359 237.56C286.479 237.827 286.673 238.04 286.939 238.2C287.206 238.347 287.559 238.42 287.999 238.42C288.093 238.42 288.206 238.413 288.339 238.4C288.486 238.387 288.619 238.373 288.739 238.36V240C288.566 240.04 288.373 240.067 288.159 240.08C287.946 240.107 287.766 240.12 287.619 240.12ZM290.769 240V224.86H292.629V231.32L292.289 231.14C292.556 230.46 292.982 229.933 293.569 229.56C294.169 229.173 294.869 228.98 295.669 228.98C296.442 228.98 297.129 229.153 297.729 229.5C298.342 229.847 298.822 230.327 299.169 230.94C299.529 231.553 299.709 232.247 299.709 233.02V240H297.829V233.62C297.829 233.02 297.716 232.513 297.489 232.1C297.276 231.687 296.976 231.367 296.589 231.14C296.202 230.9 295.756 230.78 295.249 230.78C294.756 230.78 294.309 230.9 293.909 231.14C293.509 231.367 293.196 231.693 292.969 232.12C292.742 232.533 292.629 233.033 292.629 233.62V240H290.769ZM306.93 240.24C305.89 240.24 304.964 239.993 304.15 239.5C303.337 239.007 302.697 238.333 302.23 237.48C301.764 236.613 301.53 235.647 301.53 234.58C301.53 233.5 301.757 232.54 302.21 231.7C302.677 230.86 303.304 230.2 304.09 229.72C304.89 229.227 305.784 228.98 306.77 228.98C307.57 228.98 308.277 229.127 308.89 229.42C309.517 229.7 310.044 230.087 310.47 230.58C310.91 231.06 311.244 231.613 311.47 232.24C311.71 232.853 311.83 233.493 311.83 234.16C311.83 234.307 311.817 234.473 311.79 234.66C311.777 234.833 311.757 235 311.73 235.16H302.89V233.56H310.65L309.77 234.28C309.89 233.587 309.824 232.967 309.57 232.42C309.317 231.873 308.944 231.44 308.45 231.12C307.957 230.8 307.397 230.64 306.77 230.64C306.144 230.64 305.57 230.8 305.05 231.12C304.53 231.44 304.124 231.9 303.83 232.5C303.55 233.087 303.437 233.787 303.49 234.6C303.437 235.387 303.557 236.08 303.85 236.68C304.157 237.267 304.584 237.727 305.13 238.06C305.69 238.38 306.297 238.54 306.95 238.54C307.67 238.54 308.277 238.373 308.77 238.04C309.264 237.707 309.664 237.28 309.97 236.76L311.53 237.56C311.317 238.053 310.984 238.507 310.53 238.92C310.09 239.32 309.564 239.64 308.95 239.88C308.35 240.12 307.677 240.24 306.93 240.24ZM319.393 240L315.693 229.22H317.753L320.693 238.24L319.973 238.22L322.853 229.22H324.613L327.493 238.22L326.773 238.24L329.733 229.22H331.773L328.073 240H326.293L323.453 231H324.013L321.173 240H319.393ZM337.961 240.24C336.921 240.24 335.981 240 335.141 239.52C334.301 239.027 333.634 238.353 333.141 237.5C332.647 236.647 332.401 235.68 332.401 234.6C332.401 233.52 332.641 232.56 333.121 231.72C333.614 230.88 334.281 230.213 335.121 229.72C335.961 229.227 336.907 228.98 337.961 228.98C339.001 228.98 339.941 229.227 340.781 229.72C341.621 230.2 342.281 230.86 342.761 231.7C343.254 232.54 343.501 233.507 343.501 234.6C343.501 235.693 343.247 236.667 342.741 237.52C342.234 238.36 341.561 239.027 340.721 239.52C339.894 240 338.974 240.24 337.961 240.24ZM337.961 238.44C338.627 238.44 339.227 238.273 339.761 237.94C340.307 237.607 340.734 237.147 341.041 236.56C341.361 235.973 341.521 235.32 341.521 234.6C341.521 233.867 341.361 233.22 341.041 232.66C340.734 232.087 340.307 231.633 339.761 231.3C339.227 230.953 338.627 230.78 337.961 230.78C337.281 230.78 336.667 230.953 336.121 231.3C335.587 231.633 335.161 232.087 334.841 232.66C334.521 233.22 334.361 233.867 334.361 234.6C334.361 235.32 334.521 235.973 334.841 236.56C335.161 237.147 335.587 237.607 336.121 237.94C336.667 238.273 337.281 238.44 337.961 238.44ZM345.527 240V229.22H347.347V231.2L347.147 230.92C347.4 230.307 347.787 229.853 348.307 229.56C348.827 229.253 349.46 229.1 350.207 229.1H350.867V230.86H349.927C349.167 230.86 348.553 231.1 348.087 231.58C347.62 232.047 347.387 232.713 347.387 233.58V240H345.527ZM352.119 240V224.86H353.979V235.24L353.219 235.06L358.939 229.22H361.319L357.179 233.56L361.599 240H359.399L355.359 234.16L356.519 234.1L353.379 237.38L353.979 236.02V240H352.119ZM363.631 240V237.6H365.571V240H363.631Z" fill="#262C41"/>
<defs>
<linearGradient id="paint0_linear_92_24697" x1="56.9077" y1="177.39" x2="55.9334" y2="177.392" gradientUnits="userSpaceOnUse">
<stop stop-color="#6FBE59"/>
<stop offset="1" stop-color="#37AE37"/>
</linearGradient>
</defs>
</svg>
