<svg width="109" height="109" viewBox="0 0 109 109" fill="none" xmlns="http://www.w3.org/2000/svg">
<path d="M66.7118 34.7674C66.5065 34.6517 66.3401 34.4778 66.2336 34.2675C66.1271 34.0573 66.0853 33.8202 66.1136 33.5862C66.1418 33.3522 66.2387 33.1318 66.3921 32.9529C66.5456 32.774 66.7486 32.6446 66.9755 32.581C67.2025 32.5175 67.4432 32.5226 67.6672 32.5958C67.8912 32.669 68.0885 32.8069 68.2342 32.9922C68.3798 33.1775 68.4673 33.4018 68.4855 33.6368C68.5037 33.8718 68.4518 34.1069 68.3365 34.3124C68.2604 34.4497 68.1578 34.5705 68.0347 34.6678C67.9116 34.7651 67.7703 34.837 67.6192 34.8793C67.4681 34.9217 67.3101 34.9336 67.1543 34.9144C66.9985 34.8951 66.8482 34.8452 66.7118 34.7674Z" fill="url(#paint0_linear_284_7415)"/>
<path d="M52.9427 47.0082C52.9427 46.9762 52.9427 46.9473 52.9203 46.9153C52.8458 46.6508 52.7109 46.4073 52.5261 46.2039L55.0191 41.7755L57.5153 37.347C57.8167 37.4058 58.1282 37.3848 58.419 37.2861L65.8755 47.2197C65.7388 47.3602 65.6204 47.5174 65.5231 47.6875C65.4292 47.8588 65.356 48.0405 65.3052 48.2291L52.9427 47.0082Z" fill="url(#paint1_linear_284_7415)"/>
<path d="M65.0264 33.7133L59.4701 34.9662C59.3152 34.7059 59.0941 34.4914 58.8292 34.3445C58.5583 34.193 58.2519 34.1167 57.9416 34.1234L56.4291 29.8424L55.7722 27.9839C55.9123 27.8677 56.0334 27.7304 56.1311 27.5769L65.2604 32.7039C65.1047 33.0175 65.0246 33.3632 65.0264 33.7133Z" fill="url(#paint2_linear_284_7415)"/>
<path d="M56.2913 36.2095C56.355 36.5131 56.4988 36.7941 56.7079 37.0234L51.7859 45.7585C51.4819 45.7017 51.1683 45.7249 50.8759 45.8258L43.1245 35.7512C43.2489 35.6174 43.3565 35.4689 43.4449 35.309C43.5329 35.1485 43.6027 34.9787 43.6532 34.8027L56.2913 36.2095Z" fill="url(#paint3_linear_284_7415)"/>
<path d="M55.5638 54.3013C55.1304 54.0557 54.6284 53.9589 54.1347 54.0257L54.0674 53.8399L52.2986 48.7802C52.4865 48.6356 52.6434 48.4547 52.76 48.2483C52.7888 48.1997 52.8145 48.1494 52.8369 48.0977L57.0731 48.5174L65.2891 49.3474C65.2891 49.3826 65.2891 49.4179 65.3115 49.4563C65.3542 49.6046 65.4111 49.7484 65.4814 49.8857L56.4899 55.2819C56.2869 54.8693 55.9642 54.5275 55.5638 54.3013Z" fill="url(#paint4_linear_284_7415)"/>
<path d="M42.0831 36.3793L42.2145 36.3345L50.0204 46.4795C49.9915 46.5212 49.9659 46.5628 49.9403 46.6045C49.8308 46.803 49.7602 47.0205 49.732 47.2454L44.0506 48.3509C43.891 47.8989 43.5923 47.509 43.1974 47.2373C42.8025 46.9656 42.3316 46.8259 41.8524 46.8384L41.6602 36.4659C41.8034 36.4495 41.945 36.4206 42.0831 36.3793Z" fill="url(#paint5_linear_284_7415)"/>
<path d="M53.5708 55.6663C53.7061 55.4261 53.9204 55.2401 54.1774 55.1402C54.4344 55.0402 54.7181 55.0324 54.9802 55.1182C55.2422 55.2039 55.4665 55.3778 55.6147 55.6103C55.7629 55.8428 55.8259 56.1195 55.7931 56.3933C55.7602 56.6671 55.6334 56.921 55.4343 57.1117C55.2352 57.3025 54.9762 57.4184 54.7013 57.4396C54.4263 57.4608 54.1526 57.3861 53.9266 57.2281C53.7006 57.0701 53.5364 56.8387 53.4618 56.5732C53.3777 56.2683 53.4169 55.9426 53.5708 55.6663Z" fill="url(#paint6_linear_284_7415)"/>
<path d="M42.6182 33.8702C42.6714 34.0591 42.6772 34.2581 42.635 34.4497C42.5928 34.6413 42.504 34.8196 42.3764 34.9686C42.2489 35.1177 42.0865 35.2329 41.9037 35.3042C41.7209 35.3754 41.5233 35.4004 41.3285 35.377C41.1337 35.3536 40.9478 35.2825 40.7871 35.1699C40.6263 35.0574 40.4959 34.9069 40.4073 34.7319C40.3187 34.5568 40.2747 34.3626 40.2791 34.1665C40.2836 33.9703 40.3364 33.7783 40.4328 33.6075C40.5475 33.4011 40.7211 33.2336 40.9315 33.1262C41.1418 33.0189 41.3793 32.9767 41.6138 33.0048C41.8482 33.033 42.0689 33.1304 42.2478 33.2845C42.4267 33.4386 42.5556 33.6425 42.6182 33.8702Z" fill="url(#paint7_linear_284_7415)"/>
<path d="M66.9168 46.6814L66.8111 46.7167L59.4026 36.8504C59.4355 36.8054 59.4654 36.7583 59.4923 36.7094C59.612 36.4987 59.6852 36.2649 59.707 36.0237L65.2762 34.7708C65.4754 35.1579 65.7814 35.4798 66.1579 35.6985C66.5344 35.9171 66.9657 36.0233 67.4007 36.0044L67.3815 46.6109C67.2246 46.6185 67.0689 46.6422 66.9168 46.6814Z" fill="#2E9546"/>
<path d="M43.8999 50.2126C44.0373 49.9663 44.1285 49.697 44.1691 49.4179L49.9369 48.2964C50.0915 48.575 50.3199 48.8056 50.597 48.9629C50.8656 49.1144 51.17 49.1907 51.4782 49.184L53.2791 54.311L53.3047 54.3815C53.026 54.575 52.7949 54.8292 52.6286 55.1249L43.8999 50.2158V50.2126Z" fill="#2E9546"/>
<path d="M53.6956 28.1761C54.0252 28.3629 54.4049 28.4425 54.7819 28.4036L56.9288 34.4919C56.7441 34.6333 56.5904 34.8111 56.477 35.0142C56.4513 35.0559 56.4321 35.1007 56.4097 35.1456L43.6915 33.726C43.6915 33.6812 43.6723 33.6363 43.6595 33.5915C43.6195 33.4478 43.5659 33.3083 43.4993 33.1749L53.0387 27.5576C53.2022 27.8157 53.4281 28.0284 53.6956 28.1761Z" fill="#2E9546"/>
<path d="M66.3786 49.1903C66.2936 48.8856 66.3331 48.5597 66.4885 48.2842C66.6438 48.0086 66.9022 47.8061 67.2069 47.7211C67.5116 47.6361 67.8375 47.6756 68.1131 47.831C68.3886 47.9863 68.5911 48.2448 68.6761 48.5494C68.7395 48.7765 68.734 49.0173 68.6605 49.2413C68.587 49.4653 68.4488 49.6625 68.2632 49.8079C68.0777 49.9533 67.8532 50.0405 67.6181 50.0583C67.383 50.0761 67.1479 50.0239 66.9425 49.9081C66.806 49.8314 66.6859 49.7285 66.5891 49.6053C66.4924 49.4822 66.4208 49.3411 66.3786 49.1903Z" fill="#2E9546"/>
<path d="M42.4964 48.0655C42.7018 48.1812 42.8682 48.3552 42.9747 48.5654C43.0812 48.7757 43.1229 49.0128 43.0947 49.2468C43.0665 49.4808 42.9696 49.7011 42.8161 49.88C42.6627 50.0589 42.4597 50.1883 42.2328 50.2519C42.0058 50.3155 41.7651 50.3103 41.5411 50.2371C41.3171 50.1639 41.1198 50.026 40.9741 49.8407C40.8285 49.6554 40.741 49.4311 40.7228 49.1961C40.7046 48.9612 40.7564 48.7261 40.8718 48.5206C40.9479 48.3833 41.0505 48.2625 41.1736 48.1652C41.2967 48.0678 41.4379 47.9959 41.5891 47.9536C41.7402 47.9113 41.8982 47.8994 42.054 47.9186C42.2097 47.9378 42.3601 47.9877 42.4964 48.0655Z" fill="#2E9546"/>
<path d="M55.6376 27.1603C55.5606 27.2967 55.4575 27.4165 55.3342 27.5131C55.2109 27.6096 55.0697 27.6808 54.9189 27.7228C54.768 27.7648 54.6103 27.7766 54.4549 27.7576C54.2994 27.7386 54.1493 27.6892 54.0129 27.6121C53.7384 27.4567 53.5366 27.1987 53.452 26.8948C53.3673 26.5908 53.4065 26.2657 53.5611 25.9907C53.7208 25.7243 53.9781 25.5308 54.2783 25.4513C54.5785 25.3718 54.8979 25.4126 55.1685 25.5651C55.4391 25.7175 55.6395 25.9694 55.7271 26.2674C55.8147 26.5653 55.7826 26.8857 55.6376 27.1603Z" fill="#2E9546"/>
<path d="M51.7956 60.9409C51.6249 60.8446 51.4805 60.7077 51.3752 60.5423C51.27 60.3769 51.2072 60.1881 51.1924 59.9926C51.1776 59.7972 51.2112 59.6011 51.2902 59.4217C51.3693 59.2423 51.4914 59.0852 51.6457 58.9643C51.8 58.8433 51.9817 58.7623 52.1748 58.7284C52.3679 58.6945 52.5663 58.7087 52.7526 58.7698C52.9389 58.831 53.1072 58.9371 53.2426 59.0788C53.3781 59.2205 53.4765 59.3934 53.5292 59.5822C53.5909 59.8091 53.5843 60.0491 53.5103 60.2722C53.4363 60.4953 53.2982 60.6917 53.1132 60.8367C52.9281 60.9817 52.7044 61.0689 52.4701 61.0874C52.2358 61.106 52.0011 61.055 51.7956 60.9409Z" fill="url(#paint8_linear_284_7415)"/>
<path d="M38.023 73.1783C38.0171 73.1481 38.0096 73.1181 38.0006 73.0886C37.9288 72.8231 37.7935 72.579 37.6064 72.3772L40.1027 67.9488L42.5957 63.5204C42.8971 63.5775 43.2082 63.5566 43.4993 63.4595L50.9559 73.393C50.8199 73.5334 50.7025 73.6906 50.6066 73.8609C50.5094 74.0317 50.4361 74.2149 50.3887 74.4056L38.023 73.1783Z" fill="url(#paint9_linear_284_7415)"/>
<path d="M50.1101 59.8866L44.5409 61.1363C44.3843 60.8741 44.1609 60.6582 43.8934 60.5107C43.626 60.3632 43.3242 60.2893 43.0188 60.2968L41.5064 56.0157L40.8655 54.1572C41.0057 54.0403 41.1277 53.9031 41.2276 53.7502L50.3536 58.8772C50.1946 59.19 50.1112 59.5357 50.1101 59.8866Z" fill="url(#paint10_linear_284_7415)"/>
<path d="M41.3749 62.3795C41.436 62.6834 41.5789 62.9648 41.7882 63.1934L36.8663 71.9285C36.5624 71.8688 36.2481 71.8921 35.9563 71.9958L28.1985 61.9213C28.4539 61.6502 28.6378 61.3199 28.7336 60.96L41.3749 62.3795Z" fill="url(#paint11_linear_284_7415)"/>
<path d="M40.6474 80.4747C40.2133 80.2276 39.7098 80.1308 39.215 80.1991L39.1509 80.0132L37.3789 74.9535C37.5676 74.8098 37.7247 74.6287 37.8403 74.4216C37.8685 74.3727 37.8942 74.3225 37.9172 74.271L42.1566 74.6908L50.3694 75.5047C50.3694 75.5431 50.3855 75.5784 50.3951 75.6136C50.4361 75.763 50.4919 75.9079 50.5617 76.0462L41.5895 81.4424C41.3791 81.0329 41.051 80.6959 40.6474 80.4747Z" fill="url(#paint12_linear_284_7415)"/>
<path d="M27.1635 62.5527L27.2948 62.5078L35.1007 72.6529C35.0751 72.6945 35.0462 72.733 35.0238 72.7778C34.9114 72.975 34.8406 73.1931 34.8155 73.4187L29.1309 74.521C28.9489 74.003 28.5844 73.569 28.1055 73.3001C27.7496 73.0982 27.3449 72.9984 26.9359 73.0118L26.7405 62.636C26.884 62.6229 27.0257 62.595 27.1635 62.5527Z" fill="url(#paint13_linear_284_7415)"/>
<path d="M38.6544 81.8396C38.7701 81.6346 38.944 81.4685 39.154 81.3621C39.3641 81.2558 39.6009 81.2141 39.8347 81.2422C40.0684 81.2703 40.2886 81.367 40.4675 81.5201C40.6464 81.6732 40.7759 81.8758 40.8397 82.1024C40.8818 82.2533 40.8938 82.4109 40.8749 82.5664C40.8561 82.7219 40.8068 82.8721 40.7299 83.0086C40.6529 83.145 40.5499 83.2649 40.4266 83.3615C40.3034 83.4581 40.1623 83.5295 40.0114 83.5716C39.8605 83.6137 39.7029 83.6256 39.5474 83.6068C39.3919 83.5879 39.2417 83.5386 39.1052 83.4617C38.9688 83.3848 38.8489 83.2818 38.7523 83.1585C38.6557 83.0352 38.5843 82.8941 38.5422 82.7433C38.4585 82.4391 38.4989 82.1141 38.6544 81.8396Z" fill="url(#paint14_linear_284_7415)"/>
<path d="M27.7018 60.0435C27.7859 60.3484 27.7468 60.6741 27.5928 60.9504C27.4576 61.1907 27.2432 61.3766 26.9862 61.4766C26.7292 61.5765 26.4455 61.5843 26.1835 61.4986C25.9214 61.4128 25.6972 61.2389 25.5489 61.0064C25.4007 60.7739 25.3377 60.4972 25.3706 60.2234C25.4035 59.9497 25.5302 59.6958 25.7293 59.505C25.9284 59.3142 26.1875 59.1983 26.4624 59.1771C26.7373 59.1559 27.0111 59.2307 27.2371 59.3886C27.463 59.5466 27.6273 59.7781 27.7018 60.0435Z" fill="url(#paint15_linear_284_7415)"/>
<path d="M51.9974 72.8546L51.8948 72.8898L44.4863 63.0171C44.5184 62.9723 44.5472 62.9242 44.5761 62.8761C44.6939 62.6647 44.7669 62.4313 44.7907 62.1904L50.3567 60.9375C50.5555 61.3248 50.8615 61.6468 51.2382 61.8649C51.6149 62.0831 52.0464 62.1883 52.4812 62.168L52.462 72.7745C52.305 72.7871 52.1495 72.8139 51.9974 72.8546Z" fill="#2E9546"/>
<path d="M28.9707 76.3859C29.1096 76.1403 29.2009 75.8707 29.2399 75.5913L35.0077 74.4697C35.1623 74.7483 35.3907 74.979 35.6678 75.1362C35.9377 75.2871 36.2432 75.3624 36.5523 75.3541L38.3499 80.4972L38.3755 80.5644C38.0969 80.7593 37.8657 81.0145 37.6994 81.3111L28.9707 76.3891V76.3859Z" fill="#2E9546"/>
<path d="M38.773 54.3495C39.1032 54.5348 39.4824 54.6142 39.8593 54.577L42.0062 60.6653C41.8223 60.8064 41.6687 60.9829 41.5544 61.1844L41.4903 61.3158L28.7689 59.8995C28.7689 59.8546 28.7497 59.8065 28.7369 59.7617C28.6983 59.6186 28.6446 59.48 28.5767 59.3483L38.1321 53.7214C38.2899 53.9811 38.5102 54.197 38.773 54.3495Z" fill="#2E9546"/>
<path d="M51.4622 75.3637C51.4089 75.1748 51.4032 74.9758 51.4453 74.7842C51.4875 74.5926 51.5763 74.4144 51.7039 74.2653C51.8315 74.1163 51.9939 74.001 52.1767 73.9298C52.3595 73.8585 52.557 73.8335 52.7518 73.8569C52.9466 73.8803 53.1326 73.9515 53.2933 74.064C53.454 74.1766 53.5844 74.327 53.673 74.5021C53.7616 74.6771 53.8057 74.8713 53.8012 75.0675C53.7968 75.2636 53.744 75.4556 53.6475 75.6264C53.5328 75.8328 53.3592 76.0004 53.1489 76.1077C52.9385 76.215 52.701 76.2573 52.4666 76.2291C52.2321 76.2009 52.0114 76.1035 51.8325 75.9494C51.6536 75.7953 51.5247 75.5914 51.4622 75.3637Z" fill="#2E9546"/>
<path d="M27.5769 74.2326C27.7138 74.3089 27.8342 74.4117 27.931 74.5349C28.0278 74.6581 28.0992 74.7994 28.1409 74.9504C28.2153 75.216 28.1953 75.4991 28.0843 75.7515C27.9734 76.004 27.7783 76.2101 27.5324 76.3349C27.2865 76.4597 27.0049 76.4953 26.7356 76.4358C26.4664 76.3762 26.2261 76.2252 26.0557 76.0083C25.8854 75.7915 25.7954 75.5223 25.8013 75.2466C25.8071 74.9709 25.9084 74.7058 26.0878 74.4963C26.2672 74.2869 26.5137 74.1462 26.7852 74.0981C27.0567 74.05 27.3365 74.0976 27.5769 74.2326Z" fill="#2E9546"/>
<path d="M40.7181 53.3335C40.6021 53.5387 40.4278 53.7049 40.2174 53.8111C40.0069 53.9173 39.7697 53.9588 39.5357 53.9302C39.3017 53.9016 39.0815 53.8043 38.9028 53.6505C38.7241 53.4967 38.595 53.2935 38.5319 53.0663C38.4687 52.8392 38.4743 52.5985 38.5479 52.3746C38.6216 52.1506 38.76 51.9536 38.9456 51.8083C39.1312 51.663 39.3558 51.576 39.5908 51.5583C39.8259 51.5406 40.0609 51.593 40.2662 51.7089C40.541 51.8649 40.7428 52.1235 40.8275 52.4279C40.9121 52.7324 40.8728 53.058 40.7181 53.3335Z" fill="#2E9546"/>
<path d="M81.6313 60.9407C81.3569 60.7842 81.1545 60.5266 81.0674 60.2229C80.993 59.9574 81.013 59.6743 81.124 59.4218C81.2349 59.1694 81.43 58.9632 81.6759 58.8385C81.9218 58.7137 82.2034 58.6781 82.4726 58.7376C82.7419 58.7971 82.9822 58.9482 83.1525 59.165C83.3229 59.3819 83.4128 59.6511 83.407 59.9268C83.4011 60.2025 83.2999 60.4676 83.1205 60.677C82.9411 60.8864 82.6946 61.0272 82.4231 61.0753C82.1515 61.1233 81.8717 61.0758 81.6313 60.9407Z" fill="url(#paint16_linear_284_7415)"/>
<path d="M67.859 73.1783L67.8397 73.0886C67.7653 72.8234 67.6292 72.5797 67.4424 72.3772L69.9386 67.9488L72.4348 63.5204C72.7352 63.5775 73.0453 63.5566 73.3352 63.4595L80.795 73.393C80.5182 73.6738 80.3214 74.0234 80.2246 74.4056L67.859 73.1783Z" fill="url(#paint17_linear_284_7415)"/>
<path d="M79.9458 59.8866L74.3894 61.1363C74.2326 60.8736 74.0086 60.6574 73.7406 60.5099C73.4725 60.3623 73.17 60.2888 72.8642 60.2968L71.3549 56.0157L70.698 54.1572C70.8363 54.0392 70.9571 53.9022 71.0569 53.7502L80.1829 58.8772C80.0277 59.1911 79.9466 59.5364 79.9458 59.8866Z" fill="url(#paint18_linear_284_7415)"/>
<path d="M71.2107 62.3796C71.2744 62.6833 71.4182 62.9643 71.6273 63.1935L66.7054 71.9287C66.4015 71.8688 66.0871 71.892 65.7953 71.9959L58.0439 61.9214C58.1676 61.787 58.2752 61.6386 58.3644 61.4792C58.4544 61.3197 58.5244 61.1496 58.5727 60.9729L71.2107 62.3796Z" fill="url(#paint19_linear_284_7415)"/>
<path d="M70.4962 80.4747C70.0637 80.2265 69.5609 80.1295 69.0671 80.1991L68.9998 80.0132L67.2278 74.9535C67.4175 74.8099 67.5756 74.6289 67.6924 74.4216C67.7181 74.3703 67.7437 74.3223 67.7661 74.271L72.0055 74.6908L80.2183 75.5047C80.2183 75.5431 80.2183 75.5784 80.2439 75.6136C80.2846 75.7636 80.3416 75.9086 80.4138 76.0462L71.4223 81.4424C71.2163 81.0352 70.894 80.6984 70.4962 80.4747Z" fill="url(#paint20_linear_284_7415)"/>
<path d="M57.0026 62.5527L57.134 62.5078L64.9367 72.6529L64.8598 72.7778C64.7488 72.9757 64.6781 73.1935 64.6515 73.4187L58.9605 74.5114C58.8039 74.0583 58.5063 73.6673 58.1113 73.3956C57.7163 73.124 57.2446 72.9861 56.7655 73.0021L56.5732 62.6264C56.7185 62.6163 56.8623 62.5916 57.0026 62.5527Z" fill="url(#paint21_linear_284_7415)"/>
<path d="M68.4902 81.8398C68.6256 81.5986 68.8405 81.4119 69.0982 81.3114C69.3559 81.2109 69.6404 81.2029 69.9034 81.2888C70.1663 81.3746 70.3913 81.549 70.5401 81.7822C70.6888 82.0154 70.7521 82.2929 70.7191 82.5675C70.6861 82.8422 70.5589 83.0968 70.3591 83.2881C70.1594 83.4795 69.8995 83.5956 69.6237 83.6167C69.3479 83.6378 69.0733 83.5627 68.8468 83.404C68.6202 83.2453 68.4557 83.013 68.3813 82.7466C68.2961 82.4419 68.3353 82.1157 68.4902 81.8398Z" fill="url(#paint22_linear_284_7415)"/>
<path d="M57.5378 60.0436C57.6011 60.2707 57.5957 60.5114 57.5222 60.7354C57.4487 60.9594 57.3104 61.1566 57.1249 61.302C56.9393 61.4475 56.7148 61.5346 56.4797 61.5524C56.2447 61.5703 56.0096 61.518 55.8042 61.4022C55.5296 61.2468 55.3279 60.9888 55.2432 60.6849C55.1585 60.381 55.1978 60.0558 55.3524 59.7808C55.4681 59.5758 55.642 59.4096 55.8521 59.3033C56.0621 59.197 56.2989 59.1552 56.5327 59.1833C56.7665 59.2114 56.9867 59.3081 57.1655 59.4612C57.3444 59.6143 57.4739 59.817 57.5378 60.0436Z" fill="url(#paint23_linear_284_7415)"/>
<path d="M81.8333 72.8546L81.7308 72.8898L74.3223 63.0171C74.3543 62.9723 74.3831 62.9242 74.412 62.8761C74.5312 62.6653 74.6044 62.4316 74.6267 62.1904L80.1927 60.9375C80.392 61.3243 80.6982 61.6458 81.0747 61.8639C81.4513 62.082 81.8825 62.1875 82.3172 62.168L82.3012 72.7745C82.1431 72.7868 81.9865 72.8137 81.8333 72.8546Z" fill="#2E9546"/>
<path d="M58.8068 76.3859C58.9457 76.1403 59.037 75.8707 59.076 75.5913L64.8438 74.4697C64.9946 74.7446 65.2182 74.9726 65.4901 75.1286C65.7621 75.2847 66.0717 75.3627 66.3851 75.3541L68.186 80.4972L68.2084 80.5644C67.9305 80.7602 67.6996 81.0152 67.5323 81.3111L58.7908 76.3859H58.8068Z" fill="#2E9546"/>
<path d="M68.6153 54.3494C68.9455 54.5347 69.3247 54.6141 69.7016 54.5769L71.8453 60.6652C71.6623 60.8071 71.5088 60.9835 71.3935 61.1843L71.3294 61.3157L58.608 59.8994C58.608 59.8545 58.592 59.8065 58.5792 59.7616C58.5378 59.6194 58.4842 59.4811 58.4189 59.3482L67.9552 53.731C68.1207 53.9885 68.3475 54.201 68.6153 54.3494Z" fill="#2E9546"/>
<path d="M81.2982 75.3636C81.2349 75.1365 81.2403 74.8957 81.3138 74.6717C81.3873 74.4477 81.5256 74.2506 81.7111 74.1051C81.8967 73.9597 82.1212 73.8726 82.3563 73.8547C82.5913 73.8369 82.8264 73.8892 83.0318 74.0049C83.3063 74.1604 83.5081 74.4183 83.5928 74.7223C83.6775 75.0262 83.6382 75.3513 83.4836 75.6264C83.3679 75.8314 83.194 75.9975 82.9839 76.1039C82.7739 76.2102 82.537 76.2519 82.3033 76.2238C82.0695 76.1957 81.8493 76.099 81.6705 75.9459C81.4916 75.7928 81.3621 75.5902 81.2982 75.3636Z" fill="#2E9546"/>
<path d="M57.4128 74.2326C57.6174 74.3483 57.783 74.5221 57.8889 74.7319C57.9947 74.9417 58.036 75.1782 58.0076 75.4115C57.9791 75.6447 57.8821 75.8643 57.7288 76.0425C57.5756 76.2207 57.373 76.3495 57.1466 76.4125C56.9202 76.4756 56.6802 76.4702 56.4569 76.3969C56.2336 76.3237 56.037 76.1859 55.892 76.001C55.747 75.816 55.66 75.5923 55.6421 75.3579C55.6242 75.1236 55.6762 74.8892 55.7914 74.6844C55.8674 74.5475 55.9699 74.4271 56.0929 74.3301C56.2158 74.2332 56.3568 74.1616 56.5077 74.1196C56.6585 74.0775 56.8162 74.0659 56.9716 74.0853C57.127 74.1047 57.2769 74.1548 57.4128 74.2326Z" fill="#2E9546"/>
<path d="M70.5571 53.3337C70.4011 53.6084 70.1425 53.8102 69.8381 53.8949C69.5336 53.9796 69.208 53.9402 68.9325 53.7855C68.7956 53.7092 68.6753 53.6064 68.5785 53.4832C68.4816 53.36 68.4103 53.2187 68.3685 53.0677C68.3052 52.8406 68.3106 52.5998 68.3841 52.3758C68.4576 52.1518 68.5959 51.9547 68.7814 51.8092C68.967 51.6638 69.1915 51.5767 69.4266 51.5588C69.6616 51.541 69.8967 51.5933 70.1021 51.709C70.239 51.7853 70.3593 51.8881 70.4561 52.0113C70.553 52.1345 70.6243 52.2758 70.6661 52.4268C70.7502 52.7317 70.711 53.0574 70.5571 53.3337Z" fill="#2E9546"/>
<defs>
<linearGradient id="paint0_linear_284_7415" x1="68.7475" y1="34.714" x2="66.4826" y2="35.4531" gradientUnits="userSpaceOnUse">
<stop stop-color="#6FBE59"/>
<stop offset="1" stop-color="#49B649"/>
</linearGradient>
<linearGradient id="paint1_linear_284_7415" x1="64.485" y1="43.2559" x2="52.7193" y2="47.0953" gradientUnits="userSpaceOnUse">
<stop stop-color="#6FBE59"/>
<stop offset="1" stop-color="#44AB44"/>
</linearGradient>
<linearGradient id="paint2_linear_284_7415" x1="64.5201" y1="30.8323" x2="57.3359" y2="33.1766" gradientUnits="userSpaceOnUse">
<stop stop-color="#6FBE59"/>
<stop offset="1" stop-color="#44AB44"/>
</linearGradient>
<linearGradient id="paint3_linear_284_7415" x1="57.1389" y1="38.7043" x2="45.2362" y2="42.5883" gradientUnits="userSpaceOnUse">
<stop stop-color="#6FBE59"/>
<stop offset="1" stop-color="#44AB44"/>
</linearGradient>
<linearGradient id="paint4_linear_284_7415" x1="65.3303" y1="49.6864" x2="53.7351" y2="53.47" gradientUnits="userSpaceOnUse">
<stop stop-color="#6FBE59"/>
<stop offset="1" stop-color="#44AB44"/>
</linearGradient>
<linearGradient id="paint5_linear_284_7415" x1="48.5922" y1="42.4061" x2="41.1097" y2="44.8477" gradientUnits="userSpaceOnUse">
<stop stop-color="#6FBE59"/>
<stop offset="1" stop-color="#44AB44"/>
</linearGradient>
<linearGradient id="paint6_linear_284_7415" x1="56.1122" y1="57.2449" x2="53.8474" y2="57.984" gradientUnits="userSpaceOnUse">
<stop stop-color="#6FBE59"/>
<stop offset="1" stop-color="#49B649"/>
</linearGradient>
<linearGradient id="paint7_linear_284_7415" x1="42.9386" y1="35.2272" x2="40.6737" y2="35.9662" gradientUnits="userSpaceOnUse">
<stop stop-color="#6FBE59"/>
<stop offset="1" stop-color="#49B649"/>
</linearGradient>
<linearGradient id="paint8_linear_284_7415" x1="53.8887" y1="60.8977" x2="51.6269" y2="61.6357" gradientUnits="userSpaceOnUse">
<stop stop-color="#6FBE59"/>
<stop offset="1" stop-color="#49B649"/>
</linearGradient>
<linearGradient id="paint9_linear_284_7415" x1="49.627" y1="69.4425" x2="37.8644" y2="73.2808" gradientUnits="userSpaceOnUse">
<stop stop-color="#6FBE59"/>
<stop offset="1" stop-color="#44AB44"/>
</linearGradient>
<linearGradient id="paint10_linear_284_7415" x1="49.6653" y1="57.0179" x2="42.478" y2="59.3632" gradientUnits="userSpaceOnUse">
<stop stop-color="#6FBE59"/>
<stop offset="1" stop-color="#44AB44"/>
</linearGradient>
<linearGradient id="paint11_linear_284_7415" x1="42.284" y1="64.8898" x2="30.3813" y2="68.7738" gradientUnits="userSpaceOnUse">
<stop stop-color="#6FBE59"/>
<stop offset="1" stop-color="#44AB44"/>
</linearGradient>
<linearGradient id="paint12_linear_284_7415" x1="50.4753" y1="75.8719" x2="38.8802" y2="79.6556" gradientUnits="userSpaceOnUse">
<stop stop-color="#6FBE59"/>
<stop offset="1" stop-color="#44AB44"/>
</linearGradient>
<linearGradient id="paint13_linear_284_7415" x1="33.7363" y1="68.5886" x2="26.2538" y2="71.0303" gradientUnits="userSpaceOnUse">
<stop stop-color="#6FBE59"/>
<stop offset="1" stop-color="#44AB44"/>
</linearGradient>
<linearGradient id="paint14_linear_284_7415" x1="41.2543" y1="83.4315" x2="38.9924" y2="84.1695" gradientUnits="userSpaceOnUse">
<stop stop-color="#6FBE59"/>
<stop offset="1" stop-color="#49B649"/>
</linearGradient>
<linearGradient id="paint15_linear_284_7415" x1="28.0837" y1="61.4127" x2="25.8188" y2="62.1518" gradientUnits="userSpaceOnUse">
<stop stop-color="#6FBE59"/>
<stop offset="1" stop-color="#49B649"/>
</linearGradient>
<linearGradient id="paint16_linear_284_7415" x1="83.7055" y1="60.8382" x2="81.4407" y2="61.5772" gradientUnits="userSpaceOnUse">
<stop stop-color="#6FBE59"/>
<stop offset="1" stop-color="#49B649"/>
</linearGradient>
<linearGradient id="paint17_linear_284_7415" x1="79.444" y1="69.3831" x2="67.6784" y2="73.2225" gradientUnits="userSpaceOnUse">
<stop stop-color="#6FBE59"/>
<stop offset="1" stop-color="#44AB44"/>
</linearGradient>
<linearGradient id="paint18_linear_284_7415" x1="79.4812" y1="56.9555" x2="72.2939" y2="59.3008" gradientUnits="userSpaceOnUse">
<stop stop-color="#6FBE59"/>
<stop offset="1" stop-color="#44AB44"/>
</linearGradient>
<linearGradient id="paint19_linear_284_7415" x1="72.0979" y1="64.8315" x2="60.1953" y2="68.7155" gradientUnits="userSpaceOnUse">
<stop stop-color="#6FBE59"/>
<stop offset="1" stop-color="#44AB44"/>
</linearGradient>
<linearGradient id="paint20_linear_284_7415" x1="80.2895" y1="75.8136" x2="68.6973" y2="79.5962" gradientUnits="userSpaceOnUse">
<stop stop-color="#6FBE59"/>
<stop offset="1" stop-color="#44AB44"/>
</linearGradient>
<linearGradient id="paint21_linear_284_7415" x1="63.5534" y1="68.5292" x2="56.0709" y2="70.9709" gradientUnits="userSpaceOnUse">
<stop stop-color="#6FBE59"/>
<stop offset="1" stop-color="#44AB44"/>
</linearGradient>
<linearGradient id="paint22_linear_284_7415" x1="71.0712" y1="83.3722" x2="68.8064" y2="84.1113" gradientUnits="userSpaceOnUse">
<stop stop-color="#6FBE59"/>
<stop offset="1" stop-color="#49B649"/>
</linearGradient>
<linearGradient id="paint23_linear_284_7415" x1="57.8967" y1="61.3513" x2="55.6349" y2="62.0894" gradientUnits="userSpaceOnUse">
<stop stop-color="#6FBE59"/>
<stop offset="1" stop-color="#49B649"/>
</linearGradient>
</defs>
</svg>
