<svg width="50" height="50" viewBox="0 0 50 50" fill="none" xmlns="http://www.w3.org/2000/svg">
<rect width="50" height="50" rx="12" fill="url(#paint0_linear_114_5259)"/>
<path d="M23.25 21.125C23.25 20.8266 23.3685 20.5405 23.5795 20.3295C23.7905 20.1185 24.0766 20 24.375 20C24.6734 20 24.9595 20.1185 25.1705 20.3295C25.3815 20.5405 25.5 20.8266 25.5 21.125V26.1538L26.8612 26.3L32.4187 28.7638C33.015 29.0337 33.375 29.63 33.375 30.2825V35.1875C33.3413 36.11 32.61 36.8412 31.6875 36.875H24.375C23.9475 36.875 23.5425 36.7062 23.25 36.3913L17.7375 31.6663L18.57 30.8C18.7838 30.5638 19.0875 30.44 19.4025 30.44H19.65L23.25 32.375V21.125ZM24.375 16.625C25.5685 16.625 26.7131 17.0991 27.557 17.943C28.4009 18.7869 28.875 19.9315 28.875 21.125C28.875 22.8125 27.975 24.2413 26.625 25.0175V23.645C27.3112 23.0262 27.75 22.1262 27.75 21.125C27.75 20.2299 27.3944 19.3714 26.7615 18.7385C26.1286 18.1056 25.2701 17.75 24.375 17.75C23.4799 17.75 22.6214 18.1056 21.9885 18.7385C21.3556 19.3714 21 20.2299 21 21.125C21 22.1262 21.4388 23.0262 22.125 23.645V25.0175C20.775 24.2413 19.875 22.8125 19.875 21.125C19.875 19.9315 20.3491 18.7869 21.193 17.943C22.0369 17.0991 23.1815 16.625 24.375 16.625ZM24.375 14.375C26.1652 14.375 27.8821 15.0862 29.148 16.352C30.4138 17.6179 31.125 19.3348 31.125 21.125C31.125 23.0375 30.3263 24.7587 29.055 25.9963L27.93 25.49C28.5764 24.9608 29.0973 24.2948 29.4553 23.54C29.8132 22.7852 29.9993 21.9604 30 21.125C30 19.6332 29.4074 18.2024 28.3525 17.1475C27.2976 16.0926 25.8668 15.5 24.375 15.5C22.8832 15.5 21.4524 16.0926 20.3975 17.1475C19.3426 18.2024 18.75 19.6332 18.75 21.125C18.75 23.4312 20.1337 25.4113 22.125 26.2775V27.4925C19.5038 26.5588 17.625 24.0612 17.625 21.125C17.625 19.3348 18.3362 17.6179 19.602 16.352C20.8679 15.0862 22.5848 14.375 24.375 14.375Z" fill="white"/>
<defs>
<linearGradient id="paint0_linear_114_5259" x1="45.3859" y1="33.4537" x2="-0.078381" y2="45.6155" gradientUnits="userSpaceOnUse">
<stop stop-color="#6FBE59"/>
<stop offset="1" stop-color="#37AE37"/>
</linearGradient>
</defs>
</svg>
