<svg width="50" height="50" viewBox="0 0 50 50" fill="none" xmlns="http://www.w3.org/2000/svg">
<rect width="50" height="50" rx="12" fill="url(#paint0_linear_114_5266)"/>
<path d="M34.5303 27.4697L32.5 25.4395V22.75C32.4977 20.8914 31.8063 19.0996 30.5595 17.7212C29.3127 16.3428 27.5991 15.4757 25.75 15.2875V13.75H24.25V15.2875C22.4009 15.4757 20.6873 16.3428 19.4405 17.7212C18.1937 19.0996 17.5023 20.8914 17.5 22.75V25.4395L15.4697 27.4697C15.3291 27.6104 15.25 27.8011 15.25 28V30.25C15.25 30.4489 15.329 30.6397 15.4697 30.7803C15.6103 30.921 15.8011 31 16 31H21.25V31.75C21.25 32.7446 21.6451 33.6984 22.3483 34.4016C23.0516 35.1049 24.0054 35.5 25 35.5C25.9946 35.5 26.9484 35.1049 27.6517 34.4016C28.3549 33.6984 28.75 32.7446 28.75 31.75V31H34C34.1989 31 34.3897 30.921 34.5303 30.7803C34.671 30.6397 34.75 30.4489 34.75 30.25V28C34.75 27.8011 34.6709 27.6104 34.5303 27.4697ZM27.25 31.75C27.25 32.3467 27.0129 32.919 26.591 33.341C26.169 33.7629 25.5967 34 25 34C24.4033 34 23.831 33.7629 23.409 33.341C22.9871 32.919 22.75 32.3467 22.75 31.75V31H27.25V31.75Z" fill="white"/>
<defs>
<linearGradient id="paint0_linear_114_5266" x1="45.3859" y1="33.4537" x2="-0.078381" y2="45.6155" gradientUnits="userSpaceOnUse">
<stop stop-color="#6FBE59"/>
<stop offset="1" stop-color="#37AE37"/>
</linearGradient>
</defs>
</svg>
