<svg width="312" height="56" viewBox="0 0 312 56" fill="none" xmlns="http://www.w3.org/2000/svg">
<path opacity="0.2" d="M28 49C39.598 49 49 39.598 49 28C49 16.402 39.598 7 28 7C16.402 7 7 16.402 7 28C7 39.598 16.402 49 28 49Z" fill="#FF8800"/>
<path d="M28 49C39.598 49 49 39.598 49 28C49 16.402 39.598 7 28 7C16.402 7 7 16.402 7 28C7 39.598 16.402 49 28 49Z" stroke="#FF8800" stroke-width="3" stroke-miterlimit="10"/>
<path d="M37.0952 33.2493C36.1727 34.8449 34.8467 36.1697 33.2502 37.0908C31.6538 38.0119 29.8431 38.4967 28 38.4967C26.157 38.4968 24.3463 38.0119 22.7498 37.0909C21.1534 36.1698 19.8273 34.845 18.9048 33.2494" stroke="#FF8800" stroke-width="3" stroke-linecap="round" stroke-linejoin="round"/>
<path d="M21.25 23.625C21.25 24.2463 20.7463 24.75 20.125 24.75C19.5037 24.75 19 24.2463 19 23.625C19 23.0037 19.5037 22.5 20.125 22.5C20.7463 22.5 21.25 23.0037 21.25 23.625Z" fill="#FF8800" stroke="#FF8800" stroke-width="3"/>
<path d="M37 23.625C37 24.2463 36.4963 24.75 35.875 24.75C35.2537 24.75 34.75 24.2463 34.75 23.625C34.75 23.0037 35.2537 22.5 35.875 22.5C36.4963 22.5 37 23.0037 37 23.625Z" fill="#FF8800" stroke="#FF8800" stroke-width="3"/>
<path d="M82.336 26.24C81.088 26.24 80 25.968 79.072 25.424C78.144 24.864 77.288 23.92 76.504 22.592L78.856 21.104C79.224 21.696 79.6 22.176 79.984 22.544C80.384 22.896 80.784 23.16 81.184 23.336C81.6 23.496 82.04 23.576 82.504 23.576C83.032 23.576 83.512 23.448 83.944 23.192C84.392 22.936 84.744 22.584 85 22.136C85.272 21.688 85.408 21.176 85.408 20.6C85.408 20.024 85.296 19.536 85.072 19.136C84.864 18.736 84.552 18.432 84.136 18.224C83.736 18 83.248 17.888 82.672 17.888C82.416 17.888 82.144 17.92 81.856 17.984C81.568 18.032 81.264 18.112 80.944 18.224C80.624 18.32 80.272 18.44 79.888 18.584L79.12 16.544L83.896 11.264L84.616 11.96L77.536 11.912V9.152H87.4L87.976 10.304L82.456 16.328L81.736 15.536C81.864 15.472 82.072 15.416 82.36 15.368C82.664 15.304 82.928 15.272 83.152 15.272C83.856 15.272 84.528 15.408 85.168 15.68C85.808 15.936 86.36 16.304 86.824 16.784C87.304 17.264 87.68 17.824 87.952 18.464C88.224 19.088 88.36 19.768 88.36 20.504C88.36 21.608 88.088 22.592 87.544 23.456C87.016 24.304 86.296 24.984 85.384 25.496C84.472 25.992 83.456 26.24 82.336 26.24ZM90.8747 26L90.0827 24.032L95.1228 18.392C95.4108 18.104 95.7068 17.776 96.0108 17.408C96.3148 17.024 96.6028 16.632 96.8748 16.232C97.1628 15.816 97.3948 15.416 97.5708 15.032C97.7468 14.632 97.8348 14.264 97.8348 13.928C97.8348 13.496 97.7388 13.12 97.5468 12.8C97.3708 12.48 97.1148 12.232 96.7788 12.056C96.4428 11.88 96.0268 11.792 95.5308 11.792C95.0988 11.792 94.6748 11.92 94.2588 12.176C93.8588 12.416 93.4828 12.768 93.1308 13.232C92.7948 13.68 92.5148 14.216 92.2907 14.84L89.9387 13.448C90.2267 12.52 90.6587 11.72 91.2347 11.048C91.8267 10.36 92.5148 9.832 93.2988 9.464C94.0988 9.096 94.9628 8.912 95.8908 8.912C96.8508 8.912 97.7068 9.112 98.4588 9.512C99.2108 9.912 99.8028 10.464 100.235 11.168C100.683 11.872 100.907 12.696 100.907 13.64C100.907 13.992 100.867 14.36 100.787 14.744C100.707 15.112 100.579 15.504 100.403 15.92C100.243 16.32 100.027 16.744 99.7548 17.192C99.4828 17.624 99.1548 18.08 98.7708 18.56C98.4028 19.04 97.9788 19.544 97.4988 20.072L93.6828 24.224L93.2027 23.12H101.507V26H90.8747Z" fill="#061C3D"/>
<path d="M83.77 53V43.2H85.282V53H83.77ZM77.372 53V43.2H78.884V53H77.372ZM78.03 48.842V47.386H84.442V48.842H78.03ZM87.1404 53L90.9344 43.2H92.4744L96.2404 53H94.6304L92.3904 47.092C92.3624 47.0267 92.3064 46.868 92.2224 46.616C92.1477 46.364 92.0591 46.084 91.9564 45.776C91.8537 45.468 91.7604 45.188 91.6764 44.936C91.5924 44.6747 91.5364 44.5067 91.5084 44.432L91.8304 44.418C91.7744 44.5767 91.7044 44.7773 91.6204 45.02C91.5457 45.2627 91.4617 45.5193 91.3684 45.79C91.2844 46.0607 91.2004 46.3173 91.1164 46.56C91.0324 46.7933 90.9624 46.9893 90.9064 47.148L88.6804 53H87.1404ZM88.8204 50.564L89.3804 49.108H93.8324L94.4764 50.564H88.8204ZM98.1051 53V43.2H102.095C102.627 43.2 103.108 43.3353 103.537 43.606C103.976 43.8673 104.326 44.2267 104.587 44.684C104.848 45.1413 104.979 45.65 104.979 46.21C104.979 46.77 104.848 47.2787 104.587 47.736C104.326 48.1933 103.976 48.562 103.537 48.842C103.108 49.1127 102.627 49.248 102.095 49.248H99.6171V53H98.1051ZM99.6171 47.792H102.067C102.319 47.792 102.548 47.722 102.753 47.582C102.958 47.4327 103.122 47.2413 103.243 47.008C103.374 46.7653 103.439 46.4993 103.439 46.21C103.439 45.9207 103.374 45.6593 103.243 45.426C103.122 45.1927 102.958 45.006 102.753 44.866C102.548 44.726 102.319 44.656 102.067 44.656H99.6171V47.792ZM107.118 53V43.2H111.108C111.64 43.2 112.121 43.3353 112.55 43.606C112.989 43.8673 113.339 44.2267 113.6 44.684C113.862 45.1413 113.992 45.65 113.992 46.21C113.992 46.77 113.862 47.2787 113.6 47.736C113.339 48.1933 112.989 48.562 112.55 48.842C112.121 49.1127 111.64 49.248 111.108 49.248H108.63V53H107.118ZM108.63 47.792H111.08C111.332 47.792 111.561 47.722 111.766 47.582C111.972 47.4327 112.135 47.2413 112.256 47.008C112.387 46.7653 112.452 46.4993 112.452 46.21C112.452 45.9207 112.387 45.6593 112.256 45.426C112.135 45.1927 111.972 45.006 111.766 44.866C111.561 44.726 111.332 44.656 111.08 44.656H108.63V47.792ZM118.763 53V48.114L118.861 48.8L114.899 43.2H116.719L119.743 47.54L119.393 47.498L122.123 43.2H123.859L120.065 48.954L120.275 48.002V53H118.763ZM129.577 53V43.2H133.567C134.099 43.2 134.58 43.3353 135.009 43.606C135.448 43.8673 135.798 44.2267 136.059 44.684C136.321 45.1413 136.451 45.65 136.451 46.21C136.451 46.77 136.321 47.2787 136.059 47.736C135.798 48.1933 135.448 48.562 135.009 48.842C134.58 49.1127 134.099 49.248 133.567 49.248H131.089V53H129.577ZM131.089 47.792H133.539C133.791 47.792 134.02 47.722 134.225 47.582C134.431 47.4327 134.594 47.2413 134.715 47.008C134.846 46.7653 134.911 46.4993 134.911 46.21C134.911 45.9207 134.846 45.6593 134.715 45.426C134.594 45.1927 134.431 45.006 134.225 44.866C134.02 44.726 133.791 44.656 133.539 44.656H131.089V47.792ZM136.652 53L140.446 43.2H141.986L145.752 53H144.142L141.902 47.092C141.874 47.0267 141.818 46.868 141.734 46.616C141.66 46.364 141.571 46.084 141.468 45.776C141.366 45.468 141.272 45.188 141.188 44.936C141.104 44.6747 141.048 44.5067 141.02 44.432L141.342 44.418C141.286 44.5767 141.216 44.7773 141.132 45.02C141.058 45.2627 140.974 45.5193 140.88 45.79C140.796 46.0607 140.712 46.3173 140.628 46.56C140.544 46.7933 140.474 46.9893 140.418 47.148L138.192 53H136.652ZM138.332 50.564L138.892 49.108H143.344L143.988 50.564H138.332ZM147.617 53V43.2H151.789C152.349 43.2 152.862 43.34 153.329 43.62C153.805 43.8907 154.183 44.264 154.463 44.74C154.743 45.2067 154.883 45.734 154.883 46.322C154.883 46.854 154.743 47.3487 154.463 47.806C154.183 48.2633 153.81 48.632 153.343 48.912C152.876 49.1827 152.358 49.318 151.789 49.318H149.129V53H147.617ZM153.441 53L150.949 48.576L152.503 48.226L155.275 53.014L153.441 53ZM149.129 47.862H151.929C152.2 47.862 152.442 47.7967 152.657 47.666C152.872 47.526 153.04 47.3393 153.161 47.106C153.282 46.8633 153.343 46.5973 153.343 46.308C153.343 45.9813 153.264 45.6967 153.105 45.454C152.956 45.202 152.741 45.006 152.461 44.866C152.19 44.726 151.882 44.656 151.537 44.656H149.129V47.862ZM159.08 53V44.656H156.336V43.2H163.42V44.656H160.592V53H159.08ZM165.424 53V43.2H166.782L172.774 51.222L172.55 51.348C172.513 51.1147 172.48 50.8627 172.452 50.592C172.424 50.312 172.396 50.018 172.368 49.71C172.35 49.3927 172.331 49.0613 172.312 48.716C172.303 48.3613 172.294 47.9927 172.284 47.61C172.275 47.2273 172.27 46.8307 172.27 46.42V43.2H173.782V53H172.396L166.502 45.272L166.656 45.076C166.703 45.6453 166.74 46.1307 166.768 46.532C166.806 46.924 166.834 47.26 166.852 47.54C166.88 47.8107 166.899 48.0347 166.908 48.212C166.918 48.38 166.922 48.52 166.922 48.632C166.932 48.744 166.936 48.842 166.936 48.926V53H165.424ZM176.666 53V43.2H182.84V44.656H178.178V51.544H182.84V53H176.666ZM177.352 48.702V47.246H182.07V48.702H177.352ZM185.406 53V43.2H189.578C190.138 43.2 190.651 43.34 191.118 43.62C191.594 43.8907 191.972 44.264 192.252 44.74C192.532 45.2067 192.672 45.734 192.672 46.322C192.672 46.854 192.532 47.3487 192.252 47.806C191.972 48.2633 191.598 48.632 191.132 48.912C190.665 49.1827 190.147 49.318 189.578 49.318H186.918V53H185.406ZM191.23 53L188.738 48.576L190.292 48.226L193.064 53.014L191.23 53ZM186.918 47.862H189.718C189.988 47.862 190.231 47.7967 190.446 47.666C190.66 47.526 190.828 47.3393 190.95 47.106C191.071 46.8633 191.132 46.5973 191.132 46.308C191.132 45.9813 191.052 45.6967 190.894 45.454C190.744 45.202 190.53 45.006 190.25 44.866C189.979 44.726 189.671 44.656 189.326 44.656H186.918V47.862ZM198.304 53.14C197.772 53.14 197.277 53.07 196.82 52.93C196.372 52.79 195.961 52.58 195.588 52.3C195.224 52.0107 194.897 51.656 194.608 51.236L195.644 50.046C196.101 50.6993 196.54 51.152 196.96 51.404C197.38 51.656 197.879 51.782 198.458 51.782C198.813 51.782 199.135 51.726 199.424 51.614C199.713 51.502 199.942 51.348 200.11 51.152C200.278 50.956 200.362 50.732 200.362 50.48C200.362 50.312 200.334 50.1533 200.278 50.004C200.222 49.8547 200.133 49.7193 200.012 49.598C199.9 49.4767 199.751 49.3647 199.564 49.262C199.387 49.1593 199.177 49.0707 198.934 48.996C198.691 48.912 198.411 48.842 198.094 48.786C197.59 48.6833 197.151 48.548 196.778 48.38C196.405 48.212 196.092 48.002 195.84 47.75C195.588 47.498 195.401 47.2133 195.28 46.896C195.159 46.5693 195.098 46.2053 195.098 45.804C195.098 45.412 195.182 45.048 195.35 44.712C195.527 44.376 195.765 44.0867 196.064 43.844C196.372 43.592 196.731 43.4007 197.142 43.27C197.553 43.13 197.996 43.06 198.472 43.06C198.976 43.06 199.438 43.1253 199.858 43.256C200.278 43.3867 200.651 43.5827 200.978 43.844C201.305 44.096 201.575 44.4087 201.79 44.782L200.726 45.832C200.539 45.524 200.329 45.2673 200.096 45.062C199.863 44.8473 199.606 44.6887 199.326 44.586C199.046 44.474 198.747 44.418 198.43 44.418C198.066 44.418 197.749 44.474 197.478 44.586C197.207 44.698 196.993 44.8567 196.834 45.062C196.685 45.258 196.61 45.4913 196.61 45.762C196.61 45.958 196.647 46.14 196.722 46.308C196.797 46.4667 196.909 46.6113 197.058 46.742C197.217 46.8633 197.427 46.9753 197.688 47.078C197.949 47.1713 198.262 47.2553 198.626 47.33C199.139 47.442 199.597 47.5867 199.998 47.764C200.399 47.932 200.74 48.1327 201.02 48.366C201.3 48.5993 201.51 48.8607 201.65 49.15C201.799 49.4393 201.874 49.752 201.874 50.088C201.874 50.7133 201.729 51.2547 201.44 51.712C201.151 52.1693 200.74 52.524 200.208 52.776C199.676 53.0187 199.041 53.14 198.304 53.14Z" fill="#42526B"/>
</svg>
