<svg width="56" height="56" viewBox="0 0 56 56" fill="none" xmlns="http://www.w3.org/2000/svg">
<path opacity="0.2" d="M19.25 35C25.5322 35 30.625 29.9072 30.625 23.625C30.625 17.3428 25.5322 12.25 19.25 12.25C12.9678 12.25 7.875 17.3428 7.875 23.625C7.875 29.9072 12.9678 35 19.25 35Z" fill="#0F9918"/>
<path d="M19.25 35C25.5322 35 30.625 29.9072 30.625 23.625C30.625 17.3428 25.5322 12.25 19.25 12.25C12.9678 12.25 7.875 17.3428 7.875 23.625C7.875 29.9072 12.9678 35 19.25 35Z" stroke="#0F9918" stroke-width="3" stroke-miterlimit="10"/>
<path d="M33.9963 12.6736C35.5609 12.2328 37.2017 12.1324 38.8083 12.3791C40.415 12.6259 41.9501 13.214 43.3102 14.104C44.6704 14.994 45.8241 16.1651 46.6935 17.5385C47.563 18.9118 48.128 20.4556 48.3506 22.0657C48.5732 23.6759 48.4482 25.315 47.9839 26.8728C47.5197 28.4305 46.727 29.8707 45.6593 31.0963C44.5916 32.3219 43.2737 33.3045 41.7942 33.9779C40.3148 34.6512 38.7083 34.9997 37.0828 34.9999" stroke="#0F9918" stroke-width="3" stroke-linecap="round" stroke-linejoin="round"/>
<path d="M3.49878 43.1805C5.27532 40.6535 7.63379 38.5911 10.3751 37.1673C13.1164 35.7435 16.16 35.0001 19.249 35C22.3379 34.9999 25.3816 35.743 28.123 37.1666C30.8644 38.5902 33.223 40.6525 34.9998 43.1793" stroke="#0F9918" stroke-width="3" stroke-linecap="round" stroke-linejoin="round"/>
<path d="M37.0828 35C40.172 34.9978 43.2164 35.74 45.958 37.1637C48.6996 38.5875 51.0578 40.6509 52.8328 43.1793" stroke="#0F9918" stroke-width="3" stroke-linecap="round" stroke-linejoin="round"/>
</svg>
