<svg width="312" height="56" viewBox="0 0 312 56" fill="none" xmlns="http://www.w3.org/2000/svg">
<path opacity="0.2" d="M28.0002 33.25C20.6279 33.2616 13.3836 31.3235 7.00195 27.6322V45.5C7.00195 45.7298 7.04722 45.9574 7.13516 46.1697C7.22311 46.382 7.35201 46.575 7.51451 46.7375C7.67702 46.9 7.86993 47.0289 8.08225 47.1168C8.29458 47.2048 8.52214 47.25 8.75195 47.25H47.252C47.4818 47.25 47.7093 47.2048 47.9216 47.1168C48.134 47.0289 48.3269 46.9 48.4894 46.7375C48.6519 46.575 48.7808 46.382 48.8687 46.1697C48.9567 45.9574 49.002 45.7298 49.002 45.5V27.6301C42.6195 31.3228 35.3739 33.2616 28.0002 33.25Z" fill="#F249C8"/>
<path d="M47.252 15.75H8.75195C7.78545 15.75 7.00195 16.5335 7.00195 17.5V45.5C7.00195 46.4665 7.78545 47.25 8.75195 47.25H47.252C48.2185 47.25 49.002 46.4665 49.002 45.5V17.5C49.002 16.5335 48.2185 15.75 47.252 15.75Z" stroke="#F249C8" stroke-width="3" stroke-linecap="round" stroke-linejoin="round"/>
<path d="M36.751 15.75V12.25C36.751 11.3217 36.3822 10.4315 35.7259 9.77513C35.0695 9.11875 34.1792 8.75 33.251 8.75H22.751C21.8227 8.75 20.9325 9.11875 20.2761 9.77513C19.6197 10.4315 19.251 11.3217 19.251 12.25V15.75" stroke="#F249C8" stroke-width="3" stroke-linecap="round" stroke-linejoin="round"/>
<path d="M49.0023 27.6301C42.6198 31.3227 35.3742 33.2616 28.0005 33.25C20.6281 33.2616 13.3837 31.3234 7.00195 27.632" stroke="#F249C8" stroke-width="3" stroke-linecap="round" stroke-linejoin="round"/>
<path d="M25.3745 26.25H30.6245" stroke="#F249C8" stroke-width="3" stroke-linecap="round" stroke-linejoin="round"/>
<path d="M84.424 26V12.44L85.576 12.56L79.864 19.544L79.6 19.112H90.28V21.824H77.92L76.624 19.328L84.976 9.152H87.424V26H84.424ZM96.1064 24.824V11.192L96.9944 12.344L93.5864 14.072L92.8904 11.336L97.4744 8.96H99.2024V24.824H96.1064ZM93.2984 26V23.12H102.082V26H93.2984Z" fill="#061C3D"/>
<path d="M77.372 53V43.2H81.362C81.894 43.2 82.3747 43.3353 82.804 43.606C83.2427 43.8673 83.5927 44.2267 83.854 44.684C84.1153 45.1413 84.246 45.65 84.246 46.21C84.246 46.77 84.1153 47.2787 83.854 47.736C83.5927 48.1933 83.2427 48.562 82.804 48.842C82.3747 49.1127 81.894 49.248 81.362 49.248H78.884V53H77.372ZM78.884 47.792H81.334C81.586 47.792 81.8147 47.722 82.02 47.582C82.2253 47.4327 82.3887 47.2413 82.51 47.008C82.6407 46.7653 82.706 46.4993 82.706 46.21C82.706 45.9207 82.6407 45.6593 82.51 45.426C82.3887 45.1927 82.2253 45.006 82.02 44.866C81.8147 44.726 81.586 44.656 81.334 44.656H78.884V47.792ZM86.385 53V43.2H90.557C91.117 43.2 91.6304 43.34 92.097 43.62C92.573 43.8907 92.951 44.264 93.231 44.74C93.511 45.2067 93.651 45.734 93.651 46.322C93.651 46.854 93.511 47.3487 93.231 47.806C92.951 48.2633 92.5777 48.632 92.111 48.912C91.6444 49.1827 91.1264 49.318 90.557 49.318H87.897V53H86.385ZM92.209 53L89.717 48.576L91.271 48.226L94.043 53.014L92.209 53ZM87.897 47.862H90.697C90.9677 47.862 91.2104 47.7967 91.425 47.666C91.6397 47.526 91.8077 47.3393 91.929 47.106C92.0504 46.8633 92.111 46.5973 92.111 46.308C92.111 45.9813 92.0317 45.6967 91.873 45.454C91.7237 45.202 91.509 45.006 91.229 44.866C90.9584 44.726 90.6504 44.656 90.305 44.656H87.897V47.862ZM100.225 53.14C99.534 53.14 98.8947 53.014 98.3067 52.762C97.728 52.51 97.2194 52.16 96.7807 51.712C96.3514 51.2547 96.0154 50.7227 95.7727 50.116C95.5394 49.5 95.4227 48.828 95.4227 48.1C95.4227 47.372 95.5394 46.7047 95.7727 46.098C96.0154 45.482 96.3514 44.95 96.7807 44.502C97.2194 44.0447 97.728 43.69 98.3067 43.438C98.8947 43.186 99.534 43.06 100.225 43.06C100.915 43.06 101.55 43.186 102.129 43.438C102.717 43.69 103.225 44.0447 103.655 44.502C104.093 44.9593 104.429 45.496 104.663 46.112C104.905 46.7187 105.027 47.3813 105.027 48.1C105.027 48.8187 104.905 49.486 104.663 50.102C104.429 50.7087 104.093 51.2407 103.655 51.698C103.225 52.1553 102.717 52.51 102.129 52.762C101.55 53.014 100.915 53.14 100.225 53.14ZM100.225 51.67C100.701 51.67 101.135 51.5813 101.527 51.404C101.928 51.2267 102.273 50.9793 102.563 50.662C102.852 50.3353 103.076 49.9573 103.235 49.528C103.403 49.0893 103.487 48.6133 103.487 48.1C103.487 47.5867 103.403 47.1153 103.235 46.686C103.076 46.2473 102.852 45.8693 102.563 45.552C102.273 45.2253 101.928 44.9733 101.527 44.796C101.135 44.6187 100.701 44.53 100.225 44.53C99.7487 44.53 99.31 44.6187 98.9087 44.796C98.5167 44.9733 98.1714 45.2207 97.8727 45.538C97.5834 45.8553 97.3594 46.2333 97.2007 46.672C97.042 47.1013 96.9627 47.5773 96.9627 48.1C96.9627 48.6133 97.042 49.0893 97.2007 49.528C97.3594 49.9667 97.5834 50.3447 97.8727 50.662C98.1714 50.9793 98.5167 51.2267 98.9087 51.404C99.31 51.5813 99.7487 51.67 100.225 51.67ZM107.214 53V43.2H111.05C111.75 43.2 112.38 43.3167 112.94 43.55C113.509 43.7833 113.995 44.1193 114.396 44.558C114.797 44.9967 115.105 45.5147 115.32 46.112C115.535 46.7093 115.642 47.372 115.642 48.1C115.642 48.828 115.535 49.4953 115.32 50.102C115.105 50.6993 114.797 51.2173 114.396 51.656C114.004 52.0853 113.523 52.4167 112.954 52.65C112.385 52.8833 111.75 53 111.05 53H107.214ZM108.726 51.698L108.684 51.544H110.98C111.475 51.544 111.913 51.4647 112.296 51.306C112.688 51.1473 113.015 50.9233 113.276 50.634C113.547 50.3353 113.752 49.9713 113.892 49.542C114.032 49.1127 114.102 48.632 114.102 48.1C114.102 47.568 114.032 47.092 113.892 46.672C113.752 46.2427 113.547 45.8787 113.276 45.58C113.005 45.2813 112.679 45.0527 112.296 44.894C111.913 44.7353 111.475 44.656 110.98 44.656H108.642L108.726 44.53V51.698ZM121.635 53.084C120.879 53.084 120.202 52.9207 119.605 52.594C119.007 52.258 118.536 51.8007 118.191 51.222C117.855 50.634 117.687 49.9713 117.687 49.234V43.186H119.199V49.108C119.199 49.584 119.311 50.0133 119.535 50.396C119.759 50.7693 120.053 51.068 120.417 51.292C120.79 51.516 121.196 51.628 121.635 51.628C122.101 51.628 122.521 51.516 122.895 51.292C123.277 51.068 123.581 50.7693 123.805 50.396C124.029 50.0133 124.141 49.584 124.141 49.108V43.186H125.583V49.234C125.583 49.9713 125.41 50.634 125.065 51.222C124.729 51.8007 124.262 52.258 123.665 52.594C123.067 52.9207 122.391 53.084 121.635 53.084ZM132.306 53.14C131.624 53.14 130.999 53.0187 130.43 52.776C129.86 52.5333 129.366 52.188 128.946 51.74C128.526 51.2827 128.199 50.746 127.966 50.13C127.742 49.514 127.63 48.8373 127.63 48.1C127.63 47.4 127.751 46.7513 127.994 46.154C128.246 45.5473 128.591 45.0153 129.03 44.558C129.468 44.1007 129.977 43.746 130.556 43.494C131.134 43.242 131.76 43.116 132.432 43.116C132.908 43.116 133.37 43.1907 133.818 43.34C134.275 43.48 134.686 43.6807 135.05 43.942C135.423 44.194 135.726 44.4833 135.96 44.81L134.952 45.86C134.681 45.5893 134.406 45.3653 134.126 45.188C133.855 45.0013 133.575 44.8613 133.286 44.768C133.006 44.6747 132.721 44.628 132.432 44.628C131.974 44.628 131.545 44.7167 131.144 44.894C130.752 45.062 130.406 45.3 130.108 45.608C129.818 45.916 129.59 46.2847 129.422 46.714C129.254 47.134 129.17 47.596 129.17 48.1C129.17 48.632 129.249 49.1173 129.408 49.556C129.576 49.9853 129.809 50.354 130.108 50.662C130.406 50.97 130.761 51.208 131.172 51.376C131.592 51.5347 132.054 51.614 132.558 51.614C132.866 51.614 133.169 51.572 133.468 51.488C133.766 51.404 134.046 51.2827 134.308 51.124C134.569 50.9653 134.807 50.7787 135.022 50.564L135.778 51.796C135.563 52.048 135.269 52.2767 134.896 52.482C134.532 52.6873 134.121 52.8507 133.664 52.972C133.216 53.084 132.763 53.14 132.306 53.14ZM139.834 53V44.656H137.09V43.2H144.174V44.656H141.346V53H139.834ZM149.202 53.14C148.67 53.14 148.176 53.07 147.718 52.93C147.27 52.79 146.86 52.58 146.486 52.3C146.122 52.0107 145.796 51.656 145.506 51.236L146.542 50.046C147 50.6993 147.438 51.152 147.858 51.404C148.278 51.656 148.778 51.782 149.356 51.782C149.711 51.782 150.033 51.726 150.322 51.614C150.612 51.502 150.84 51.348 151.008 51.152C151.176 50.956 151.26 50.732 151.26 50.48C151.26 50.312 151.232 50.1533 151.176 50.004C151.12 49.8547 151.032 49.7193 150.91 49.598C150.798 49.4767 150.649 49.3647 150.462 49.262C150.285 49.1593 150.075 49.0707 149.832 48.996C149.59 48.912 149.31 48.842 148.992 48.786C148.488 48.6833 148.05 48.548 147.676 48.38C147.303 48.212 146.99 48.002 146.738 47.75C146.486 47.498 146.3 47.2133 146.178 46.896C146.057 46.5693 145.996 46.2053 145.996 45.804C145.996 45.412 146.08 45.048 146.248 44.712C146.426 44.376 146.664 44.0867 146.962 43.844C147.27 43.592 147.63 43.4007 148.04 43.27C148.451 43.13 148.894 43.06 149.37 43.06C149.874 43.06 150.336 43.1253 150.756 43.256C151.176 43.3867 151.55 43.5827 151.876 43.844C152.203 44.096 152.474 44.4087 152.688 44.782L151.624 45.832C151.438 45.524 151.228 45.2673 150.994 45.062C150.761 44.8473 150.504 44.6887 150.224 44.586C149.944 44.474 149.646 44.418 149.328 44.418C148.964 44.418 148.647 44.474 148.376 44.586C148.106 44.698 147.891 44.8567 147.732 45.062C147.583 45.258 147.508 45.4913 147.508 45.762C147.508 45.958 147.546 46.14 147.62 46.308C147.695 46.4667 147.807 46.6113 147.956 46.742C148.115 46.8633 148.325 46.9753 148.586 47.078C148.848 47.1713 149.16 47.2553 149.524 47.33C150.038 47.442 150.495 47.5867 150.896 47.764C151.298 47.932 151.638 48.1327 151.918 48.366C152.198 48.5993 152.408 48.8607 152.548 49.15C152.698 49.4393 152.772 49.752 152.772 50.088C152.772 50.7133 152.628 51.2547 152.338 51.712C152.049 52.1693 151.638 52.524 151.106 52.776C150.574 53.0187 149.94 53.14 149.202 53.14Z" fill="#42526B"/>
</svg>
